{
.appVersion = "3112";
.formatVersion = 3;
.storedFormatVersion = 1;
DisplayStrings = (
Kthrth,
"/zeroinferior/fourinferior/fiveinferior/sixinferior/seveninferior/eightinferior/eightinferior/nineinferior/four.numr/nine.numr ³/foursuperior/two.numr.alt/two.numr.alt/three.numr.alt/three.numr.alt/five.numr.alt/nine.numr.alt/nine.numr.alt",
"0",
"/bullet"
);
axes = (
{
name = Weight;
tag = wght;
}
);
classes = (
{
code = "A Aacute Abreve Acircumflex Adieresis Agrave Amacron Aogonek Aring Atilde AE AEacute B C Cacute Ccaron Ccedilla Ccircumflex Cdotaccent D Eth Dcaron Dcroat E Eacute Ebreve Ecaron Ecircumflex Edieresis Edotaccent Egrave Emacron Eogonek F G Gbreve Gcircumflex Gcommaaccent Gdotaccent H Hbar Hcircumflex I Iacute Ibreve Icircumflex Idieresis Idotaccent Igrave Imacron Iogonek Itilde J Jacute Jcircumflex K Kcommaaccent L Lacute Lcaron Lcommaaccent Ldot Lslash M N Nacute Ncaron Ncommaaccent Eng Ntilde O Oacute Obreve Ocircumflex Odieresis Ograve Ohungarumlaut Omacron Oslash Oslashacute Otilde OE P Thorn Q R Racute Rcaron Rcommaaccent S Sacute Scaron Scedilla Scircumflex Scommaaccent Germandbls T Tbar Tcaron Tcedilla Tcommaaccent U Uacute Ubreve Ucircumflex Udieresis Ugrave Uhungarumlaut Umacron Uogonek Uring Utilde V W Wacute Wcircumflex Wdieresis Wgrave X Y Yacute Ycircumflex Ydieresis Ygrave Z Zacute Zcaron Zdotaccent Germandbls";
name = Uppercase;
}
);
customParameters = (
{
name = fsType;
value = (
);
},
{
name = isFixedPitch;
value = 1;
},
{
name = "Write lastChange";
value = 0;
},
{
name = "Use Typo Metrics";
value = 1;
},
{
name = "Use Line Breaks";
value = 1;
}
);
date = "2018-02-01 02:59:50 +0000";
familyName = "SomeOthertype Mono";
featurePrefixes = (
{
automatic = 1;
code = "languagesystem DFLT dflt;
languagesystem latn dflt;
languagesystem latn NLD;
languagesystem latn CAT;
languagesystem latn ROM;
languagesystem latn MOL;
languagesystem latn KAZ;
languagesystem latn TAT;
languagesystem latn TRK;
languagesystem latn CRT;
languagesystem latn AZE;

glyphs = (
{
color = 0;
glyphname = A;
layers = (
{
anchors = (
{
name = bottom;
pos = (239,0);
},
{
name = ogonek;
pos = (509,0);
},
{
name = top;
pos = (378,650);
}
);
background = {
anchors = (
{
name = bottom;
pos = (239,0);
},
{
name = ogonek;
pos = (509,0);
},
{
name = top;
pos = (378,650);
}
);
shapes = (
{
closed = 1;
nodes = (
(515,0,l),
(439,650,l),
(369,650,l),
(307,549,l),
(331,650,l),
(379,144,l),
(394,0,l)
);
},
{
closed = 1;
nodes = (
(422,144,l),
(445,254,l),
(145,254,l),
(122,144,l)
);
},
{
closed = 1;
nodes = (
(88,0,l),
(165,144,l),
(427,650,l),
(403,549,l),
(385,650,l),
(315,650,l),
(-37,0,l)
);
}
);
};
layerId = "27302DAC-E04E-41A7-B2D2-BD8305143A0A";
shapes = (
{
closed = 1;
nodes = (
(88,0,l),
(165,144,l),
(379,144,l),
(394,0,l),
(515,0,l),
(439,650,l),
(315,650,l),
(-37,0,l)
);
},
{
closed = 1;
nodes = (
(346,493,l),
(369,254,l),
(222,254,l)
);
}
);
width = 580;
},
{
anchors = (
{
name = bottom;
pos = (240,0);
},
{
name = ogonek;
pos = (496,0);
},
{
name = top;
pos = (378,650);
}
);
background = {
anchors = (
{
name = bottom;
pos = (240,0);
},
{
name = ogonek;
pos = (496,0);
},
{
name = top;
pos = (378,650);
}
);
shapes = (
{
closed = 1;
nodes = (
(501,0,l),
(422,650,l),
(369,650,l),
(332,568,l),
(352,650,l),
(403,214,l),
(427,0,l)
);
},
{
closed = 1;
nodes = (
(441,180,l),
(456,250,l),
(132,250,l),
(117,180,l)
);
},
{
closed = 1;
nodes = (
(57,0,l),
(173,214,l),
(408,650,l),
(388,568,l),
(387,650,l),
(334,650,l),
(-21,0,l)
);
}
);
};
layerId = "B9B856C8-1FA2-46F4-A929-F36A99765E59";
shapes = (
{
closed = 1;
nodes = (
(57,0,l),
(155,180,l),
(407,180,l),
(427,0,l),
(501,0,l),
(422,650,l),
(334,650,l),
(-21,0,l)
);
},
{
closed = 1;
nodes = (
(362,565,l),
(399,250,l),
(192,250,l)
);
}
);
width = 580;
},
{
anchors = (
{
name = bottom;
pos = (240,0);
},
{
name = ogonek;
pos = (496,0);
},
{
name = top;
pos = (378,650);
}
);
associatedMasterId = "B9B856C8-1FA2-46F4-A929-F36A99765E59";
background = {
anchors = (
{
name = bottom;
pos = (240,0);
},
{
name = ogonek;
pos = (496,0);
},
{
name = top;
pos = (378,650);
}
);
shapes = (
{
closed = 1;
nodes = (
(500,0,l),
(421,650,l),
(367,650,l),
(330,568,l),
(349,650,l),
(400,214,l),
(424,0,l)
);
},
{
closed = 1;
nodes = (
(439,180,l),
(454,250,l),
(130,250,l),
(115,180,l)
);
},
{
closed = 1;
nodes = (
(54,0,l),
(170,214,l),
(405,650,l),
(386,568,l),
(385,650,l),
(333,650,l),
(-22,0,l)
);
}
);
};
layerId = "DE3F869E-44B7-45E4-B0A9-F976EC1C17EC";
name = slanted;
shapes = (
{
closed = 1;
nodes = (
(501,0,l),
(422,650,l),
(367,650,l),
(331,568,l),
(348,650,l),
(399,214,l),
(423,0,l)
);
},
{
closed = 1;
nodes = (
(439,180,l),
(454,250,l),
(130,250,l),
(115,180,l)
);
},
{
closed = 1;
nodes = (
(53,0,l),
(169,214,l),
(404,650,l),
(387,568,l),
(385,650,l),
(334,650,l),
(-21,0,l)
);
}
);
width = 580;
},
{
anchors = (
{
name = bottom;
pos = (239,0);
},
{
name = ogonek;
pos = (509,0);
},
{
name = top;
pos = (378,650);
}
);
associatedMasterId = "27302DAC-E04E-41A7-B2D2-BD8305143A0A";
background = {
anchors = (
{
name = bottom;
pos = (239,0);
},
{
name = ogonek;
pos = (509,0);
},
{
name = top;
pos = (378,650);
}
);
shapes = (
{
closed = 1;
nodes = (
(514,0,l),
(438,650,l),
(368,650,l),
(304,549,l),
(328,650,l),
(376,144,l),
(391,0,l)
);
},
{
closed = 1;
nodes = (
(419,144,l),
(442,254,l),
(142,254,l),
(119,144,l)
);
},
{
closed = 1;
nodes = (
(85,0,l),
(162,144,l),
(424,650,l),
(400,549,l),
(384,650,l),
(314,650,l),
(-38,0,l)
);
}
);
};
layerId = "D27FF60D-931C-4681-A32F-DCDF685AAC31";
name = slanted;
shapes = (
{
closed = 1;
nodes = (
(515,0,l),
(440,650,l),
(370,650,l),
(305,549,l),
(327,650,l),
(374,144,l),
(389,0,l)
);
},
{
closed = 1;
nodes = (
(419,144,l),
(442,254,l),
(142,254,l),
(119,144,l)
);
},
{
closed = 1;
nodes = (
(83,0,l),
(160,144,l),
(423,650,l),
(401,549,l),
(386,650,l),
(316,650,l),
(-37,0,l)
);
}
);
width = 580;
},
{
anchors = (
{
name = bottom;
pos = (239,0);
},
{
name = ogonek;
pos = (509,0);
},
{
name = top;
pos = (378,650);
}
);
associatedMasterId = "27302DAC-E04E-41A7-B2D2-BD8305143A0A";
background = {
anchors = (
{
name = bottom;
pos = (239,0);
},
{
name = ogonek;
pos = (509,0);
},
{
name = top;
pos = (378,650);
}
);
shapes = (
{
closed = 1;
nodes = (
(515,0,l),
(440,650,l),
(370,650,l),
(305,549,l),
(327,650,l),
(374,144,l),
(389,0,l)
);
},
{
closed = 1;
nodes = (
(419,144,l),
(442,254,l),
(142,254,l),
(119,144,l)
);
},
{
closed = 1;
nodes = (
(83,0,l),
(160,144,l),
(423,650,l),
(401,549,l),
(386,650,l),
(316,650,l),
(-37,0,l)
);
}
);
};
layerId = "029DEB6D-CFC7-426D-B1D0-6A365918B138";
name = cursify;
shapes = (
{
closed = 1;
nodes = (
(514,0,l),
(438,650,l),
(368,650,l),
(304,549,l),
(328,650,l),
(376,144,l),
(391,0,l)
);
},
{
closed = 1;
nodes = (
(419,144,l),
(442,254,l),
(142,254,l),
(119,144,l)
);
},
{
closed = 1;
nodes = (
(85,0,l),
(162,144,l),
(424,650,l),
(400,549,l),
(384,650,l),
(314,650,l),
(-38,0,l)
);
}
);
width = 580;
},
{
anchors = (
{
name = bottom;
pos = (240,0);
},
{
name = ogonek;
pos = (496,0);
},
{
name = top;
pos = (378,650);
}
);
associatedMasterId = "B9B856C8-1FA2-46F4-A929-F36A99765E59";
background = {
anchors = (
{
name = bottom;
pos = (240,0);
},
{
name = ogonek;
pos = (496,0);
},
{
name = top;
pos = (378,650);
}
);
shapes = (
{
closed = 1;
nodes = (
(501,0,l),
(422,650,l),
(367,650,l),
(331,568,l),
(348,650,l),
(399,214,l),
(423,0,l)
);
},
{
closed = 1;
nodes = (
(439,180,l),
(454,250,l),
(130,250,l),
(115,180,l)
);
},
{
closed = 1;
nodes = (
(53,0,l),
(169,214,l),
(404,650,l),
(387,568,l),
(385,650,l),
(334,650,l),
(-21,0,l)
);
}
);
};
layerId = "B23C7F39-4B24-4305-8101-3E7306F798D8";
name = cursify;
shapes = (
{
closed = 1;
nodes = (
(500,0,l),
(421,650,l),
(367,650,l),
(330,568,l),
(349,650,l),
(400,214,l),
(424,0,l)
);
},
{
closed = 1;
nodes = (
(439,180,l),
(454,250,l),
(130,250,l),
(115,180,l)
);
},
{
closed = 1;
nodes = (
(54,0,l),
(170,214,l),
(405,650,l),
(386,568,l),
(385,650,l),
(333,650,l),
(-22,0,l)
);
}
);
width = 580;
}
);
unicode = 65;
},
{
color = 0;
glyphname = AE;
layers = (
{
anchors = (
{
name = bottom;
pos = (240,0);
},
{
name = top;
pos = (392,650);
}
);
background = {
anchors = (
{
name = bottom;
pos = (240,0);
},
{
name = top;
pos = (392,650);
}
);
shapes = (
{
closed = 1;
nodes = (
(56,0,l),
(140,158,l),
(401,650,l),
(300,650,l),
(-59,0,l)
);
},
{
closed = 1;
nodes = (
(271,130,l),
(292,230,l),
(114,230,l),
(93,130,l)
);
},
{
closed = 1;
nodes = (
(519,0,l),
(541,100,l),
(352,100,l),
(330,0,l)
);
},
{
closed = 1;
nodes = (
(340,0,l),
(479,650,l),
(372,650,l),
(233,0,l)
);
},
{
closed = 1;
nodes = (
(550,281,l),
(571,381,l),
(411,381,l),
(390,281,l)
);
},
{
closed = 1;
nodes = (
(636,550,l),
(658,650,l),
(350,650,l),
(328,550,l)
);
}
);
};
layerId = "27302DAC-E04E-41A7-B2D2-BD8305143A0A";
shapes = (
{
closed = 1;
nodes = (
(56,0,l),
(125,130,l),
(261,130,l),
(233,0,l),
(519,0,l),
(541,100,l),
(361,100,l),
(400,281,l),
(550,281,l),
(571,381,l),
(421,381,l),
(458,550,l),
(636,550,l),
(658,650,l),
(300,650,l),
(-59,0,l)
);
},
{
closed = 1;
nodes = (
(348,550,l),
(351,550,l),
(282,230,l),
(178,230,l)
);
}
);
width = 580;
},
{
anchors = (
{
name = bottom;
pos = (239,0);
},
{
name = top;
pos = (396,650);
}
);
background = {
anchors = (
{
name = bottom;
pos = (239,0);
},
{
name = top;
pos = (396,650);
}
);
shapes = (
{
closed = 1;
nodes = (
(30,0,l),
(151,210,l),
(407,650,l),
(335,650,l),
(-47,0,l)
);
},
{
closed = 1;
nodes = (
(288,154,l),
(302,223,l),
(98,223,l),
(84,154,l)
);
},
{
closed = 1;
nodes = (
(516,0,l),
(531,69,l),
(322,69,l),
(307,0,l)
);
},
{
closed = 1;
nodes = (
(317,0,l),
(455,650,l),
(384,650,l),
(246,0,l)
);
},
{
closed = 1;
nodes = (
(550,297,l),
(565,365,l),
(384,365,l),
(369,297,l)
);
},
{
closed = 1;
nodes = (
(640,581,l),
(654,650,l),
(365,650,l),
(351,581,l)
);
}
);
};
layerId = "B9B856C8-1FA2-46F4-A929-F36A99765E59";
shapes = (
{
closed = 1;
nodes = (
(30,0,l),
(119,154,l),
(279,154,l),
(246,0,l),
(516,0,l),
(531,69,l),
(332,69,l),
(380,297,l),
(550,297,l),
(565,365,l),
(394,365,l),
(440,581,l),
(640,581,l),
(654,650,l),
(335,650,l),
(-47,0,l)
);
},
{
closed = 1;
nodes = (
(367,581,l),
(369,581,l),
(293,223,l),
(159,223,l)
);
}
);
width = 580;
},
{
anchors = (
{
name = bottom;
pos = (239,0);
},
{
name = top;
pos = (396,650);
}
);
associatedMasterId = "B9B856C8-1FA2-46F4-A929-F36A99765E59";
background = {
anchors = (
{
name = bottom;
pos = (239,0);
},
{
name = top;
pos = (396,650);
}
);
shapes = (
{
closed = 1;
nodes = (
(28,0,l),
(150,210,l),
(406,650,l),
(337,650,l),
(-46,0,l)
);
},
{
closed = 1;
nodes = (
(278,154,l),
(292,223,l),
(98,223,l),
(84,154,l)
);
},
{
closed = 1;
nodes = (
(516,0,l),
(531,69,l),
(331,69,l),
(316,0,l)
);
},
{
closed = 1;
nodes = (
(316,0,l),
(454,650,l),
(383,650,l),
(245,0,l)
);
},
{
closed = 1;
nodes = (
(550,297,l),
(565,365,l),
(394,365,l),
(379,297,l)
);
},
{
closed = 1;
nodes = (
(640,581,l),
(654,650,l),
(365,650,l),
(351,581,l)
);
}
);
};
layerId = "9665E261-7A2C-45CA-A99A-CA384A8FF69D";
name = slanted;
shapes = (
{
closed = 1;
nodes = (
(28,0,l),
(150,210,l),
(406,650,l),
(337,650,l),
(-46,0,l)
);
},
{
closed = 1;
nodes = (
(278,154,l),
(292,223,l),
(98,223,l),
(84,154,l)
);
},
{
closed = 1;
nodes = (
(516,0,l),
(531,69,l),
(331,69,l),
(316,0,l)
);
},
{
closed = 1;
nodes = (
(316,0,l),
(454,650,l),
(383,650,l),
(245,0,l)
);
},
{
closed = 1;
nodes = (
(550,297,l),
(565,365,l),
(394,365,l),
(379,297,l)
);
},
{
closed = 1;
nodes = (
(640,581,l),
(654,650,l),
(365,650,l),
(351,581,l)
);
}
);
width = 580;
},
{
anchors = (
{
name = bottom;
pos = (239,0);
},
{
name = top;
pos = (396,650);
}
);
associatedMasterId = "B9B856C8-1FA2-46F4-A929-F36A99765E59";
background = {
anchors = (
{
name = bottom;
pos = (239,0);
},
{
name = top;
pos = (396,650);
}
);
shapes = (
{
closed = 1;
nodes = (
(28,0,l),
(150,210,l),
(406,650,l),
(337,650,l),
(-46,0,l)
);
},
{
closed = 1;
nodes = (
(278,154,l),
(292,223,l),
(98,223,l),
(84,154,l)
);
},
{
closed = 1;
nodes = (
(516,0,l),
(531,69,l),
(331,69,l),
(316,0,l)
);
},
{
closed = 1;
nodes = (
(316,0,l),
(454,650,l),
(383,650,l),
(245,0,l)
);
},
{
closed = 1;
nodes = (
(550,297,l),
(565,365,l),
(394,365,l),
(379,297,l)
);
},
{
closed = 1;
nodes = (
(640,581,l),
(654,650,l),
(365,650,l),
(351,581,l)
);
}
);
};
layerId = "DAAF9DF7-9C6B-41CE-9E41-F33FD90244B3";
name = cursify;
shapes = (
{
closed = 1;
nodes = (
(29,0,l),
(151,210,l),
(407,650,l),
(336,650,l),
(-47,0,l)
);
},
{
closed = 1;
nodes = (
(278,154,l),
(292,223,l),
(98,223,l),
(84,154,l)
);
},
{
closed = 1;
nodes = (
(516,0,l),
(531,69,l),
(331,69,l),
(316,0,l)
);
},
{
closed = 1;
nodes = (
(316,0,l),
(454,650,l),
(383,650,l),
(245,0,l)
);
},
{
closed = 1;
nodes = (
(550,297,l),
(565,365,l),
(394,365,l),
(379,297,l)
);
},
{
closed = 1;
nodes = (
(640,581,l),
(654,650,l),
(365,650,l),
(351,581,l)
);
}
);
width = 580;
},
{
anchors = (
{
name = bottom;
pos = (240,0);
},
{
name = top;
pos = (392,650);
}
);
associatedMasterId = "27302DAC-E04E-41A7-B2D2-BD8305143A0A";
background = {
anchors = (
{
name = bottom;
pos = (240,0);
},
{
name = top;
pos = (392,650);
}
);
shapes = (
{
closed = 1;
nodes = (
(52,0,l),
(138,158,l),
(400,650,l),
(303,650,l),
(-58,0,l)
);
},
{
closed = 1;
nodes = (
(259,130,l),
(280,230,l),
(112,230,l),
(91,130,l)
);
},
{
closed = 1;
nodes = (
(519,0,l),
(541,100,l),
(360,100,l),
(338,0,l)
);
},
{
closed = 1;
nodes = (
(338,0,l),
(477,650,l),
(370,650,l),
(231,0,l)
);
},
{
closed = 1;
nodes = (
(550,281,l),
(571,381,l),
(419,381,l),
(398,281,l)
);
},
{
closed = 1;
nodes = (
(636,550,l),
(658,650,l),
(350,650,l),
(328,550,l)
);
}
);
};
layerId = "6699D447-CB91-408C-B976-8DDE511C9413";
name = slanted;
shapes = (
{
closed = 1;
nodes = (
(52,0,l),
(138,158,l),
(400,650,l),
(303,650,l),
(-58,0,l)
);
},
{
closed = 1;
nodes = (
(259,130,l),
(280,230,l),
(112,230,l),
(91,130,l)
);
},
{
closed = 1;
nodes = (
(519,0,l),
(541,100,l),
(360,100,l),
(338,0,l)
);
},
{
closed = 1;
nodes = (
(338,0,l),
(477,650,l),
(370,650,l),
(231,0,l)
);
},
{
closed = 1;
nodes = (
(550,281,l),
(571,381,l),
(419,381,l),
(398,281,l)
);
},
{
closed = 1;
nodes = (
(636,550,l),
(658,650,l),
(350,650,l),
(328,550,l)
);
}
);
width = 580;
},
{
anchors = (
{
name = bottom;
pos = (240,0);
},
{
name = top;
pos = (392,650);
}
);
associatedMasterId = "27302DAC-E04E-41A7-B2D2-BD8305143A0A";
background = {
anchors = (
{
name = bottom;
pos = (240,0);
},
{
name = top;
pos = (392,650);
}
);
shapes = (
{
closed = 1;
nodes = (
(52,0,l),
(138,158,l),
(400,650,l),
(303,650,l),
(-58,0,l)
);
},
{
closed = 1;
nodes = (
(259,130,l),
(280,230,l),
(112,230,l),
(91,130,l)
);
},
{
closed = 1;
nodes = (
(519,0,l),
(541,100,l),
(360,100,l),
(338,0,l)
);
},
{
closed = 1;
nodes = (
(338,0,l),
(477,650,l),
(370,650,l),
(231,0,l)
);
},
{
closed = 1;
nodes = (
(550,281,l),
(571,381,l),
(419,381,l),
(398,281,l)
);
},
{
closed = 1;
nodes = (
(636,550,l),
(658,650,l),
(350,650,l),
(328,550,l)
);
}
);
};
layerId = "4054C2CA-5CA8-45AC-902D-3582DDF17F21";
name = cursify;
shapes = (
{
closed = 1;
nodes = (
(54,0,l),
(140,158,l),
(401,650,l),
(301,650,l),
(-59,0,l)
);
},
{
closed = 1;
nodes = (
(259,130,l),
(280,230,l),
(112,230,l),
(91,130,l)
);
},
{
closed = 1;
nodes = (
(519,0,l),
(541,100,l),
(360,100,l),
(338,0,l)
);
},
{
closed = 1;
nodes = (
(338,0,l),
(477,650,l),
(370,650,l),
(231,0,l)
);
},
{
closed = 1;
nodes = (
(550,281,l),
(571,381,l),
(419,381,l),
(398,281,l)
);
},
{
closed = 1;
nodes = (
(636,550,l),
(658,650,l),
(350,650,l),
(328,550,l)
);
}
);
width = 580;
}
);
unicode = 198;
},
{
color = 0;
glyphname = B;
layers = (
{
anchors = (
{
name = bottom;
pos = (238,0);
},
{
name = top;
pos = (377,650);
}
);
background = {
anchors = (
{
name = bottom;
pos = (238,0);
},
{
name = top;
pos = (377,650);
}
);
shapes = (
{
closed = 1;
nodes = (
(280,0,ls),
(420,0,o),
(496,55,o),
(519,170,cs),
(543,293,o),
(483,352,o),
(338,352,cs),
(201,352,l),
(186,279,l),
(306,279,ls),
(384,279,o),
(413,253,o),
(401,192,cs),
(390,135,o),
(355,110,o),
(286,110,cs),
(150,110,l),
(126,0,l)
);
},
{
closed = 1;
nodes = (
(146,0,l),
(285,650,l),
(164,650,l),
(25,0,l)
);
},
{
closed = 1;
nodes = (
(445,335,l),
(445,339,l),
(435,339,l),
(435,335,l)
);
},
{
closed = 1;
nodes = (
(336,326,ls),
(481,326,o),
(545,370,o),
(565,471,cs),
(588,588,o),
(528,650,o),
(388,650,cs),
(265,650,l),
(241,540,l),
(363,540,ls),
(432,540,o),
(453,519,o),
(443,467,cs),
(432,412,o),
(399,389,o),
(321,389,cs),
(209,389,l),
(196,326,l)
);
}
);
};
layerId = "27302DAC-E04E-41A7-B2D2-BD8305143A0A";
shapes = (
{
closed = 1;
nodes = (
(280,0,ls),
(436,0,o),
(524,79,o),
(524,219,cs),
(524,278,o),
(497,316,o),
(444,336,c),
(444,338,l),
(530,363,o),
(570,420,o),
(570,517,cs),
(570,605,o),
(508,650,o),
(388,650,cs),
(164,650,l),
(25,0,l)
);
},
{
closed = 1;
nodes = (
(206,279,l),
(306,279,ls),
(373,279,o),
(404,259,o),
(404,216,cs),
(404,147,o),
(363,110,o),
(286,110,cs),
(170,110,l)
);
},
{
closed = 1;
nodes = (
(261,540,l),
(363,540,ls),
(421,540,o),
(445,525,o),
(445,489,cs),
(445,420,o),
(407,389,o),
(321,389,cs),
(229,389,l)
);
}
);
width = 580;
},
{
anchors = (
{
name = bottom;
pos = (241,0);
},
{
name = top;
pos = (379,650);
}
);
background = {
anchors = (
{
name = bottom;
pos = (241,0);
},
{
name = top;
pos = (379,650);
}
);
shapes = (
{
closed = 1;
nodes = (
(283,0,ls),
(414,0,o),
(487,56,o),
(510,173,cs),
(533,292,o),
(479,350,o),
(344,350,cs),
(164,350,l),
(154,300,l),
(316,300,ls),
(416,300,o),
(451,264,o),
(436,182,cs),
(420,104,o),
(375,70,o),
(284,70,cs),
(105,70,l),
(90,0,l)
);
},
{
closed = 1;
nodes = (
(110,0,l),
(248,650,l),
(174,650,l),
(36,0,l)
);
},
{
closed = 1;
nodes = (
(437,336,l),
(437,340,l),
(427,340,l),
(427,336,l)
);
},
{
closed = 1;
nodes = (
(339,328,ls),
(475,328,o),
(537,373,o),
(557,477,cs),
(579,591,o),
(525,650,o),
(394,650,cs),
(228,650,l),
(213,580,l),
(376,580,ls),
(467,580,o),
(496,549,o),
(481,477,cs),
(467,401,o),
(422,369,o),
(322,369,cs),
(168,369,l),
(160,328,l)
);
}
);
};
layerId = "B9B856C8-1FA2-46F4-A929-F36A99765E59";
shapes = (
{
closed = 1;
nodes = (
(283,0,ls),
(431,0,o),
(515,80,o),
(515,222,cs),
(515,281,o),
(489,319,o),
(436,337,c),
(436,339,l),
(520,363,o),
(562,424,o),
(562,523,cs),
(562,607,o),
(505,650,o),
(394,650,cs),
(174,650,l),
(36,0,l)
);
},
{
closed = 1;
nodes = (
(174,300,l),
(316,300,ls),
(401,300,o),
(439,274,o),
(439,215,cs),
(439,121,o),
(385,70,o),
(284,70,cs),
(125,70,l)
);
},
{
closed = 1;
nodes = (
(233,580,l),
(376,580,ls),
(451,580,o),
(485,558,o),
(485,509,cs),
(485,415,o),
(431,369,o),
(322,369,cs),
(188,369,l)
);
}
);
width = 580;
},
{
anchors = (
{
name = bottom;
pos = (241,0);
},
{
name = top;
pos = (379,650);
}
);
associatedMasterId = "B9B856C8-1FA2-46F4-A929-F36A99765E59";
background = {
anchors = (
{
name = bottom;
pos = (241,0);
},
{
name = top;
pos = (379,650);
}
);
shapes = (
{
closed = 1;
nodes = (
(279,0,ls),
(410,0,o),
(485,57,o),
(510,174,cs),
(535,293,o),
(482,350,o),
(347,350,cs),
(184,350,l),
(174,300,l),
(321,300,ls),
(421,300,o),
(454,267,o),
(437,188,cs),
(420,107,o),
(370,70,o),
(279,70,cs),
(125,70,l),
(110,0,l)
);
},
{
closed = 1;
nodes = (
(110,0,l),
(248,650,l),
(174,650,l),
(36,0,l)
);
},
{
closed = 1;
nodes = (
(436,339,l),
(437,343,l),
(427,343,l),
(426,339,l)
);
},
{
closed = 1;
nodes = (
(336,328,ls),
(471,328,o),
(535,374,o),
(557,478,cs),
(581,592,o),
(529,650,o),
(397,650,cs),
(248,650,l),
(233,580,l),
(381,580,ls),
(472,580,o),
(497,552,o),
(483,483,cs),
(466,404,o),
(418,369,o),
(318,369,cs),
(188,369,l),
(180,328,l)
);
}
);
};
layerId = "5C0F1A64-5971-4508-A549-1D1326A3355C";
name = slanted;
shapes = (
{
closed = 1;
nodes = (
(276,0,ls),
(407,0,o),
(486,60,o),
(511,180,cs),
(536,296,o),
(484,350,o),
(349,350,cs),
(184,350,l),
(174,300,l),
(318,300,ls),
(418,300,o),
(453,264,o),
(436,182,cs),
(419,104,o),
(373,70,o),
(282,70,cs),
(125,70,l),
(110,0,l)
);
},
{
closed = 1;
nodes = (
(110,0,l),
(248,650,l),
(174,650,l),
(36,0,l)
);
},
{
closed = 1;
nodes = (
(436,339,l),
(437,343,l),
(427,343,l),
(426,339,l)
);
},
{
closed = 1;
nodes = (
(333,328,ls),
(468,328,o),
(535,377,o),
(558,484,cs),
(582,595,o),
(532,650,o),
(400,650,cs),
(248,650,l),
(233,580,l),
(378,580,ls),
(469,580,o),
(497,549,o),
(481,477,cs),
(465,401,o),
(420,369,o),
(320,369,cs),
(188,369,l),
(180,328,l)
);
}
);
width = 580;
},
{
anchors = (
{
name = bottom;
pos = (241,0);
},
{
name = top;
pos = (379,650);
}
);
associatedMasterId = "B9B856C8-1FA2-46F4-A929-F36A99765E59";
background = {
anchors = (
{
name = bottom;
pos = (241,0);
},
{
name = top;
pos = (379,650);
}
);
shapes = (
{
closed = 1;
nodes = (
(276,0,ls),
(407,0,o),
(486,60,o),
(511,180,cs),
(536,296,o),
(484,350,o),
(349,350,cs),
(184,350,l),
(174,300,l),
(318,300,ls),
(418,300,o),
(453,264,o),
(436,182,cs),
(419,104,o),
(373,70,o),
(282,70,cs),
(125,70,l),
(110,0,l)
);
},
{
closed = 1;
nodes = (
(110,0,l),
(248,650,l),
(174,650,l),
(36,0,l)
);
},
{
closed = 1;
nodes = (
(436,339,l),
(437,343,l),
(427,343,l),
(426,339,l)
);
},
{
closed = 1;
nodes = (
(333,328,ls),
(468,328,o),
(535,377,o),
(558,484,cs),
(582,595,o),
(532,650,o),
(400,650,cs),
(248,650,l),
(233,580,l),
(378,580,ls),
(469,580,o),
(497,549,o),
(481,477,cs),
(465,401,o),
(420,369,o),
(320,369,cs),
(188,369,l),
(180,328,l)
);
}
);
};
layerId = "02FECDD3-5931-4733-B96F-95926EA980BB";
name = cursify;
shapes = (
{
closed = 1;
nodes = (
(279,0,ls),
(410,0,o),
(485,57,o),
(510,174,cs),
(535,293,o),
(482,350,o),
(347,350,cs),
(184,350,l),
(174,300,l),
(321,300,ls),
(421,300,o),
(454,267,o),
(437,188,cs),
(420,107,o),
(370,70,o),
(279,70,cs),
(125,70,l),
(110,0,l)
);
},
{
closed = 1;
nodes = (
(110,0,l),
(248,650,l),
(174,650,l),
(36,0,l)
);
},
{
closed = 1;
nodes = (
(436,339,l),
(437,343,l),
(427,343,l),
(426,339,l)
);
},
{
closed = 1;
nodes = (
(336,328,ls),
(471,328,o),
(535,374,o),
(557,478,cs),
(581,592,o),
(529,650,o),
(397,650,cs),
(248,650,l),
(233,580,l),
(381,580,ls),
(472,580,o),
(497,552,o),
(483,483,cs),
(466,404,o),
(418,369,o),
(318,369,cs),
(188,369,l),
(180,328,l)
);
}
);
width = 580;
},
{
anchors = (
{
name = bottom;
pos = (238,0);
},
{
name = top;
pos = (377,650);
}
);
associatedMasterId = "27302DAC-E04E-41A7-B2D2-BD8305143A0A";
background = {
anchors = (
{
name = bottom;
pos = (238,0);
},
{
name = top;
pos = (377,650);
}
);
shapes = (
{
closed = 1;
nodes = (
(276,0,ls),
(416,0,o),
(494,56,o),
(519,172,cs),
(545,294,o),
(487,352,o),
(342,352,cs),
(221,352,l),
(206,279,l),
(312,279,ls),
(390,279,o),
(415,258,o),
(403,202,cs),
(390,140,o),
(349,110,o),
(280,110,cs),
(170,110,l),
(146,0,l)
);
},
{
closed = 1;
nodes = (
(146,0,l),
(285,650,l),
(164,650,l),
(25,0,l)
);
},
{
closed = 1;
nodes = (
(445,339,l),
(446,343,l),
(436,343,l),
(435,339,l)
);
},
{
closed = 1;
nodes = (
(332,326,ls),
(477,326,o),
(543,371,o),
(565,473,cs),
(590,589,o),
(532,650,o),
(392,650,cs),
(285,650,l),
(261,540,l),
(369,540,ls),
(438,540,o),
(455,524,o),
(445,477,cs),
(432,417,o),
(393,389,o),
(315,389,cs),
(229,389,l),
(216,326,l)
);
}
);
};
layerId = "446DFFE7-CD04-496A-B99D-8EBC749F6E5A";
name = slanted;
shapes = (
{
closed = 1;
nodes = (
(271,0,ls),
(411,0,o),
(495,61,o),
(521,182,cs),
(546,299,o),
(491,352,o),
(346,352,cs),
(221,352,l),
(206,279,l),
(308,279,ls),
(386,279,o),
(414,253,o),
(401,192,cs),
(389,135,o),
(354,110,o),
(285,110,cs),
(170,110,l),
(146,0,l)
);
},
{
closed = 1;
nodes = (
(146,0,l),
(285,650,l),
(164,650,l),
(25,0,l)
);
},
{
closed = 1;
nodes = (
(445,339,l),
(446,343,l),
(436,343,l),
(435,339,l)
);
},
{
closed = 1;
nodes = (
(328,326,ls),
(473,326,o),
(544,376,o),
(567,483,cs),
(591,594,o),
(537,650,o),
(397,650,cs),
(285,650,l),
(261,540,l),
(364,540,ls),
(433,540,o),
(454,519,o),
(443,467,cs),
(431,412,o),
(397,389,o),
(319,389,cs),
(229,389,l),
(216,326,l)
);
}
);
width = 580;
},
{
anchors = (
{
name = bottom;
pos = (238,0);
},
{
name = top;
pos = (377,650);
}
);
associatedMasterId = "27302DAC-E04E-41A7-B2D2-BD8305143A0A";
background = {
anchors = (
{
name = bottom;
pos = (238,0);
},
{
name = top;
pos = (377,650);
}
);
shapes = (
{
closed = 1;
nodes = (
(271,0,ls),
(411,0,o),
(495,61,o),
(521,182,cs),
(546,299,o),
(491,352,o),
(346,352,cs),
(221,352,l),
(206,279,l),
(308,279,ls),
(386,279,o),
(414,253,o),
(401,192,cs),
(389,135,o),
(354,110,o),
(285,110,cs),
(170,110,l),
(146,0,l)
);
},
{
closed = 1;
nodes = (
(146,0,l),
(285,650,l),
(164,650,l),
(25,0,l)
);
},
{
closed = 1;
nodes = (
(445,339,l),
(446,343,l),
(436,343,l),
(435,339,l)
);
},
{
closed = 1;
nodes = (
(328,326,ls),
(473,326,o),
(544,376,o),
(567,483,cs),
(591,594,o),
(537,650,o),
(397,650,cs),
(285,650,l),
(261,540,l),
(364,540,ls),
(433,540,o),
(454,519,o),
(443,467,cs),
(431,412,o),
(397,389,o),
(319,389,cs),
(229,389,l),
(216,326,l)
);
}
);
};
layerId = "676DD244-CDC1-4AE0-AA22-EB6E22BF4DC0";
name = cursify;
shapes = (
{
closed = 1;
nodes = (
(276,0,ls),
(416,0,o),
(494,56,o),
(519,172,cs),
(545,294,o),
(487,352,o),
(342,352,cs),
(221,352,l),
(206,279,l),
(312,279,ls),
(390,279,o),
(415,258,o),
(403,202,cs),
(390,140,o),
(349,110,o),
(280,110,cs),
(170,110,l),
(146,0,l)
);
},
{
closed = 1;
nodes = (
(146,0,l),
(285,650,l),
(164,650,l),
(25,0,l)
);
},
{
closed = 1;
nodes = (
(445,339,l),
(446,343,l),
(436,343,l),
(435,339,l)
);
},
{
closed = 1;
nodes = (
(332,326,ls),
(477,326,o),
(543,371,o),
(565,473,cs),
(590,589,o),
(532,650,o),
(392,650,cs),
(285,650,l),
(261,540,l),
(369,540,ls),
(438,540,o),
(455,524,o),
(445,477,cs),
(432,417,o),
(393,389,o),
(315,389,cs),
(229,389,l),
(216,326,l)
);
}
);
width = 580;
}
);
unicode = 66;
},
{
color = 0;
glyphname = C;
layers = (
{
anchors = (
{
name = bottom;
pos = (262,0);
},
{
name = top;
pos = (396,650);
}
);
background = {
anchors = (
{
name = bottom;
pos = (262,0);
},
{
name = top;
pos = (396,650);
}
);
shapes = (
{
closed = 1;
nodes = (
(372,-14,o),
(450,14,o),
(531,89,c),
(522,57,l),
(434,188,l),
(462,171,l),
(405,119,o),
(354,99,o),
(299,101,cs),
(199,104,o),
(166,180,o),
(197,328,cs),
(229,477,o),
(296,551,o),
(396,548,cs),
(451,546,o),
(492,524,o),
(532,477,c),
(499,478,l),
(608,607,l),
(622,535,l),
(573,617,o),
(511,656,o),
(414,659,cs),
(240,665,o),
(122,553,o),
(76,338,cs),
(29,118,o),
(101,-4,o),
(279,-10,cs)
);
}
);
};
layerId = "27302DAC-E04E-41A7-B2D2-BD8305143A0A";
shapes = (
{
closed = 1;
nodes = (
(377,-12,o),
(446,14,o),
(512,70,c),
(452,161,l),
(403,119,o),
(358,100,o),
(306,100,cs),
(226,100,o),
(184,144,o),
(184,234,cs),
(184,355,o),
(238,550,o),
(393,550,cs),
(443,550,o),
(481,534,o),
(516,498,c),
(590,586,l),
(544,638,o),
(486,662,o),
(403,662,cs),
(158,662,o),
(62,411,o),
(62,218,cs),
(62,69,o),
(144,-12,o),
(296,-12,cs)
);
}
);
width = 580;
},
{
anchors = (
{
name = bottom;
pos = (266,0);
},
{
name = top;
pos = (399,650);
}
);
background = {
anchors = (
{
name = bottom;
pos = (266,0);
},
{
name = top;
pos = (399,650);
}
);
shapes = (
{
closed = 1;
nodes = (
(372,-13,o),
(444,15,o),
(536,98,c),
(524,25,l),
(444,143,l),
(493,152,l),
(417,85,o),
(360,58,o),
(289,61,cs),
(167,65,o),
(124,152,o),
(161,325,cs),
(199,504,o),
(286,593,o),
(413,588,cs),
(479,586,o),
(522,559,o),
(568,488,c),
(495,492,l),
(614,629,l),
(626,531,l),
(569,619,o),
(510,656,o),
(417,659,cs),
(248,665,o),
(133,553,o),
(87,340,cs),
(40,120,o),
(110,-4,o),
(285,-10,cs)
);
}
);
};
layerId = "B9B856C8-1FA2-46F4-A929-F36A99765E59";
shapes = (
{
closed = 1;
nodes = (
(369,-12,o),
(429,11,o),
(497,63,c),
(458,121,l),
(401,77,o),
(355,59,o),
(299,59,cs),
(198,59,o),
(148,112,o),
(148,219,cs),
(148,366,o),
(219,591,o),
(405,591,cs),
(460,591,o),
(499,575,o),
(534,538,c),
(582,593,l),
(536,641,o),
(483,662,o),
(406,662,cs),
(168,662,o),
(73,407,o),
(73,218,cs),
(73,69,o),
(151,-12,o),
(297,-12,cs)
);
}
);
width = 580;
},
{
anchors = (
{
name = bottom;
pos = (266,0);
},
{
name = top;
pos = (399,650);
}
);
associatedMasterId = "B9B856C8-1FA2-46F4-A929-F36A99765E59";
background = {
anchors = (
{
name = bottom;
pos = (266,0);
},
{
name = top;
pos = (399,650);
}
);
shapes = (
{
closed = 1;
nodes = (
(372,-12,o),
(444,19,o),
(536,105,c),
(516,20,l),
(449,146,l),
(493,158,l),
(417,88,o),
(360,59,o),
(289,59,cs),
(167,59,o),
(124,145,o),
(161,319,cs),
(199,499,o),
(286,591,o),
(413,591,cs),
(479,591,o),
(522,566,o),
(568,496,c),
(495,492,l),
(614,629,l),
(626,541,l),
(569,627,o),
(510,662,o),
(417,662,cs),
(248,662,o),
(133,546,o),
(87,331,cs),
(40,110,o),
(110,-12,o),
(285,-12,cs)
);
}
);
};
layerId = "63C85C1A-823F-4B09-AE8A-88D6F0107437";
name = slanted;
shapes = (
{
closed = 1;
nodes = (
(369,-12,o),
(443,21,o),
(535,107,c),
(517,20,l),
(450,146,l),
(494,156,l),
(418,86,o),
(363,59,o),
(295,59,cs),
(170,59,o),
(125,148,o),
(162,325,cs),
(200,502,o),
(283,591,o),
(408,591,cs),
(476,591,o),
(520,564,o),
(566,494,c),
(494,492,l),
(612,629,l),
(627,543,l),
(572,629,o),
(513,662,o),
(423,662,cs),
(251,662,o),
(132,543,o),
(86,325,cs),
(40,107,o),
(107,-12,o),
(279,-12,cs)
);
}
);
width = 580;
},
{
anchors = (
{
name = bottom;
pos = (262,0);
},
{
name = top;
pos = (396,650);
}
);
associatedMasterId = "27302DAC-E04E-41A7-B2D2-BD8305143A0A";
background = {
anchors = (
{
name = bottom;
pos = (262,0);
},
{
name = top;
pos = (396,650);
}
);
shapes = (
{
closed = 1;
nodes = (
(374,-12,o),
(448,18,o),
(531,97,c),
(517,54,l),
(441,192,l),
(462,176,l),
(405,122,o),
(354,100,o),
(299,100,cs),
(199,100,o),
(166,174,o),
(197,324,cs),
(229,474,o),
(296,550,o),
(396,550,cs),
(451,550,o),
(492,528,o),
(532,482,c),
(498,479,l),
(609,606,l),
(622,545,l),
(571,624,o),
(509,662,o),
(408,662,cs),
(238,662,o),
(123,550,o),
(78,336,cs),
(30,112,o),
(103,-12,o),
(285,-12,cs)
);
}
);
};
layerId = "BED3BBA3-0505-4757-9FB8-9FB8566DFEA7";
name = slanted;
shapes = (
{
closed = 1;
nodes = (
(370,-12,o),
(446,22,o),
(529,101,c),
(519,54,l),
(441,192,l),
(463,172,l),
(405,122,o),
(355,100,o),
(300,100,cs),
(200,100,o),
(166,175,o),
(197,325,cs),
(229,475,o),
(295,550,o),
(395,550,cs),
(450,550,o),
(492,528,o),
(528,478,c),
(496,479,l),
(605,606,l),
(624,549,l),
(575,628,o),
(513,662,o),
(418,662,cs),
(242,662,o),
(122,544,o),
(75,325,cs),
(29,106,o),
(99,-12,o),
(275,-12,cs)
);
}
);
width = 580;
},
{
anchors = (
{
name = bottom;
pos = (262,0);
},
{
name = top;
pos = (396,650);
}
);
associatedMasterId = "27302DAC-E04E-41A7-B2D2-BD8305143A0A";
background = {
anchors = (
{
name = bottom;
pos = (262,0);
},
{
name = top;
pos = (396,650);
}
);
shapes = (
{
closed = 1;
nodes = (
(370,-12,o),
(446,22,o),
(529,101,c),
(519,54,l),
(441,192,l),
(463,172,l),
(405,122,o),
(355,100,o),
(300,100,cs),
(200,100,o),
(166,175,o),
(197,325,cs),
(229,475,o),
(295,550,o),
(395,550,cs),
(450,550,o),
(492,528,o),
(528,478,c),
(496,479,l),
(605,606,l),
(624,549,l),
(575,628,o),
(513,662,o),
(418,662,cs),
(242,662,o),
(122,544,o),
(75,325,cs),
(29,106,o),
(99,-12,o),
(275,-12,cs)
);
}
);
};
layerId = "04C4E4ED-855C-49D4-8570-A4FF5B531FE2";
name = cursify;
shapes = (
{
closed = 1;
nodes = (
(374,-12,o),
(448,18,o),
(531,97,c),
(517,54,l),
(441,192,l),
(462,176,l),
(405,122,o),
(354,100,o),
(299,100,cs),
(199,100,o),
(166,174,o),
(197,324,cs),
(229,474,o),
(296,550,o),
(396,550,cs),
(451,550,o),
(492,528,o),
(532,482,c),
(498,479,l),
(609,606,l),
(622,545,l),
(571,624,o),
(509,662,o),
(408,662,cs),
(238,662,o),
(123,550,o),
(78,336,cs),
(30,112,o),
(103,-12,o),
(285,-12,cs)
);
}
);
width = 580;
},
{
anchors = (
{
name = bottom;
pos = (266,0);
},
{
name = top;
pos = (399,650);
}
);
associatedMasterId = "B9B856C8-1FA2-46F4-A929-F36A99765E59";
background = {
anchors = (
{
name = bottom;
pos = (266,0);
},
{
name = top;
pos = (399,650);
}
);
shapes = (
{
closed = 1;
nodes = (
(369,-12,o),
(443,21,o),
(535,107,c),
(517,20,l),
(450,146,l),
(494,156,l),
(418,86,o),
(363,59,o),
(295,59,cs),
(170,59,o),
(125,148,o),
(162,325,cs),
(200,502,o),
(283,591,o),
(408,591,cs),
(476,591,o),
(520,564,o),
(566,494,c),
(494,492,l),
(612,629,l),
(627,543,l),
(572,629,o),
(513,662,o),
(423,662,cs),
(251,662,o),
(132,543,o),
(86,325,cs),
(40,107,o),
(107,-12,o),
(279,-12,cs)
);
}
);
};
layerId = "2B680734-1240-401E-87BB-C23A6C2157FC";
name = cursify;
shapes = (
{
closed = 1;
nodes = (
(372,-12,o),
(444,19,o),
(536,105,c),
(516,20,l),
(449,146,l),
(493,158,l),
(417,88,o),
(360,59,o),
(289,59,cs),
(167,59,o),
(124,145,o),
(161,319,cs),
(199,499,o),
(286,591,o),
(413,591,cs),
(479,591,o),
(522,566,o),
(568,496,c),
(495,492,l),
(614,629,l),
(626,541,l),
(569,627,o),
(510,662,o),
(417,662,cs),
(248,662,o),
(133,546,o),
(87,331,cs),
(40,110,o),
(110,-12,o),
(285,-12,cs)
);
}
);
width = 580;
}
);
unicode = 67;
},
{
color = 0;
glyphname = D;
layers = (
{
anchors = (
{
name = bottom;
pos = (238,0);
},
{
name = center;
pos = (148,325);
},
{
name = top;
pos = (347,650);
}
);
background = {
anchors = (
{
name = bottom;
pos = (238,0);
},
{
name = center;
pos = (148,325);
},
{
name = top;
pos = (347,650);
}
);
shapes = (
{
closed = 1;
nodes = (
(210,0,ls),
(395,0,o),
(513,109,o),
(552,315,cs),
(594,531,o),
(511,650,o),
(324,650,cs),
(260,650,l),
(236,540,l),
(301,540,ls),
(419,540,o),
(461,472,o),
(432,325,cs),
(404,178,o),
(336,110,o),
(218,110,cs),
(145,110,l),
(121,0,l)
);
},
{
closed = 1;
nodes = (
(141,0,l),
(280,650,l),
(160,650,l),
(21,0,l)
);
}
);
};
layerId = "27302DAC-E04E-41A7-B2D2-BD8305143A0A";
shapes = (
{
closed = 1;
nodes = (
(210,0,ls),
(465,0,o),
(563,220,o),
(563,417,cs),
(563,568,o),
(479,650,o),
(324,650,cs),
(160,650,l),
(21,0,l)
);
},
{
closed = 1;
nodes = (
(256,540,l),
(301,540,ls),
(396,540,o),
(441,497,o),
(441,405,cs),
(441,275,o),
(389,110,o),
(218,110,cs),
(165,110,l)
);
}
);
width = 580;
},
{
anchors = (
{
name = bottom;
pos = (240,0);
},
{
name = center;
pos = (158,325);
},
{
name = top;
pos = (348,650);
}
);
background = {
anchors = (
{
name = bottom;
pos = (240,0);
},
{
name = center;
pos = (158,325);
},
{
name = top;
pos = (348,650);
}
);
shapes = (
{
closed = 1;
nodes = (
(205,0,ls),
(392,0,o),
(501,104,o),
(543,319,cs),
(586,540,o),
(511,650,o),
(321,650,cs),
(224,650,l),
(209,580,l),
(307,580,ls),
(454,580,o),
(503,503,o),
(469,328,cs),
(434,151,o),
(351,70,o),
(204,70,cs),
(101,70,l),
(86,0,l)
);
},
{
closed = 1;
nodes = (
(106,0,l),
(244,650,l),
(170,650,l),
(32,0,l)
);
}
);
};
layerId = "B9B856C8-1FA2-46F4-A929-F36A99765E59";
shapes = (
{
closed = 1;
nodes = (
(205,0,ls),
(465,0,o),
(555,228,o),
(555,429,cs),
(555,577,o),
(476,650,o),
(321,650,cs),
(170,650,l),
(32,0,l)
);
},
{
closed = 1;
nodes = (
(229,580,l),
(307,580,ls),
(424,580,o),
(480,531,o),
(480,422,cs),
(480,262,o),
(414,70,o),
(204,70,cs),
(121,70,l)
);
}
);
width = 580;
},
{
anchors = (
{
name = bottom;
pos = (238,0);
},
{
name = center;
pos = (148,325);
},
{
name = top;
pos = (347,650);
}
);
associatedMasterId = "27302DAC-E04E-41A7-B2D2-BD8305143A0A";
background = {
anchors = (
{
name = bottom;
pos = (238,0);
},
{
name = center;
pos = (148,325);
},
{
name = top;
pos = (347,650);
}
);
shapes = (
{
closed = 1;
nodes = (
(204,0,ls),
(389,0,o),
(509,109,o),
(552,315,cs),
(598,531,o),
(517,650,o),
(330,650,cs),
(280,650,l),
(256,540,l),
(310,540,ls),
(428,540,o),
(465,477,o),
(435,335,cs),
(402,183,o),
(327,110,o),
(209,110,cs),
(165,110,l),
(141,0,l)
);
},
{
closed = 1;
nodes = (
(141,0,l),
(280,650,l),
(160,650,l),
(21,0,l)
);
}
);
};
layerId = "8BAF5508-4BC7-4649-B117-28779EFFC0F6";
name = slanted;
shapes = (
{
closed = 1;
nodes = (
(199,0,ls),
(384,0,o),
(510,114,o),
(554,325,cs),
(599,536,o),
(522,650,o),
(335,650,cs),
(280,650,l),
(256,540,l),
(305,540,ls),
(423,540,o),
(464,472,o),
(432,325,cs),
(401,178,o),
(332,110,o),
(214,110,cs),
(165,110,l),
(141,0,l)
);
},
{
closed = 1;
nodes = (
(141,0,l),
(280,650,l),
(160,650,l),
(21,0,l)
);
}
);
width = 580;
},
{
anchors = (
{
name = bottom;
pos = (238,0);
},
{
name = center;
pos = (148,325);
},
{
name = top;
pos = (347,650);
}
);
associatedMasterId = "27302DAC-E04E-41A7-B2D2-BD8305143A0A";
background = {
anchors = (
{
name = bottom;
pos = (238,0);
},
{
name = center;
pos = (148,325);
},
{
name = top;
pos = (347,650);
}
);
shapes = (
{
closed = 1;
nodes = (
(199,0,ls),
(384,0,o),
(510,114,o),
(554,325,cs),
(599,536,o),
(522,650,o),
(335,650,cs),
(280,650,l),
(256,540,l),
(305,540,ls),
(423,540,o),
(464,472,o),
(432,325,cs),
(401,178,o),
(332,110,o),
(214,110,cs),
(165,110,l),
(141,0,l)
);
},
{
closed = 1;
nodes = (
(141,0,l),
(280,650,l),
(160,650,l),
(21,0,l)
);
}
);
};
layerId = "C241A0B1-84E0-4CFF-8501-2C0D716F1D8F";
name = cursify;
shapes = (
{
closed = 1;
nodes = (
(204,0,ls),
(389,0,o),
(509,109,o),
(552,315,cs),
(598,531,o),
(517,650,o),
(330,650,cs),
(280,650,l),
(256,540,l),
(310,540,ls),
(428,540,o),
(465,477,o),
(435,335,cs),
(402,183,o),
(327,110,o),
(209,110,cs),
(165,110,l),
(141,0,l)
);
},
{
closed = 1;
nodes = (
(141,0,l),
(280,650,l),
(160,650,l),
(21,0,l)
);
}
);
width = 580;
},
{
anchors = (
{
name = bottom;
pos = (240,0);
},
{
name = center;
pos = (158,325);
},
{
name = top;
pos = (348,650);
}
);
associatedMasterId = "B9B856C8-1FA2-46F4-A929-F36A99765E59";
background = {
anchors = (
{
name = bottom;
pos = (240,0);
},
{
name = center;
pos = (158,325);
},
{
name = top;
pos = (348,650);
}
);
shapes = (
{
closed = 1;
nodes = (
(199,0,ls),
(386,0,o),
(497,104,o),
(543,319,cs),
(590,540,o),
(517,650,o),
(327,650,cs),
(244,650,l),
(229,580,l),
(312,580,ls),
(459,580,o),
(506,504,o),
(469,331,cs),
(431,152,o),
(345,70,o),
(198,70,cs),
(121,70,l),
(106,0,l)
);
},
{
closed = 1;
nodes = (
(106,0,l),
(244,650,l),
(170,650,l),
(32,0,l)
);
}
);
};
layerId = "D4AFC545-05D6-4AB8-A63D-9F579CE21808";
name = slanted;
shapes = (
{
closed = 1;
nodes = (
(196,0,ls),
(383,0,o),
(498,107,o),
(544,325,cs),
(590,543,o),
(520,650,o),
(330,650,cs),
(244,650,l),
(229,580,l),
(309,580,ls),
(456,580,o),
(506,501,o),
(468,325,cs),
(431,149,o),
(348,70,o),
(201,70,cs),
(121,70,l),
(106,0,l)
);
},
{
closed = 1;
nodes = (
(106,0,l),
(244,650,l),
(170,650,l),
(32,0,l)
);
}
);
width = 580;
},
{
anchors = (
{
name = bottom;
pos = (240,0);
},
{
name = center;
pos = (158,325);
},
{
name = top;
pos = (348,650);
}
);
associatedMasterId = "B9B856C8-1FA2-46F4-A929-F36A99765E59";
background = {
anchors = (
{
name = bottom;
pos = (240,0);
},
{
name = center;
pos = (158,325);
},
{
name = top;
pos = (348,650);
}
);
shapes = (
{
closed = 1;
nodes = (
(196,0,ls),
(383,0,o),
(498,107,o),
(544,325,cs),
(590,543,o),
(520,650,o),
(330,650,cs),
(244,650,l),
(229,580,l),
(309,580,ls),
(456,580,o),
(506,501,o),
(468,325,cs),
(431,149,o),
(348,70,o),
(201,70,cs),
(121,70,l),
(106,0,l)
);
},
{
closed = 1;
nodes = (
(106,0,l),
(244,650,l),
(170,650,l),
(32,0,l)
);
}
);
};
layerId = "CD6E2214-93B6-44AC-ADF5-95111E3954E7";
name = cursify;
shapes = (
{
closed = 1;
nodes = (
(199,0,ls),
(386,0,o),
(497,104,o),
(543,319,cs),
(590,540,o),
(517,650,o),
(327,650,cs),
(244,650,l),
(229,580,l),
(312,580,ls),
(459,580,o),
(506,504,o),
(469,331,cs),
(431,152,o),
(345,70,o),
(198,70,cs),
(121,70,l),
(106,0,l)
);
},
{
closed = 1;
nodes = (
(106,0,l),
(244,650,l),
(170,650,l),
(32,0,l)
);
}
);
width = 580;
}
);
unicode = 68;
},
{
color = 1;
glyphname = Eth;
layers = (
{
anchors = (
{
name = _center;
pos = (192,325);
}
);
background = {
anchors = (
{
name = _center;
pos = (192,325);
}
);
shapes = (
{
closed = 1;
nodes = (
(339,294,l),
(352,356,l),
(40,356,l),
(27,294,l)
);
},
{
pos = (25,0);
ref = D;
}
);
};
layerId = "B9B856C8-1FA2-46F4-A929-F36A99765E59";
shapes = (
{
closed = 1;
nodes = (
(339,294,l),
(352,356,l),
(40,356,l),
(27,294,l)
);
},
{
pos = (25,0);
ref = D;
}
);
width = 580;
},
{
anchors = (
{
name = _center;
pos = (178,325);
}
);
background = {
anchors = (
{
name = _center;
pos = (178,325);
}
);
shapes = (
{
closed = 1;
nodes = (
(334,277,l),
(355,373,l),
(39,373,l),
(18,277,l)
);
},
{
pos = (20,0);
ref = D;
}
);
};
layerId = "27302DAC-E04E-41A7-B2D2-BD8305143A0A";
shapes = (
{
closed = 1;
nodes = (
(334,277,l),
(355,373,l),
(39,373,l),
(18,277,l)
);
},
{
pos = (20,0);
ref = D;
}
);
width = 580;
}
);
unicode = 208;
},
{
color = 0;
glyphname = E;
layers = (
{
anchors = (
{
name = bottom;
pos = (238,0);
},
{
name = ogonek;
pos = (468,0);
},
{
name = top;
pos = (393,650);
},
{
name = topleft;
pos = (97,650);
}
);
background = {
anchors = (
{
name = bottom;
pos = (238,0);
},
{
name = ogonek;
pos = (468,0);
},
{
name = top;
pos = (393,650);
},
{
name = topleft;
pos = (97,650);
}
);
shapes = (
{
closed = 1;
nodes = (
(161,0,l),
(300,650,l),
(180,650,l),
(41,0,l)
);
},
{
closed = 1;
nodes = (
(468,0,l),
(492,110,l),
(175,110,l),
(151,0,l)
);
},
{
closed = 1;
nodes = (
(479,276,l),
(502,386,l),
(233,386,l),
(210,276,l)
);
},
{
closed = 1;
nodes = (
(583,540,l),
(607,650,l),
(290,650,l),
(266,540,l)
);
}
);
};
layerId = "27302DAC-E04E-41A7-B2D2-BD8305143A0A";
shapes = (
{
closed = 1;
nodes = (
(468,0,l),
(492,110,l),
(185,110,l),
(220,276,l),
(479,276,l),
(502,386,l),
(244,386,l),
(276,540,l),
(583,540,l),
(607,650,l),
(180,650,l),
(41,0,l)
);
}
);
width = 580;
},
{
anchors = (
{
name = bottom;
pos = (241,0);
},
{
name = ogonek;
pos = (460,0);
},
{
name = top;
pos = (397,650);
},
{
name = topleft;
pos = (99,650);
}
);
background = {
anchors = (
{
name = bottom;
pos = (241,0);
},
{
name = ogonek;
pos = (460,0);
},
{
name = top;
pos = (397,650);
},
{
name = topleft;
pos = (99,650);
}
);
shapes = (
{
closed = 1;
nodes = (
(132,0,l),
(270,650,l),
(196,650,l),
(58,0,l)
);
},
{
closed = 1;
nodes = (
(460,0,l),
(475,70,l),
(137,70,l),
(122,0,l)
);
},
{
closed = 1;
nodes = (
(475,296,l),
(490,366,l),
(200,366,l),
(185,296,l)
);
},
{
closed = 1;
nodes = (
(583,580,l),
(598,650,l),
(260,650,l),
(245,580,l)
);
}
);
};
layerId = "B9B856C8-1FA2-46F4-A929-F36A99765E59";
shapes = (
{
closed = 1;
nodes = (
(460,0,l),
(475,70,l),
(147,70,l),
(195,296,l),
(475,296,l),
(490,366,l),
(210,366,l),
(255,580,l),
(583,580,l),
(598,650,l),
(196,650,l),
(58,0,l)
);
}
);
width = 580;
}
);
unicode = 69;
},
{
color = 0;
glyphname = F;
layers = (
{
anchors = (
{
name = bottom;
pos = (238,0);
},
{
name = top;
pos = (377,650);
}
);
background = {
anchors = (
{
name = bottom;
pos = (238,0);
},
{
name = top;
pos = (377,650);
}
);
shapes = (
{
closed = 1;
nodes = (
(167,0,l),
(306,650,l),
(186,650,l),
(47,0,l)
);
},
{
closed = 1;
nodes = (
(483,268,l),
(507,378,l),
(238,378,l),
(214,268,l)
);
},
{
closed = 1;
nodes = (
(589,540,l),
(613,650,l),
(296,650,l),
(272,540,l)
);
}
);
};
layerId = "27302DAC-E04E-41A7-B2D2-BD8305143A0A";
shapes = (
{
closed = 1;
nodes = (
(167,0,l),
(224,268,l),
(483,268,l),
(507,378,l),
(248,378,l),
(282,540,l),
(589,540,l),
(613,650,l),
(186,650,l),
(47,0,l)
);
}
);
width = 580;
},
{
anchors = (
{
name = bottom;
pos = (242,0);
},
{
name = top;
pos = (380,650);
}
);
background = {
anchors = (
{
name = bottom;
pos = (242,0);
},
{
name = top;
pos = (380,650);
}
);
shapes = (
{
closed = 1;
nodes = (
(136,0,l),
(274,650,l),
(200,650,l),
(62,0,l)
);
},
{
closed = 1;
nodes = (
(478,292,l),
(493,362,l),
(203,362,l),
(188,292,l)
);
},
{
closed = 1;
nodes = (
(587,580,l),
(602,650,l),
(264,650,l),
(249,580,l)
);
}
);
};
layerId = "B9B856C8-1FA2-46F4-A929-F36A99765E59";
shapes = (
{
closed = 1;
nodes = (
(136,0,l),
(198,292,l),
(478,292,l),
(493,362,l),
(213,362,l),
(259,580,l),
(587,580,l),
(602,650,l),
(200,650,l),
(62,0,l)
);
}
);
width = 580;
}
);
unicode = 70;
},
{
color = 0;
glyphname = G;
layers = (
{
anchors = (
{
name = bottom;
pos = (249,0);
},
{
name = top;
pos = (378,650);
}
);
background = {
anchors = (
{
name = bottom;
pos = (249,0);
},
{
name = top;
pos = (378,650);
}
);
shapes = (
{
closed = 1;
nodes = (
(20,128,o),
(88,-4,o),
(242,-9,cs),
(320,-12,o),
(382,23,o),
(453,103,c),
(475,38,l),
(419,167,l),
(447,185,l),
(389,127,o),
(338,99,o),
(277,101,cs),
(184,105,o),
(154,177,o),
(185,325,cs),
(217,473,o),
(289,551,o),
(393,547,cs),
(444,546,o),
(485,526,o),
(521,475,c),
(487,479,l),
(598,606,l),
(612,536,l),
(563,618,o),
(500,656,o),
(403,659,cs),
(229,665,o),
(111,553,o),
(65,336,cs)
);
},
{
closed = 1;
nodes = (
(473,0,l),
(554,379,l),
(434,379,l),
(378,118,l),
(390,118,l),
(394,0,l)
);
},
{
closed = 1;
nodes = (
(421,269,l),
(444,379,l),
(327,379,l),
(304,269,l)
);
}
);
};
layerId = "27302DAC-E04E-41A7-B2D2-BD8305143A0A";
shapes = (
{
closed = 1;
nodes = (
(303,-12,o),
(350,6,o),
(393,44,c),
(394,0,l),
(473,0,l),
(554,379,l),
(327,379,l),
(304,269,l),
(410,269,l),
(380,130,l),
(349,110,o),
(317,100,o),
(283,100,cs),
(209,100,o),
(173,143,o),
(173,228,cs),
(173,349,o),
(228,550,o),
(387,550,cs),
(435,550,o),
(473,534,o),
(505,500,c),
(580,586,l),
(534,638,o),
(475,662,o),
(392,662,cs),
(146,662,o),
(51,410,o),
(51,218,cs),
(51,72,o),
(123,-12,o),
(251,-12,cs)
);
}
);
width = 580;
},
{
anchors = (
{
name = bottom;
pos = (250,0);
},
{
name = top;
pos = (378,650);
}
);
background = {
anchors = (
{
name = bottom;
pos = (250,0);
},
{
name = top;
pos = (378,650);
}
);
shapes = (
{
closed = 1;
nodes = (
(31,126,o),
(98,-4,o),
(258,-10,cs),
(332,-12,o),
(389,14,o),
(461,83,c),
(474,16,l),
(414,155,l),
(464,154,l),
(399,87,o),
(344,58,o),
(273,61,cs),
(154,65,o),
(113,153,o),
(150,328,cs),
(188,504,o),
(275,593,o),
(402,588,cs),
(468,586,o),
(511,559,o),
(557,488,c),
(484,492,l),
(603,629,l),
(615,531,l),
(558,619,o),
(499,656,o),
(406,659,cs),
(237,665,o),
(122,553,o),
(76,337,cs)
);
},
{
closed = 1;
nodes = (
(464,0,l),
(540,358,l),
(466,358,l),
(407,79,l),
(421,79,l),
(417,0,l)
);
},
{
closed = 1;
nodes = (
(461,288,l),
(476,358,l),
(333,358,l),
(318,288,l)
);
}
);
};
layerId = "B9B856C8-1FA2-46F4-A929-F36A99765E59";
shapes = (
{
closed = 1;
nodes = (
(323,-12,o),
(369,5,o),
(419,45,c),
(417,0,l),
(464,0,l),
(540,358,l),
(333,358,l),
(318,288,l),
(451,288,l),
(413,107,l),
(371,74,o),
(330,59,o),
(283,59,cs),
(184,59,o),
(137,110,o),
(137,218,cs),
(137,365,o),
(203,591,o),
(394,591,cs),
(448,591,o),
(487,576,o),
(523,538,c),
(571,593,l),
(525,641,o),
(471,662,o),
(395,662,cs),
(153,662,o),
(62,407,o),
(62,217,cs),
(62,70,o),
(135,-12,o),
(266,-12,cs)
);
}
);
width = 580;
},
{
anchors = (
{
name = bottom;
pos = (249,0);
},
{
name = top;
pos = (378,650);
}
);
associatedMasterId = "27302DAC-E04E-41A7-B2D2-BD8305143A0A";
background = {
anchors = (
{
name = bottom;
pos = (249,0);
},
{
name = top;
pos = (378,650);
}
);
shapes = (
{
closed = 1;
nodes = (
(21,121,o),
(90,-12,o),
(247,-12,cs),
(322,-12,o),
(388,20,o),
(458,105,c),
(475,44,l),
(419,171,l),
(447,190,l),
(389,130,o),
(338,100,o),
(277,100,cs),
(184,100,o),
(154,171,o),
(185,320,cs),
(217,470,o),
(289,550,o),
(393,550,cs),
(444,550,o),
(485,532,o),
(521,482,c),
(487,479,l),
(598,606,l),
(611,545,l),
(560,624,o),
(498,662,o),
(398,662,cs),
(227,662,o),
(112,549,o),
(66,330,cs)
);
},
{
closed = 1;
nodes = (
(473,0,l),
(554,379,l),
(434,379,l),
(378,118,l),
(390,118,l),
(394,0,l)
);
},
{
closed = 1;
nodes = (
(411,269,l),
(434,379,l),
(327,379,l),
(304,269,l)
);
}
);
};
layerId = "D91B971C-6B3A-4525-834C-71288D97F2EA";
name = slanted;
shapes = (
{
closed = 1;
nodes = (
(186,325,l),
(218,475,o),
(284,550,o),
(384,550,cs),
(439,550,o),
(481,528,o),
(517,478,c),
(485,479,l),
(594,606,l),
(613,549,l),
(564,628,o),
(502,662,o),
(407,662,cs),
(231,662,o),
(111,544,o),
(64,325,c)
);
},
{
closed = 1;
nodes = (
(318,-12,o),
(387,24,o),
(457,109,c),
(475,44,l),
(420,171,l),
(448,186,l),
(391,126,o),
(343,100,o),
(286,100,cs),
(189,100,o),
(155,176,o),
(186,325,c),
(64,325,l),
(20,116,o),
(86,-12,o),
(238,-12,cs)
);
},
{
closed = 1;
nodes = (
(473,0,l),
(554,379,l),
(434,379,l),
(378,118,l),
(388,118,l),
(393,0,l)
);
},
{
closed = 1;
nodes = (
(411,269,l),
(434,379,l),
(327,379,l),
(304,269,l)
);
}
);
width = 580;
},
{
anchors = (
{
name = bottom;
pos = (249,0);
},
{
name = top;
pos = (378,650);
}
);
associatedMasterId = "27302DAC-E04E-41A7-B2D2-BD8305143A0A";
background = {
anchors = (
{
name = bottom;
pos = (249,0);
},
{
name = top;
pos = (378,650);
}
);
shapes = (
{
closed = 1;
nodes = (
(186,325,l),
(218,475,o),
(284,550,o),
(384,550,cs),
(439,550,o),
(481,528,o),
(517,478,c),
(485,479,l),
(594,606,l),
(613,549,l),
(564,628,o),
(502,662,o),
(407,662,cs),
(231,662,o),
(111,544,o),
(64,325,c)
);
},
{
closed = 1;
nodes = (
(318,-12,o),
(387,24,o),
(457,109,c),
(475,44,l),
(420,171,l),
(448,186,l),
(391,126,o),
(343,100,o),
(286,100,cs),
(189,100,o),
(155,176,o),
(186,325,c),
(64,325,l),
(20,116,o),
(86,-12,o),
(238,-12,cs)
);
},
{
closed = 1;
nodes = (
(473,0,l),
(554,379,l),
(434,379,l),
(378,118,l),
(388,118,l),
(393,0,l)
);
},
{
closed = 1;
nodes = (
(411,269,l),
(434,379,l),
(327,379,l),
(304,269,l)
);
}
);
};
layerId = "77983B85-FC91-47D3-9673-F7D2714E58EE";
name = cursify;
shapes = (
{
closed = 1;
nodes = (
(21,121,o),
(90,-12,o),
(247,-12,cs),
(322,-12,o),
(388,20,o),
(458,105,c),
(475,44,l),
(419,171,l),
(447,190,l),
(389,130,o),
(338,100,o),
(277,100,cs),
(184,100,o),
(154,171,o),
(185,320,cs),
(217,470,o),
(289,550,o),
(393,550,cs),
(444,550,o),
(485,532,o),
(521,482,c),
(487,479,l),
(598,606,l),
(611,545,l),
(560,624,o),
(498,662,o),
(398,662,cs),
(227,662,o),
(112,549,o),
(66,330,cs)
);
},
{
closed = 1;
nodes = (
(473,0,l),
(554,379,l),
(434,379,l),
(378,118,l),
(390,118,l),
(394,0,l)
);
},
{
closed = 1;
nodes = (
(411,269,l),
(434,379,l),
(327,379,l),
(304,269,l)
);
}
);
width = 580;
},
{
anchors = (
{
name = bottom;
pos = (250,0);
},
{
name = top;
pos = (378,650);
}
);
associatedMasterId = "B9B856C8-1FA2-46F4-A929-F36A99765E59";
background = {
anchors = (
{
name = bottom;
pos = (250,0);
},
{
name = top;
pos = (378,650);
}
);
shapes = (
{
closed = 1;
nodes = (
(31,116,o),
(98,-12,o),
(258,-12,cs),
(332,-12,o),
(392,16,o),
(464,88,c),
(474,21,l),
(414,158,l),
(464,159,l),
(399,90,o),
(344,59,o),
(273,59,cs),
(154,59,o),
(113,146,o),
(150,322,cs),
(188,499,o),
(275,591,o),
(402,591,cs),
(468,591,o),
(511,566,o),
(557,496,c),
(484,492,l),
(603,629,l),
(615,541,l),
(558,627,o),
(499,662,o),
(406,662,cs),
(237,662,o),
(122,546,o),
(76,328,cs)
);
},
{
closed = 1;
nodes = (
(464,0,l),
(540,358,l),
(466,358,l),
(407,79,l),
(421,79,l),
(417,0,l)
);
},
{
closed = 1;
nodes = (
(451,288,l),
(466,358,l),
(333,358,l),
(318,288,l)
);
}
);
};
layerId = "F524EDC7-F0FE-4EDE-A8B9-0E12FE7B7436";
name = slanted;
shapes = (
{
closed = 1;
nodes = (
(151,325,l),
(189,502,o),
(272,591,o),
(397,591,cs),
(465,591,o),
(509,564,o),
(555,494,c),
(483,492,l),
(601,629,l),
(616,543,l),
(561,629,o),
(502,662,o),
(412,662,cs),
(240,662,o),
(121,543,o),
(75,325,c)
);
},
{
closed = 1;
nodes = (
(329,-12,o),
(391,18,o),
(463,90,c),
(475,21,l),
(415,158,l),
(465,157,l),
(400,88,o),
(347,59,o),
(279,59,cs),
(157,59,o),
(114,149,o),
(151,325,c),
(75,325,l),
(30,113,o),
(95,-12,o),
(252,-12,cs)
);
},
{
closed = 1;
nodes = (
(464,0,l),
(540,358,l),
(466,358,l),
(407,79,l),
(421,79,l),
(417,0,l)
);
},
{
closed = 1;
nodes = (
(451,288,l),
(466,358,l),
(333,358,l),
(318,288,l)
);
}
);
width = 580;
},
{
anchors = (
{
name = bottom;
pos = (250,0);
},
{
name = top;
pos = (378,650);
}
);
associatedMasterId = "B9B856C8-1FA2-46F4-A929-F36A99765E59";
background = {
anchors = (
{
name = bottom;
pos = (250,0);
},
{
name = top;
pos = (378,650);
}
);
shapes = (
{
closed = 1;
nodes = (
(151,325,l),
(189,502,o),
(272,591,o),
(397,591,cs),
(465,591,o),
(509,564,o),
(555,494,c),
(483,492,l),
(601,629,l),
(616,543,l),
(561,629,o),
(502,662,o),
(412,662,cs),
(240,662,o),
(121,543,o),
(75,325,c)
);
},
{
closed = 1;
nodes = (
(329,-12,o),
(391,18,o),
(463,90,c),
(475,21,l),
(415,158,l),
(465,157,l),
(400,88,o),
(347,59,o),
(279,59,cs),
(157,59,o),
(114,149,o),
(151,325,c),
(75,325,l),
(30,113,o),
(95,-12,o),
(252,-12,cs)
);
},
{
closed = 1;
nodes = (
(464,0,l),
(540,358,l),
(466,358,l),
(407,79,l),
(421,79,l),
(417,0,l)
);
},
{
closed = 1;
nodes = (
(451,288,l),
(466,358,l),
(333,358,l),
(318,288,l)
);
}
);
};
layerId = "6A67E078-D973-4F12-889E-D687BA263D59";
name = cursify;
shapes = (
{
closed = 1;
nodes = (
(31,116,o),
(98,-12,o),
(258,-12,cs),
(332,-12,o),
(392,16,o),
(464,88,c),
(474,21,l),
(414,158,l),
(464,159,l),
(399,90,o),
(344,59,o),
(273,59,cs),
(154,59,o),
(113,146,o),
(150,322,cs),
(188,499,o),
(275,591,o),
(402,591,cs),
(468,591,o),
(511,566,o),
(557,496,c),
(484,492,l),
(603,629,l),
(615,541,l),
(558,627,o),
(499,662,o),
(406,662,cs),
(237,662,o),
(122,546,o),
(76,328,cs)
);
},
{
closed = 1;
nodes = (
(464,0,l),
(540,358,l),
(466,358,l),
(407,79,l),
(421,79,l),
(417,0,l)
);
},
{
closed = 1;
nodes = (
(451,288,l),
(466,358,l),
(333,358,l),
(318,288,l)
);
}
);
width = 580;
}
);
unicode = 71;
},
{
color = 0;
glyphname = H;
layers = (
{
anchors = (
{
name = bottom;
pos = (239,0);
},
{
name = center;
pos = (350,518);
},
{
name = top;
pos = (378,650);
},
{
name = topleft;
pos = (98,650);
}
);
background = {
anchors = (
{
name = bottom;
pos = (239,0);
},
{
name = center;
pos = (350,518);
},
{
name = top;
pos = (378,650);
},
{
name = topleft;
pos = (98,650);
}
);
shapes = (
{
closed = 1;
nodes = (
(464,0,l),
(603,650,l),
(483,650,l),
(344,0,l)
);
},
{
closed = 1;
nodes = (
(134,0,l),
(273,650,l),
(153,650,l),
(14,0,l)
);
},
{
closed = 1;
nodes = (
(413,276,l),
(436,386,l),
(206,386,l),
(183,276,l)
);
}
);
};
layerId = "27302DAC-E04E-41A7-B2D2-BD8305143A0A";
shapes = (
{
closed = 1;
nodes = (
(134,0,l),
(193,276,l),
(403,276,l),
(344,0,l),
(464,0,l),
(603,650,l),
(483,650,l),
(427,386,l),
(217,386,l),
(273,650,l),
(153,650,l),
(14,0,l)
);
}
);
width = 580;
},
{
anchors = (
{
name = bottom;
pos = (240,0);
},
{
name = center;
pos = (348,508);
},
{
name = top;
pos = (378,650);
},
{
name = topleft;
pos = (98,650);
}
);
background = {
anchors = (
{
name = bottom;
pos = (240,0);
},
{
name = center;
pos = (348,508);
},
{
name = top;
pos = (378,650);
},
{
name = topleft;
pos = (98,650);
}
);
shapes = (
{
closed = 1;
nodes = (
(455,0,l),
(593,650,l),
(519,650,l),
(381,0,l)
);
},
{
closed = 1;
nodes = (
(99,0,l),
(237,650,l),
(163,650,l),
(25,0,l)
);
},
{
closed = 1;
nodes = (
(454,296,l),
(469,366,l),
(167,366,l),
(152,296,l)
);
}
);
};
layerId = "B9B856C8-1FA2-46F4-A929-F36A99765E59";
shapes = (
{
closed = 1;
nodes = (
(99,0,l),
(162,296,l),
(444,296,l),
(381,0,l),
(455,0,l),
(593,650,l),
(519,650,l),
(459,366,l),
(177,366,l),
(237,650,l),
(163,650,l),
(25,0,l)
);
}
);
width = 580;
}
);
unicode = 72;
},
{
color = 0;
glyphname = Hbar;
layers = (
{
anchors = (
{
name = bottom;
pos = (240,0);
},
{
name = center;
pos = (348,508);
},
{
name = top;
pos = (378,650);
},
{
name = topleft;
pos = (98,650);
}
);
background = {
anchors = (
{
name = bottom;
pos = (240,0);
},
{
name = center;
pos = (348,508);
},
{
name = top;
pos = (378,650);
},
{
name = topleft;
pos = (98,650);
}
);
shapes = (
{
closed = 1;
nodes = (
(455,0,l),
(593,650,l),
(519,650,l),
(381,0,l)
);
},
{
closed = 1;
nodes = (
(99,0,l),
(237,650,l),
(163,650,l),
(25,0,l)
);
},
{
closed = 1;
nodes = (
(448,266,l),
(462,336,l),
(160,336,l),
(146,266,l)
);
},
{
closed = 1;
nodes = (
(598,461,l),
(612,525,l),
(92,525,l),
(78,461,l)
);
}
);
};
hints = (
{
horizontal = 1;
origin = (0,19);
target = up;
type = BottomGhost;
},
{
horizontal = 1;
origin = (0,1);
target = (1,3);
type = Stem;
},
{
horizontal = 1;
origin = (0,17);
target = (0,16);
type = Stem;
},
{
horizontal = 1;
origin = (0,14);
target = down;
type = TopGhost;
}
);
layerId = "B9B856C8-1FA2-46F4-A929-F36A99765E59";
shapes = (
{
closed = 1;
nodes = (
(99,0,l),
(155,266,l),
(437,266,l),
(381,0,l),
(455,0,l),
(553,461,l),
(598,461,l),
(612,525,l),
(566,525,l),
(593,650,l),
(519,650,l),
(492,525,l),
(210,525,l),
(237,650,l),
(163,650,l),
(136,525,l),
(92,525,l),
(78,461,l),
(123,461,l),
(25,0,l)
);
},
{
closed = 1;
nodes = (
(197,461,l),
(479,461,l),
(452,336,l),
(170,336,l)
);
}
);
width = 580;
},
{
anchors = (
{
name = bottom;
pos = (239,0);
},
{
name = center;
pos = (350,518);
},
{
name = top;
pos = (378,650);
},
{
name = topleft;
pos = (98,650);
}
);
background = {
anchors = (
{
name = bottom;
pos = (239,0);
},
{
name = center;
pos = (350,518);
},
{
name = top;
pos = (378,650);
},
{
name = topleft;
pos = (98,650);
}
);
shapes = (
{
closed = 1;
nodes = (
(464,0,l),
(603,650,l),
(483,650,l),
(344,0,l)
);
},
{
closed = 1;
nodes = (
(134,0,l),
(273,650,l),
(153,650,l),
(14,0,l)
);
},
{
closed = 1;
nodes = (
(407,246,l),
(430,356,l),
(200,356,l),
(177,246,l)
);
},
{
closed = 1;
nodes = (
(603,455,l),
(624,551,l),
(90,551,l),
(69,455,l)
);
}
);
};
layerId = "27302DAC-E04E-41A7-B2D2-BD8305143A0A";
shapes = (
{
closed = 1;
nodes = (
(134,0,l),
(187,246,l),
(397,246,l),
(344,0,l),
(464,0,l),
(561,455,l),
(603,455,l),
(624,551,l),
(582,551,l),
(603,650,l),
(483,650,l),
(462,551,l),
(252,551,l),
(273,650,l),
(153,650,l),
(132,551,l),
(90,551,l),
(69,455,l),
(111,455,l),
(14,0,l)
);
},
{
closed = 1;
nodes = (
(231,455,l),
(441,455,l),
(420,356,l),
(210,356,l)
);
}
);
width = 580;
}
);
unicode = 294;
},
{
color = 0;
glyphname = I;
layers = (
{
anchors = (
{
name = bottom;
pos = (239,0);
},
{
name = ogonek;
pos = (345,0);
},
{
name = top;
pos = (378,650);
},
{
name = topleft;
pos = (98,650);
}
);
background = {
anchors = (
{
name = bottom;
pos = (239,0);
},
{
name = ogonek;
pos = (345,0);
},
{
name = top;
pos = (378,650);
},
{
name = topleft;
pos = (98,650);
}
);
shapes = (
{
closed = 1;
nodes = (
(299,0,l),
(438,650,l),
(318,650,l),
(179,0,l)
);
},
{
closed = 1;
nodes = (
(189,0,l),
(213,110,l),
(46,110,l),
(22,0,l)
);
},
{
closed = 1;
nodes = (
(456,0,l),
(480,110,l),
(313,110,l),
(289,0,l)
);
},
{
closed = 1;
nodes = (
(304,540,l),
(328,650,l),
(161,650,l),
(137,540,l)
);
},
{
closed = 1;
nodes = (
(571,540,l),
(595,650,l),
(428,650,l),
(404,540,l)
);
}
);
};
layerId = "27302DAC-E04E-41A7-B2D2-BD8305143A0A";
shapes = (
{
closed = 1;
nodes = (
(456,0,l),
(480,110,l),
(323,110,l),
(414,540,l),
(571,540,l),
(595,650,l),
(161,650,l),
(137,540,l),
(294,540,l),
(203,110,l),
(46,110,l),
(22,0,l)
);
}
);
width = 580;
},
{
anchors = (
{
name = bottom;
pos = (240,0);
},
{
name = ogonek;
pos = (335,0);
},
{
name = top;
pos = (378,650);
},
{
name = topleft;
pos = (98,650);
}
);
background = {
anchors = (
{
name = bottom;
pos = (240,0);
},
{
name = ogonek;
pos = (335,0);
},
{
name = top;
pos = (378,650);
},
{
name = topleft;
pos = (98,650);
}
);
shapes = (
{
closed = 1;
nodes = (
(277,0,l),
(415,650,l),
(341,650,l),
(203,0,l)
);
},
{
closed = 1;
nodes = (
(213,0,l),
(228,70,l),
(47,70,l),
(32,0,l)
);
},
{
closed = 1;
nodes = (
(448,0,l),
(463,70,l),
(282,70,l),
(267,0,l)
);
},
{
closed = 1;
nodes = (
(336,580,l),
(351,650,l),
(170,650,l),
(155,580,l)
);
},
{
closed = 1;
nodes = (
(571,580,l),
(586,650,l),
(405,650,l),
(390,580,l)
);
}
);
};
layerId = "B9B856C8-1FA2-46F4-A929-F36A99765E59";
shapes = (
{
closed = 1;
nodes = (
(448,0,l),
(463,70,l),
(292,70,l),
(400,580,l),
(571,580,l),
(586,650,l),
(170,650,l),
(155,580,l),
(326,580,l),
(218,70,l),
(47,70,l),
(32,0,l)
);
}
);
width = 580;
}
);
unicode = 73;
},
{
color = 0;
glyphname = J;
layers = (
{
anchors = (
{
name = bottom;
pos = (240,0);
},
{
name = top;
pos = (411,650);
}
);
background = {
anchors = (
{
name = bottom;
pos = (240,0);
},
{
name = top;
pos = (411,650);
}
);
shapes = (
{
closed = 1;
nodes = (
(365,-12,o),
(452,60,o),
(481,196,cs),
(578,650,l),
(457,650,l),
(364,213,ls),
(349,143,o),
(303,100,o),
(226,100,cs),
(172,100,o),
(131,120,o),
(88,175,c),
(153,222,l),
(-14,47,l),
(4,102,l),
(61,25,o),
(125,-12,o),
(226,-12,cs)
);
},
{
closed = 1;
nodes = (
(443,540,l),
(467,650,l),
(245,650,l),
(221,540,l)
);
}
);
};
layerId = "27302DAC-E04E-41A7-B2D2-BD8305143A0A";
shapes = (
{
closed = 1;
nodes = (
(365,-12,o),
(452,59,o),
(481,196,cs),
(578,650,l),
(245,650,l),
(221,540,l),
(434,540,l),
(364,213,ls),
(348,140,o),
(300,100,o),
(226,100,cs),
(174,100,o),
(136,119,o),
(97,165,c),
(20,82,l),
(75,16,o),
(137,-12,o),
(226,-12,cs)
);
}
);
width = 580;
},
{
anchors = (
{
name = bottom;
pos = (238,0);
},
{
name = top;
pos = (414,650);
}
);
background = {
anchors = (
{
name = bottom;
pos = (238,0);
},
{
name = top;
pos = (414,650);
}
);
shapes = (
{
closed = 1;
nodes = (
(356,-12,o),
(441,59,o),
(468,190,cs),
(566,650,l),
(492,650,l),
(397,203,ls),
(378,113,o),
(317,59,o),
(224,59,cs),
(159,59,o),
(107,86,o),
(65,147,c),
(103,149,l),
(-13,19,l),
(8,101,l),
(63,24,o),
(126,-12,o),
(223,-12,cs)
);
},
{
closed = 1;
nodes = (
(487,580,l),
(502,650,l),
(263,650,l),
(248,580,l)
);
}
);
};
layerId = "B9B856C8-1FA2-46F4-A929-F36A99765E59";
shapes = (
{
closed = 1;
nodes = (
(355,-12,o),
(440,59,o),
(468,190,cs),
(566,650,l),
(263,650,l),
(248,580,l),
(477,580,l),
(397,203,ls),
(377,111,o),
(315,59,o),
(224,59,cs),
(166,59,o),
(121,80,o),
(82,125,c),
(33,70,l),
(83,13,o),
(141,-12,o),
(223,-12,cs)
);
}
);
width = 580;
},
{
anchors = (
{
name = bottom;
pos = (240,0);
},
{
name = top;
pos = (411,650);
}
);
associatedMasterId = "27302DAC-E04E-41A7-B2D2-BD8305143A0A";
background = {
anchors = (
{
name = bottom;
pos = (240,0);
},
{
name = top;
pos = (411,650);
}
);
shapes = (
{
closed = 1;
nodes = (
(360,-12,o),
(452,60,o),
(481,196,cs),
(578,650,l),
(457,650,l),
(364,213,ls),
(349,143,o),
(298,100,o),
(221,100,cs),
(167,100,o),
(126,120,o),
(89,176,c),
(155,221,l),
(-16,48,l),
(4,102,l),
(56,25,o),
(120,-12,o),
(221,-12,cs)
);
},
{
closed = 1;
nodes = (
(433,540,l),
(457,650,l),
(245,650,l),
(221,540,l)
);
}
);
};
layerId = "1377F67E-7CD1-4D57-B9F9-AAE7FC82D92F";
name = slanted;
shapes = (
{
closed = 1;
nodes = (
(356,-12,o),
(453,65,o),
(482,201,cs),
(578,650,l),
(457,650,l),
(363,208,ls),
(348,138,o),
(303,100,o),
(230,100,cs),
(172,100,o),
(130,124,o),
(93,180,c),
(155,221,l),
(-14,48,l),
(0,98,l),
(52,21,o),
(116,-12,o),
(212,-12,cs)
);
},
{
closed = 1;
nodes = (
(433,540,l),
(457,650,l),
(245,650,l),
(221,540,l)
);
}
);
width = 580;
},
{
anchors = (
{
name = bottom;
pos = (240,0);
},
{
name = top;
pos = (411,650);
}
);
associatedMasterId = "27302DAC-E04E-41A7-B2D2-BD8305143A0A";
background = {
anchors = (
{
name = bottom;
pos = (240,0);
},
{
name = top;
pos = (411,650);
}
);
shapes = (
{
closed = 1;
nodes = (
(356,-12,o),
(453,65,o),
(482,201,cs),
(578,650,l),
(457,650,l),
(363,208,ls),
(348,138,o),
(303,100,o),
(230,100,cs),
(172,100,o),
(130,124,o),
(93,180,c),
(155,221,l),
(-14,48,l),
(0,98,l),
(52,21,o),
(116,-12,o),
(212,-12,cs)
);
},
{
closed = 1;
nodes = (
(433,540,l),
(457,650,l),
(245,650,l),
(221,540,l)
);
}
);
};
layerId = "4EC3374C-A273-40C6-A778-AAB7E37D2391";
name = cursify;
shapes = (
{
closed = 1;
nodes = (
(360,-12,o),
(452,60,o),
(481,196,cs),
(578,650,l),
(457,650,l),
(364,213,ls),
(349,143,o),
(298,100,o),
(221,100,cs),
(167,100,o),
(126,120,o),
(89,176,c),
(155,221,l),
(-16,48,l),
(4,102,l),
(56,25,o),
(120,-12,o),
(221,-12,cs)
);
},
{
closed = 1;
nodes = (
(433,540,l),
(457,650,l),
(245,650,l),
(221,540,l)
);
}
);
width = 580;
},
{
anchors = (
{
name = bottom;
pos = (238,0);
},
{
name = top;
pos = (414,650);
}
);
associatedMasterId = "B9B856C8-1FA2-46F4-A929-F36A99765E59";
background = {
anchors = (
{
name = bottom;
pos = (238,0);
},
{
name = top;
pos = (414,650);
}
);
shapes = (
{
closed = 1;
nodes = (
(352,-12,o),
(441,59,o),
(468,190,cs),
(566,650,l),
(492,650,l),
(397,203,ls),
(378,113,o),
(313,59,o),
(220,59,cs),
(155,59,o),
(103,86,o),
(65,147,c),
(105,147,l),
(-15,21,l),
(8,101,l),
(59,24,o),
(122,-12,o),
(219,-12,cs)
);
},
{
closed = 1;
nodes = (
(477,580,l),
(492,650,l),
(263,650,l),
(248,580,l)
);
}
);
};
layerId = "C427DFDE-F272-4A94-B3E0-748133207012";
name = slanted;
shapes = (
{
closed = 1;
nodes = (
(349,-12,o),
(441,62,o),
(469,193,cs),
(566,650,l),
(492,650,l),
(397,200,ls),
(377,110,o),
(316,59,o),
(226,59,cs),
(158,59,o),
(106,88,o),
(68,149,c),
(106,147,l),
(-14,21,l),
(5,99,l),
(57,22,o),
(119,-12,o),
(213,-12,cs)
);
},
{
closed = 1;
nodes = (
(477,580,l),
(492,650,l),
(263,650,l),
(248,580,l)
);
}
);
width = 580;
},
{
anchors = (
{
name = bottom;
pos = (238,0);
},
{
name = top;
pos = (414,650);
}
);
associatedMasterId = "B9B856C8-1FA2-46F4-A929-F36A99765E59";
background = {
anchors = (
{
name = bottom;
pos = (238,0);
},
{
name = top;
pos = (414,650);
}
);
shapes = (
{
closed = 1;
nodes = (
(349,-12,o),
(441,62,o),
(469,193,cs),
(566,650,l),
(492,650,l),
(397,200,ls),
(377,110,o),
(316,59,o),
(226,59,cs),
(158,59,o),
(106,88,o),
(68,149,c),
(106,147,l),
(-14,21,l),
(5,99,l),
(57,22,o),
(119,-12,o),
(213,-12,cs)
);
},
{
closed = 1;
nodes = (
(477,580,l),
(492,650,l),
(263,650,l),
(248,580,l)
);
}
);
};
layerId = "8ED14104-17F2-4EC2-903F-D523E515B220";
name = cursify;
shapes = (
{
closed = 1;
nodes = (
(352,-12,o),
(441,59,o),
(468,190,cs),
(566,650,l),
(492,650,l),
(397,203,ls),
(378,113,o),
(313,59,o),
(220,59,cs),
(155,59,o),
(103,86,o),
(65,147,c),
(105,147,l),
(-15,21,l),
(8,101,l),
(59,24,o),
(122,-12,o),
(219,-12,cs)
);
},
{
closed = 1;
nodes = (
(477,580,l),
(492,650,l),
(263,650,l),
(248,580,l)
);
}
);
width = 580;
}
);
unicode = 74;
},
{
color = 0;
glyphname = K;
layers = (
{
anchors = (
{
name = bottom;
pos = (253,0);
},
{
name = top;
pos = (377,650);
}
);
background = {
anchors = (
{
name = bottom;
pos = (253,0);
},
{
name = top;
pos = (377,650);
}
);
shapes = (
{
closed = 1;
nodes = (
(54,285,l),
(168,177,l),
(648,650,l),
(493,650,l),
(25,177,l)
);
},
{
closed = 1;
nodes = (
(133,0,l),
(272,650,l),
(152,650,l),
(13,0,l)
);
},
{
closed = 1;
nodes = (
(512,0,l),
(374,409,l),
(219,307,l),
(245,409,l),
(381,0,l)
);
}
);
};
layerId = "27302DAC-E04E-41A7-B2D2-BD8305143A0A";
shapes = (
{
closed = 1;
nodes = (
(133,0,l),
(172,181,l),
(285,292,l),
(382,0,l),
(512,0,l),
(381,387,l),
(648,650,l),
(492,650,l),
(211,364,l),
(272,650,l),
(152,650,l),
(13,0,l)
);
}
);
width = 580;
},
{
anchors = (
{
name = bottom;
pos = (255,0);
},
{
name = top;
pos = (380,650);
}
);
background = {
anchors = (
{
name = bottom;
pos = (255,0);
},
{
name = top;
pos = (380,650);
}
);
shapes = (
{
closed = 1;
nodes = (
(71,285,l),
(142,204,l),
(631,650,l),
(533,650,l),
(48,204,l)
);
},
{
closed = 1;
nodes = (
(105,0,l),
(243,650,l),
(169,650,l),
(31,0,l)
);
},
{
closed = 1;
nodes = (
(496,0,l),
(344,397,l),
(238,295,l),
(265,396,l),
(416,0,l)
);
}
);
};
layerId = "B9B856C8-1FA2-46F4-A929-F36A99765E59";
shapes = (
{
closed = 1;
nodes = (
(105,0,l),
(150,211,l),
(288,337,l),
(416,0,l),
(496,0,l),
(346,391,l),
(631,650,l),
(533,650,l),
(173,319,l),
(243,650,l),
(169,650,l),
(31,0,l)
);
}
);
width = 580;
},
{
anchors = (
{
name = bottom;
pos = (253,0);
},
{
name = top;
pos = (377,650);
}
);
associatedMasterId = "27302DAC-E04E-41A7-B2D2-BD8305143A0A";
background = {
anchors = (
{
name = bottom;
pos = (253,0);
},
{
name = top;
pos = (377,650);
}
);
shapes = (
{
closed = 1;
nodes = (
(54,285,l),
(168,177,l),
(648,650,l),
(496,650,l),
(28,177,l)
);
},
{
closed = 1;
nodes = (
(133,0,l),
(272,650,l),
(152,650,l),
(13,0,l)
);
},
{
closed = 1;
nodes = (
(512,0,l),
(374,409,l),
(219,307,l),
(242,409,l),
(378,0,l)
);
}
);
};
layerId = "A4612599-6393-4111-B0D4-8D9E555B9D2F";
name = slanted;
shapes = (
{
closed = 1;
nodes = (
(53,285,l),
(165,177,l),
(647,650,l),
(498,650,l),
(30,177,l)
);
},
{
closed = 1;
nodes = (
(133,0,l),
(272,650,l),
(152,650,l),
(13,0,l)
);
},
{
closed = 1;
nodes = (
(513,0,l),
(377,409,l),
(221,307,l),
(240,409,l),
(376,0,l)
);
}
);
width = 580;
},
{
anchors = (
{
name = bottom;
pos = (255,0);
},
{
name = top;
pos = (380,650);
}
);
associatedMasterId = "B9B856C8-1FA2-46F4-A929-F36A99765E59";
background = {
anchors = (
{
name = bottom;
pos = (255,0);
},
{
name = top;
pos = (380,650);
}
);
shapes = (
{
closed = 1;
nodes = (
(71,285,l),
(142,204,l),
(631,650,l),
(536,650,l),
(51,204,l)
);
},
{
closed = 1;
nodes = (
(105,0,l),
(243,650,l),
(169,650,l),
(31,0,l)
);
},
{
closed = 1;
nodes = (
(496,0,l),
(344,397,l),
(238,295,l),
(261,396,l),
(412,0,l)
);
}
);
};
layerId = "18FBB058-6B22-4A87-BD07-A9AC4CEBC3CF";
name = slanted;
shapes = (
{
closed = 1;
nodes = (
(70,285,l),
(140,204,l),
(630,650,l),
(537,650,l),
(52,204,l)
);
},
{
closed = 1;
nodes = (
(105,0,l),
(243,650,l),
(169,650,l),
(31,0,l)
);
},
{
closed = 1;
nodes = (
(497,0,l),
(346,397,l),
(239,295,l),
(260,396,l),
(411,0,l)
);
}
);
width = 580;
},
{
anchors = (
{
name = bottom;
pos = (255,0);
},
{
name = top;
pos = (380,650);
}
);
associatedMasterId = "B9B856C8-1FA2-46F4-A929-F36A99765E59";
background = {
anchors = (
{
name = bottom;
pos = (255,0);
},
{
name = top;
pos = (380,650);
}
);
shapes = (
{
closed = 1;
nodes = (
(70,285,l),
(140,204,l),
(630,650,l),
(537,650,l),
(52,204,l)
);
},
{
closed = 1;
nodes = (
(105,0,l),
(243,650,l),
(169,650,l),
(31,0,l)
);
},
{
closed = 1;
nodes = (
(497,0,l),
(346,397,l),
(239,295,l),
(260,396,l),
(411,0,l)
);
}
);
};
layerId = "F0448517-D566-49EA-AA8F-B876DD34948C";
name = cursify;
shapes = (
{
closed = 1;
nodes = (
(71,285,l),
(142,204,l),
(631,650,l),
(536,650,l),
(51,204,l)
);
},
{
closed = 1;
nodes = (
(105,0,l),
(243,650,l),
(169,650,l),
(31,0,l)
);
},
{
closed = 1;
nodes = (
(496,0,l),
(344,397,l),
(238,295,l),
(261,396,l),
(412,0,l)
);
}
);
width = 580;
},
{
anchors = (
{
name = bottom;
pos = (253,0);
},
{
name = top;
pos = (377,650);
}
);
associatedMasterId = "27302DAC-E04E-41A7-B2D2-BD8305143A0A";
background = {
anchors = (
{
name = bottom;
pos = (253,0);
},
{
name = top;
pos = (377,650);
}
);
shapes = (
{
closed = 1;
nodes = (
(53,285,l),
(165,177,l),
(647,650,l),
(498,650,l),
(30,177,l)
);
},
{
closed = 1;
nodes = (
(133,0,l),
(272,650,l),
(152,650,l),
(13,0,l)
);
},
{
closed = 1;
nodes = (
(513,0,l),
(377,409,l),
(221,307,l),
(240,409,l),
(376,0,l)
);
}
);
};
layerId = "BE9CD5EC-8E68-4A1A-AB31-471CEA9BE4D0";
name = cursify;
shapes = (
{
closed = 1;
nodes = (
(54,285,l),
(168,177,l),
(648,650,l),
(496,650,l),
(28,177,l)
);
},
{
closed = 1;
nodes = (
(133,0,l),
(272,650,l),
(152,650,l),
(13,0,l)
);
},
{
closed = 1;
nodes = (
(512,0,l),
(374,409,l),
(219,307,l),
(242,409,l),
(378,0,l)
);
}
);
width = 580;
}
);
unicode = 75;
},
{
color = 0;
glyphname = L;
layers = (
{
anchors = (
{
name = bottom;
pos = (260,0);
},
{
name = center;
pos = (306,325);
},
{
name = top;
pos = (246,650);
},
{
name = topright;
pos = (432,650);
}
);
background = {
anchors = (
{
name = bottom;
pos = (260,0);
},
{
name = center;
pos = (306,325);
},
{
name = top;
pos = (246,650);
},
{
name = topright;
pos = (432,650);
}
);
shapes = (
{
closed = 1;
nodes = (
(167,0,l),
(306,650,l),
(186,650,l),
(47,0,l)
);
},
{
closed = 1;
nodes = (
(474,0,l),
(498,110,l),
(181,110,l),
(157,0,l)
);
}
);
};
layerId = "27302DAC-E04E-41A7-B2D2-BD8305143A0A";
shapes = (
{
closed = 1;
nodes = (
(474,0,l),
(498,110,l),
(191,110,l),
(306,650,l),
(186,650,l),
(47,0,l)
);
}
);
width = 580;
},
{
anchors = (
{
name = bottom;
pos = (263,0);
},
{
name = center;
pos = (311,325);
},
{
name = top;
pos = (237,650);
},
{
name = topright;
pos = (394,650);
}
);
background = {
anchors = (
{
name = bottom;
pos = (263,0);
},
{
name = center;
pos = (311,325);
},
{
name = top;
pos = (237,650);
},
{
name = topright;
pos = (394,650);
}
);
shapes = (
{
closed = 1;
nodes = (
(136,0,l),
(274,650,l),
(200,650,l),
(62,0,l)
);
},
{
closed = 1;
nodes = (
(464,0,l),
(479,70,l),
(141,70,l),
(126,0,l)
);
}
);
};
layerId = "B9B856C8-1FA2-46F4-A929-F36A99765E59";
shapes = (
{
closed = 1;
nodes = (
(464,0,l),
(479,70,l),
(151,70,l),
(274,650,l),
(200,650,l),
(62,0,l)
);
}
);
width = 580;
}
);
unicode = 76;
},
{
color = 1;
glyphname = Lslash;
layers = (
{
anchors = (
{
name = _center;
pos = (338,325);
}
);
background = {
anchors = (
{
name = _center;
pos = (338,325);
}
);
shapes = (
{
closed = 1;
nodes = (
(457,381,l),
(425,444,l),
(39,244,l),
(71,181,l)
);
},
{
pos = (19,0);
ref = L;
}
);
};
layerId = "B9B856C8-1FA2-46F4-A929-F36A99765E59";
shapes = (
{
closed = 1;
nodes = (
(457,381,l),
(425,444,l),
(39,244,l),
(71,181,l)
);
},
{
pos = (19,0);
ref = L;
}
);
width = 580;
},
{
anchors = (
{
name = _center;
pos = (335,325);
}
);
background = {
anchors = (
{
name = _center;
pos = (335,325);
}
);
shapes = (
{
closed = 1;
nodes = (
(477,383,l),
(432,473,l),
(26,265,l),
(71,175,l)
);
},
{
pos = (17,0);
ref = L;
}
);
};
layerId = "27302DAC-E04E-41A7-B2D2-BD8305143A0A";
shapes = (
{
closed = 1;
nodes = (
(477,383,l),
(432,473,l),
(26,265,l),
(71,175,l)
);
},
{
pos = (17,0);
ref = L;
}
);
width = 580;
},
{
anchors = (
{
name = _center;
pos = (338,325);
},
{
name = bottom;
pos = (282,0);
},
{
name = center;
pos = (330,325);
},
{
name = top;
pos = (256,650);
},
{
name = topright;
pos = (413,650);
}
);
associatedMasterId = "B9B856C8-1FA2-46F4-A929-F36A99765E59";
background = {
anchors = (
{
name = _center;
pos = (338,325);
}
);
shapes = (
{
closed = 1;
nodes = (
(458,385,l),
(435,447,l),
(49,247,l),
(72,185,l)
);
},
{
pos = (19,0);
ref = L;
}
);
};
guides = (
{
angle = 120.0294;
pos = (61,169);
}
);
layerId = "D1D67223-76D9-4B0F-9832-D5A783CB8AD5";
name = slanted;
shapes = (
{
closed = 1;
nodes = (
(459,385,l),
(437,447,l),
(49,247,l),
(70,185,l)
);
},
{
pos = (19,0);
ref = L;
}
);
width = 580;
},
{
anchors = (
{
name = _center;
pos = (338,325);
}
);
associatedMasterId = "B9B856C8-1FA2-46F4-A929-F36A99765E59";
background = {
anchors = (
{
name = _center;
pos = (338,325);
},
{
name = bottom;
pos = (282,0);
},
{
name = center;
pos = (330,325);
},
{
name = top;
pos = (256,650);
},
{
name = topright;
pos = (413,650);
}
);
shapes = (
{
closed = 1;
nodes = (
(459,385,l),
(437,447,l),
(49,247,l),
(70,185,l)
);
},
{
closed = 1;
nodes = (
(155,0,l),
(293,650,l),
(219,650,l),
(81,0,l)
);
},
{
closed = 1;
nodes = (
(483,0,l),
(498,70,l),
(170,70,l),
(155,0,l)
);
}
);
};
guides = (
{
angle = 120.0294;
pos = (61,169);
}
);
layerId = "AE38FB37-F1BF-4499-9CE4-9AF0AC1CE1EC";
name = cursify;
shapes = (
{
closed = 1;
nodes = (
(458,385,l),
(435,447,l),
(49,247,l),
(72,185,l)
);
},
{
pos = (19,0);
ref = L;
}
);
width = 580;
},
{
anchors = (
{
name = _center;
pos = (335,325);
},
{
name = bottom;
pos = (277,0);
},
{
name = center;
pos = (323,325);
},
{
name = top;
pos = (263,650);
},
{
name = topright;
pos = (449,650);
}
);
associatedMasterId = "27302DAC-E04E-41A7-B2D2-BD8305143A0A";
background = {
anchors = (
{
name = _center;
pos = (335,325);
}
);
shapes = (
{
closed = 1;
nodes = (
(480,387,l),
(447,475,l),
(41,267,l),
(74,179,l)
);
},
{
pos = (17,0);
ref = L;
}
);
};
guides = (
{
angle = 119.6772;
pos = (561,374);
},
{
angle = 119.6772;
pos = (-119,166);
}
);
layerId = "3312BAA3-8043-4F6F-B915-57AC88C257D1";
name = slanted;
shapes = (
{
closed = 1;
nodes = (
(481,387,l),
(449,475,l),
(40,267,l),
(71,179,l)
);
},
{
pos = (17,0);
ref = L;
}
);
width = 580;
},
{
anchors = (
{
name = _center;
pos = (335,325);
}
);
associatedMasterId = "27302DAC-E04E-41A7-B2D2-BD8305143A0A";
background = {
anchors = (
{
name = _center;
pos = (335,325);
},
{
name = bottom;
pos = (277,0);
},
{
name = center;
pos = (323,325);
},
{
name = top;
pos = (263,650);
},
{
name = topright;
pos = (449,650);
}
);
shapes = (
{
closed = 1;
nodes = (
(481,387,l),
(449,475,l),
(40,267,l),
(71,179,l)
);
},
{
closed = 1;
nodes = (
(184,0,l),
(323,650,l),
(203,650,l),
(64,0,l)
);
},
{
closed = 1;
nodes = (
(491,0,l),
(515,110,l),
(208,110,l),
(184,0,l)
);
}
);
};
guides = (
{
angle = 119.6772;
pos = (561,374);
},
{
angle = 119.6772;
pos = (-119,166);
}
);
layerId = "9E0C3C10-5D78-4234-B7B2-9792BB2C2B6E";
name = cursify;
shapes = (
{
closed = 1;
nodes = (
(480,387,l),
(447,475,l),
(41,267,l),
(74,179,l)
);
},
{
pos = (17,0);
ref = L;
}
);
width = 580;
}
);
unicode = 321;
},
{
color = 0;
glyphname = M;
layers = (
{
anchors = (
{
name = bottom;
pos = (239,0);
},
{
name = top;
pos = (378,650);
}
);
background = {
anchors = (
{
name = bottom;
pos = (239,0);
},
{
name = top;
pos = (378,650);
}
);
shapes = (
{
closed = 1;
nodes = (
(269,126,l),
(334,197,l),
(315,126,l),
(279,650,l),
(197,650,l),
(232,126,l)
);
},
{
closed = 1;
nodes = (
(106,0,l),
(245,650,l),
(143,650,l),
(4,0,l)
);
},
{
closed = 1;
nodes = (
(474,0,l),
(613,650,l),
(505,650,l),
(366,0,l)
);
},
{
closed = 1;
nodes = (
(553,650,l),
(463,650,l),
(205,126,l),
(223,197,l),
(260,126,l),
(294,126,l)
);
}
);
};
layerId = "27302DAC-E04E-41A7-B2D2-BD8305143A0A";
shapes = (
{
closed = 1;
nodes = (
(106,0,l),
(208,479,l),
(232,126,l),
(294,126,l),
(468,479,l),
(366,0,l),
(474,0,l),
(613,650,l),
(463,650,l),
(302,322,l),
(279,650,l),
(143,650,l),
(4,0,l)
);
}
);
width = 580;
},
{
anchors = (
{
name = bottom;
pos = (240,0);
},
{
name = top;
pos = (378,650);
}
);
background = {
anchors = (
{
name = bottom;
pos = (240,0);
},
{
name = top;
pos = (378,650);
}
);
shapes = (
{
closed = 1;
nodes = (
(270,132,l),
(318,214,l),
(298,132,l),
(252,650,l),
(192,650,l),
(239,132,l)
);
},
{
closed = 1;
nodes = (
(84,0,l),
(222,650,l),
(154,650,l),
(16,0,l)
);
},
{
closed = 1;
nodes = (
(464,0,l),
(602,650,l),
(530,650,l),
(392,0,l)
);
},
{
closed = 1;
nodes = (
(560,650,l),
(496,650,l),
(230,132,l),
(249,214,l),
(266,132,l),
(293,132,l)
);
}
);
};
layerId = "B9B856C8-1FA2-46F4-A929-F36A99765E59";
shapes = (
{
closed = 1;
nodes = (
(84,0,l),
(201,551,l),
(239,132,l),
(293,132,l),
(509,551,l),
(392,0,l),
(464,0,l),
(602,650,l),
(496,650,l),
(288,244,l),
(252,650,l),
(154,650,l),
(16,0,l)
);
}
);
width = 580;
},
{
anchors = (
{
name = bottom;
pos = (240,0);
},
{
name = top;
pos = (378,650);
}
);
associatedMasterId = "B9B856C8-1FA2-46F4-A929-F36A99765E59";
background = {
anchors = (
{
name = bottom;
pos = (240,0);
},
{
name = top;
pos = (378,650);
}
);
shapes = (
{
closed = 1;
nodes = (
(272,132,l),
(321,214,l),
(302,132,l),
(256,650,l),
(194,650,l),
(241,132,l)
);
},
{
closed = 1;
nodes = (
(84,0,l),
(222,650,l),
(154,650,l),
(16,0,l)
);
},
{
closed = 1;
nodes = (
(464,0,l),
(602,650,l),
(530,650,l),
(392,0,l)
);
},
{
closed = 1;
nodes = (
(564,650,l),
(500,650,l),
(234,132,l),
(254,214,l),
(270,132,l),
(297,132,l)
);
}
);
};
layerId = "19F2104D-5058-4627-80BF-5CEE29FFAE1B";
name = slanted;
shapes = (
{
closed = 1;
nodes = (
(271,132,l),
(321,214,l),
(303,132,l),
(257,650,l),
(193,650,l),
(240,132,l)
);
},
{
closed = 1;
nodes = (
(84,0,l),
(222,650,l),
(154,650,l),
(16,0,l)
);
},
{
closed = 1;
nodes = (
(464,0,l),
(602,650,l),
(530,650,l),
(392,0,l)
);
},
{
closed = 1;
nodes = (
(563,650,l),
(501,650,l),
(235,132,l),
(253,214,l),
(269,132,l),
(296,132,l)
);
}
);
width = 580;
},
{
anchors = (
{
name = bottom;
pos = (239,0);
},
{
name = top;
pos = (378,650);
}
);
associatedMasterId = "27302DAC-E04E-41A7-B2D2-BD8305143A0A";
background = {
anchors = (
{
name = bottom;
pos = (239,0);
},
{
name = top;
pos = (378,650);
}
);
shapes = (
{
closed = 1;
nodes = (
(271,126,l),
(338,197,l),
(320,126,l),
(284,650,l),
(199,650,l),
(234,126,l)
);
},
{
closed = 1;
nodes = (
(106,0,l),
(245,650,l),
(143,650,l),
(4,0,l)
);
},
{
closed = 1;
nodes = (
(474,0,l),
(613,650,l),
(505,650,l),
(366,0,l)
);
},
{
closed = 1;
nodes = (
(557,650,l),
(468,650,l),
(210,126,l),
(228,197,l),
(263,126,l),
(298,126,l)
);
}
);
};
layerId = "0997F0A8-BDED-4FDD-B7A6-2FB717825191";
name = slanted;
shapes = (
{
closed = 1;
nodes = (
(269,126,l),
(336,197,l),
(321,126,l),
(286,650,l),
(198,650,l),
(233,126,l)
);
},
{
closed = 1;
nodes = (
(106,0,l),
(245,650,l),
(143,650,l),
(4,0,l)
);
},
{
closed = 1;
nodes = (
(474,0,l),
(613,650,l),
(505,650,l),
(366,0,l)
);
},
{
closed = 1;
nodes = (
(556,650,l),
(470,650,l),
(211,126,l),
(226,197,l),
(261,126,l),
(297,126,l)
);
}
);
width = 580;
},
{
anchors = (
{
name = bottom;
pos = (240,0);
},
{
name = top;
pos = (378,650);
}
);
associatedMasterId = "B9B856C8-1FA2-46F4-A929-F36A99765E59";
background = {
anchors = (
{
name = bottom;
pos = (240,0);
},
{
name = top;
pos = (378,650);
}
);
shapes = (
{
closed = 1;
nodes = (
(271,132,l),
(321,214,l),
(303,132,l),
(257,650,l),
(193,650,l),
(240,132,l)
);
},
{
closed = 1;
nodes = (
(84,0,l),
(222,650,l),
(154,650,l),
(16,0,l)
);
},
{
closed = 1;
nodes = (
(464,0,l),
(602,650,l),
(530,650,l),
(392,0,l)
);
},
{
closed = 1;
nodes = (
(563,650,l),
(501,650,l),
(235,132,l),
(253,214,l),
(269,132,l),
(296,132,l)
);
}
);
};
layerId = "F808E1C5-01F2-4BD8-AAC7-132521C5511F";
name = cursify;
shapes = (
{
closed = 1;
nodes = (
(272,132,l),
(321,214,l),
(302,132,l),
(256,650,l),
(194,650,l),
(241,132,l)
);
},
{
closed = 1;
nodes = (
(84,0,l),
(222,650,l),
(154,650,l),
(16,0,l)
);
},
{
closed = 1;
nodes = (
(464,0,l),
(602,650,l),
(530,650,l),
(392,0,l)
);
},
{
closed = 1;
nodes = (
(564,650,l),
(500,650,l),
(234,132,l),
(254,214,l),
(270,132,l),
(297,132,l)
);
}
);
width = 580;
},
{
anchors = (
{
name = bottom;
pos = (239,0);
},
{
name = top;
pos = (378,650);
}
);
associatedMasterId = "27302DAC-E04E-41A7-B2D2-BD8305143A0A";
background = {
anchors = (
{
name = bottom;
pos = (239,0);
},
{
name = top;
pos = (378,650);
}
);
shapes = (
{
closed = 1;
nodes = (
(269,126,l),
(336,197,l),
(321,126,l),
(286,650,l),
(198,650,l),
(233,126,l)
);
},
{
closed = 1;
nodes = (
(106,0,l),
(245,650,l),
(143,650,l),
(4,0,l)
);
},
{
closed = 1;
nodes = (
(474,0,l),
(613,650,l),
(505,650,l),
(366,0,l)
);
},
{
closed = 1;
nodes = (
(556,650,l),
(470,650,l),
(211,126,l),
(226,197,l),
(261,126,l),
(297,126,l)
);
}
);
};
layerId = "6A725E0E-0EC7-42C2-B21B-E0C42FD84CB8";
name = cursify;
shapes = (
{
closed = 1;
nodes = (
(271,126,l),
(338,197,l),
(320,126,l),
(284,650,l),
(199,650,l),
(234,126,l)
);
},
{
closed = 1;
nodes = (
(106,0,l),
(245,650,l),
(143,650,l),
(4,0,l)
);
},
{
closed = 1;
nodes = (
(474,0,l),
(613,650,l),
(505,650,l),
(366,0,l)
);
},
{
closed = 1;
nodes = (
(557,650,l),
(468,650,l),
(210,126,l),
(228,197,l),
(263,126,l),
(298,126,l)
);
}
);
width = 580;
}
);
unicode = 77;
},
{
color = 0;
glyphname = N;
layers = (
{
anchors = (
{
name = bottom;
pos = (239,0);
},
{
name = top;
pos = (378,650);
}
);
background = {
anchors = (
{
name = bottom;
pos = (239,0);
},
{
name = top;
pos = (378,650);
}
);
shapes = (
{
closed = 1;
nodes = (
(488,105,l),
(461,0,l),
(283,650,l),
(176,650,l),
(356,0,l)
);
},
{
closed = 1;
nodes = (
(122,0,l),
(261,650,l),
(153,650,l),
(14,0,l)
);
},
{
closed = 1;
nodes = (
(464,0,l),
(603,650,l),
(495,650,l),
(365,45,l),
(356,0,l)
);
}
);
};
layerId = "27302DAC-E04E-41A7-B2D2-BD8305143A0A";
shapes = (
{
closed = 1;
nodes = (
(122,0,l),
(224,477,l),
(356,0,l),
(464,0,l),
(603,650,l),
(495,650,l),
(402,216,l),
(283,650,l),
(153,650,l),
(14,0,l)
);
}
);
width = 580;
},
{
anchors = (
{
name = bottom;
pos = (240,0);
},
{
name = top;
pos = (378,650);
}
);
background = {
anchors = (
{
name = bottom;
pos = (240,0);
},
{
name = top;
pos = (378,650);
}
);
shapes = (
{
closed = 1;
nodes = (
(461,21,l),
(453,0,l),
(255,650,l),
(183,650,l),
(381,0,l)
);
},
{
closed = 1;
nodes = (
(95,0,l),
(233,650,l),
(163,650,l),
(25,0,l)
);
},
{
closed = 1;
nodes = (
(455,0,l),
(593,650,l),
(523,650,l),
(390,28,l),
(381,0,l)
);
}
);
};
layerId = "B9B856C8-1FA2-46F4-A929-F36A99765E59";
shapes = (
{
closed = 1;
nodes = (
(95,0,l),
(212,553,l),
(381,0,l),
(455,0,l),
(593,650,l),
(523,650,l),
(413,134,l),
(255,650,l),
(163,650,l),
(25,0,l)
);
}
);
width = 580;
},
{
anchors = (
{
name = bottom;
pos = (239,0);
},
{
name = top;
pos = (378,650);
}
);
associatedMasterId = "27302DAC-E04E-41A7-B2D2-BD8305143A0A";
background = {
anchors = (
{
name = bottom;
pos = (239,0);
},
{
name = top;
pos = (378,650);
}
);
shapes = (
{
closed = 1;
nodes = (
(486,105,l),
(462,0,l),
(284,650,l),
(174,650,l),
(354,0,l)
);
},
{
closed = 1;
nodes = (
(122,0,l),
(261,650,l),
(153,650,l),
(14,0,l)
);
},
{
closed = 1;
nodes = (
(464,0,l),
(603,650,l),
(495,650,l),
(365,45,l),
(354,0,l)
);
}
);
};
layerId = "F462AB8E-D894-43FF-BC64-49EB820E5EF1";
name = slanted;
shapes = (
{
closed = 1;
nodes = (
(486,105,l),
(464,0,l),
(287,650,l),
(174,650,l),
(351,0,l)
);
},
{
closed = 1;
nodes = (
(122,0,l),
(261,650,l),
(153,650,l),
(14,0,l)
);
},
{
closed = 1;
nodes = (
(464,0,l),
(603,650,l),
(495,650,l),
(366,45,l),
(351,0,l)
);
}
);
width = 580;
},
{
anchors = (
{
name = bottom;
pos = (240,0);
},
{
name = top;
pos = (378,650);
}
);
associatedMasterId = "B9B856C8-1FA2-46F4-A929-F36A99765E59";
background = {
anchors = (
{
name = bottom;
pos = (240,0);
},
{
name = top;
pos = (378,650);
}
);
shapes = (
{
closed = 1;
nodes = (
(461,21,l),
(454,0,l),
(256,650,l),
(182,650,l),
(380,0,l)
);
},
{
closed = 1;
nodes = (
(95,0,l),
(233,650,l),
(163,650,l),
(25,0,l)
);
},
{
closed = 1;
nodes = (
(455,0,l),
(593,650,l),
(523,650,l),
(390,28,l),
(380,0,l)
);
}
);
};
layerId = "3A64BC62-EF49-415C-9EC4-AEAE3AB4DEC5";
name = slanted;
shapes = (
{
closed = 1;
nodes = (
(460,21,l),
(455,0,l),
(257,650,l),
(181,650,l),
(379,0,l)
);
},
{
closed = 1;
nodes = (
(95,0,l),
(233,650,l),
(163,650,l),
(25,0,l)
);
},
{
closed = 1;
nodes = (
(455,0,l),
(593,650,l),
(523,650,l),
(391,28,l),
(379,0,l)
);
}
);
width = 580;
},
{
anchors = (
{
name = bottom;
pos = (240,0);
},
{
name = top;
pos = (378,650);
}
);
associatedMasterId = "B9B856C8-1FA2-46F4-A929-F36A99765E59";
background = {
anchors = (
{
name = bottom;
pos = (240,0);
},
{
name = top;
pos = (378,650);
}
);
shapes = (
{
closed = 1;
nodes = (
(460,21,l),
(455,0,l),
(257,650,l),
(181,650,l),
(379,0,l)
);
},
{
closed = 1;
nodes = (
(95,0,l),
(233,650,l),
(163,650,l),
(25,0,l)
);
},
{
closed = 1;
nodes = (
(455,0,l),
(593,650,l),
(523,650,l),
(391,28,l),
(379,0,l)
);
}
);
};
layerId = "587603F9-2142-4E80-872F-535C9EF08749";
name = cursify;
shapes = (
{
closed = 1;
nodes = (
(461,21,l),
(454,0,l),
(256,650,l),
(182,650,l),
(380,0,l)
);
},
{
closed = 1;
nodes = (
(95,0,l),
(233,650,l),
(163,650,l),
(25,0,l)
);
},
{
closed = 1;
nodes = (
(455,0,l),
(593,650,l),
(523,650,l),
(390,28,l),
(380,0,l)
);
}
);
width = 580;
},
{
anchors = (
{
name = bottom;
pos = (239,0);
},
{
name = top;
pos = (378,650);
}
);
associatedMasterId = "27302DAC-E04E-41A7-B2D2-BD8305143A0A";
background = {
anchors = (
{
name = bottom;
pos = (239,0);
},
{
name = top;
pos = (378,650);
}
);
shapes = (
{
closed = 1;
nodes = (
(486,105,l),
(464,0,l),
(287,650,l),
(174,650,l),
(351,0,l)
);
},
{
closed = 1;
nodes = (
(122,0,l),
(261,650,l),
(153,650,l),
(14,0,l)
);
},
{
closed = 1;
nodes = (
(464,0,l),
(603,650,l),
(495,650,l),
(366,45,l),
(351,0,l)
);
}
);
};
layerId = "27356D4A-F3EE-4DB2-935D-B2A08C8E0EA3";
name = cursify;
shapes = (
{
closed = 1;
nodes = (
(486,105,l),
(462,0,l),
(284,650,l),
(174,650,l),
(354,0,l)
);
},
{
closed = 1;
nodes = (
(122,0,l),
(261,650,l),
(153,650,l),
(14,0,l)
);
},
{
closed = 1;
nodes = (
(464,0,l),
(603,650,l),
(495,650,l),
(365,45,l),
(354,0,l)
);
}
);
width = 580;
}
);
unicode = 78;
},
{
color = 0;
glyphname = Eng;
layers = (
{
anchors = (
{
name = bottom;
pos = (240,0);
},
{
name = top;
pos = (378,650);
}
);
background = {
shapes = (
{
closed = 1;
nodes = (
(123,-170,l),
(159,-204,o),
(198,-222,o),
(253,-222,cs),
(356,-222,o),
(421,-160,o),
(447,-36,cs),
(472,78,l),
(398,78,l),
(378,-15,ls),
(357,-111,o),
(322,-151,o),
(255,-151,cs),
(216,-151,o),
(187,-137,o),
(158,-106,c),
(212,-63,l),
(114,-250,l)
);
},
{
ref = N;
}
);
};
layerId = "B9B856C8-1FA2-46F4-A929-F36A99765E59";
shapes = (
{
closed = 1;
nodes = (
(358,-222,o),
(420,-164,o),
(446,-40,cs),
(593,650,l),
(523,650,l),
(413,134,l),
(255,650,l),
(163,650,l),
(25,0,l),
(95,0,l),
(212,553,l),
(381,0,l),
(377,-19,ls),
(357,-115,o),
(323,-151,o),
(256,-151,cs),
(227,-151,o),
(203,-143,o),
(179,-126,c),
(146,-190,l),
(178,-212,o),
(213,-222,o),
(254,-222,cs)
);
}
);
width = 580;
},
{
anchors = (
{
name = bottom;
pos = (239,0);
},
{
name = top;
pos = (378,650);
}
);
background = {
shapes = (
{
closed = 1;
nodes = (
(97,-169,l),
(136,-203,o),
(178,-222,o),
(237,-222,cs),
(357,-222,o),
(432,-151,o),
(461,-14,cs),
(498,158,l),
(378,158,l),
(344,0,ls),
(329,-73,o),
(294,-112,o),
(233,-112,cs),
(205,-112,o),
(180,-103,o),
(155,-80,c),
(200,-31,l),
(105,-230,l)
);
},
{
ref = N;
}
);
};
layerId = "27302DAC-E04E-41A7-B2D2-BD8305143A0A";
shapes = (
{
closed = 1;
nodes = (
(360,-222,o),
(430,-157,o),
(460,-18,cs),
(603,650,l),
(495,650,l),
(402,216,l),
(283,650,l),
(153,650,l),
(14,0,l),
(122,0,l),
(224,477,l),
(349,25,l),
(343,-4,ls),
(326,-80,o),
(294,-112,o),
(235,-112,cs),
(213,-112,o),
(192,-106,o),
(171,-92,c),
(124,-191,l),
(157,-212,o),
(196,-222,o),
(240,-222,cs)
);
}
);
width = 580;
},
{
associatedMasterId = "B9B856C8-1FA2-46F4-A929-F36A99765E59";
background = {
anchors = (
{
name = bottom;
pos = (240,0);
},
{
name = top;
pos = (378,650);
}
);
shapes = (
{
closed = 1;
nodes = (
(460,21,l),
(455,0,l),
(257,650,l),
(181,650,l),
(379,0,l)
);
},
{
closed = 1;
nodes = (
(95,0,l),
(233,650,l),
(163,650,l),
(25,0,l)
);
},
{
closed = 1;
nodes = (
(455,0,l),
(593,650,l),
(523,650,l),
(391,28,l),
(379,0,l)
);
},
{
closed = 1;
nodes = (
(123,-170,l),
(157,-204,o),
(196,-222,o),
(251,-222,cs),
(354,-222,o),
(421,-160,o),
(447,-36,cs),
(472,78,l),
(398,78,l),
(378,-15,ls),
(357,-111,o),
(320,-151,o),
(253,-151,cs),
(214,-151,o),
(185,-137,o),
(158,-106,c),
(217,-66,l),
(109,-247,l)
);
}
);
};
layerId = "9F89E237-1214-4D6C-8C49-53427755D26E";
name = slanted;
shapes = (
{
closed = 1;
nodes = (
(120,-172,l),
(154,-206,o),
(193,-222,o),
(245,-222,cs),
(351,-222,o),
(422,-157,o),
(448,-33,cs),
(472,78,l),
(398,78,l),
(377,-18,ls),
(357,-114,o),
(323,-151,o),
(259,-151,cs),
(217,-151,o),
(187,-135,o),
(161,-104,c),
(217,-66,l),
(110,-247,l)
);
},
{
ref = N;
}
);
width = 580;
},
{
associatedMasterId = "27302DAC-E04E-41A7-B2D2-BD8305143A0A";
background = {
anchors = (
{
name = bottom;
pos = (239,0);
},
{
name = top;
pos = (378,650);
}
);
shapes = (
{
closed = 1;
nodes = (
(486,105,l),
(464,0,l),
(287,650,l),
(174,650,l),
(351,0,l)
);
},
{
closed = 1;
nodes = (
(122,0,l),
(261,650,l),
(153,650,l),
(14,0,l)
);
},
{
closed = 1;
nodes = (
(464,0,l),
(603,650,l),
(495,650,l),
(366,45,l),
(351,0,l)
);
},
{
closed = 1;
nodes = (
(97,-169,l),
(134,-203,o),
(175,-222,o),
(234,-222,cs),
(354,-222,o),
(432,-151,o),
(461,-14,cs),
(498,158,l),
(378,158,l),
(344,0,ls),
(329,-73,o),
(292,-112,o),
(231,-112,cs),
(203,-112,o),
(178,-103,o),
(155,-80,c),
(208,-36,l),
(97,-225,l)
);
}
);
};
layerId = "2811972A-A4ED-4964-9457-47140EF080C3";
name = slanted;
shapes = (
{
closed = 1;
nodes = (
(94,-172,l),
(130,-206,o),
(170,-222,o),
(225,-222,cs),
(349,-222,o),
(433,-146,o),
(462,-9,cs),
(498,158,l),
(378,158,l),
(343,-5,ls),
(328,-78,o),
(297,-112,o),
(240,-112,cs),
(208,-112,o),
(182,-100,o),
(159,-77,c),
(208,-36,l),
(100,-225,l)
);
},
{
ref = N;
}
);
width = 580;
},
{
associatedMasterId = "27302DAC-E04E-41A7-B2D2-BD8305143A0A";
background = {
anchors = (
{
name = bottom;
pos = (239,0);
},
{
name = top;
pos = (378,650);
}
);
shapes = (
{
closed = 1;
nodes = (
(94,-172,l),
(130,-206,o),
(170,-222,o),
(225,-222,cs),
(349,-222,o),
(433,-146,o),
(462,-9,cs),
(498,158,l),
(378,158,l),
(343,-5,ls),
(328,-78,o),
(297,-112,o),
(240,-112,cs),
(208,-112,o),
(182,-100,o),
(159,-77,c),
(208,-36,l),
(100,-225,l)
);
},
{
closed = 1;
nodes = (
(486,105,l),
(464,0,l),
(287,650,l),
(174,650,l),
(351,0,l)
);
},
{
closed = 1;
nodes = (
(122,0,l),
(261,650,l),
(153,650,l),
(14,0,l)
);
},
{
closed = 1;
nodes = (
(464,0,l),
(603,650,l),
(495,650,l),
(366,45,l),
(351,0,l)
);
}
);
};
layerId = "6853BA2D-058E-4BF0-8408-6C206C8589D6";
name = cursify;
shapes = (
{
closed = 1;
nodes = (
(97,-169,l),
(134,-203,o),
(175,-222,o),
(234,-222,cs),
(354,-222,o),
(432,-151,o),
(461,-14,cs),
(498,158,l),
(378,158,l),
(344,0,ls),
(329,-73,o),
(292,-112,o),
(231,-112,cs),
(203,-112,o),
(178,-103,o),
(155,-80,c),
(208,-36,l),
(97,-225,l)
);
},
{
ref = N;
}
);
width = 580;
},
{
associatedMasterId = "B9B856C8-1FA2-46F4-A929-F36A99765E59";
background = {
anchors = (
{
name = bottom;
pos = (240,0);
},
{
name = top;
pos = (378,650);
}
);
shapes = (
{
closed = 1;
nodes = (
(120,-172,l),
(154,-206,o),
(193,-222,o),
(245,-222,cs),
(351,-222,o),
(422,-157,o),
(448,-33,cs),
(472,78,l),
(398,78,l),
(377,-18,ls),
(357,-114,o),
(323,-151,o),
(259,-151,cs),
(217,-151,o),
(187,-135,o),
(161,-104,c),
(217,-66,l),
(110,-247,l)
);
},
{
closed = 1;
nodes = (
(460,21,l),
(455,0,l),
(257,650,l),
(181,650,l),
(379,0,l)
);
},
{
closed = 1;
nodes = (
(95,0,l),
(233,650,l),
(163,650,l),
(25,0,l)
);
},
{
closed = 1;
nodes = (
(455,0,l),
(593,650,l),
(523,650,l),
(391,28,l),
(379,0,l)
);
}
);
};
layerId = "A67E8D2D-01CE-4A12-90AF-AA4E66A20AE6";
name = cursify;
shapes = (
{
closed = 1;
nodes = (
(123,-170,l),
(157,-204,o),
(196,-222,o),
(251,-222,cs),
(354,-222,o),
(421,-160,o),
(447,-36,cs),
(472,78,l),
(398,78,l),
(378,-15,ls),
(357,-111,o),
(320,-151,o),
(253,-151,cs),
(214,-151,o),
(185,-137,o),
(158,-106,c),
(217,-66,l),
(109,-247,l)
);
},
{
ref = N;
}
);
width = 580;
}
);
unicode = 330;
},
{
color = 0;
glyphname = O;
layers = (
{
anchors = (
{
name = bottom;
pos = (240,0);
},
{
name = center;
pos = (309,325);
},
{
name = ogonek;
pos = (482,10);
},
{
name = top;
pos = (378,650);
},
{
name = topleft;
pos = (98,650);
},
{
name = topright;
pos = (658,650);
}
);
background = {
anchors = (
{
name = bottom;
pos = (240,0);
},
{
name = center;
pos = (309,325);
},
{
name = ogonek;
pos = (482,10);
},
{
name = top;
pos = (378,650);
},
{
name = topleft;
pos = (98,650);
},
{
name = topright;
pos = (658,650);
}
);
shapes = (
{
closed = 1;
nodes = (
(399,-16,o),
(504,95,o),
(551,313,cs),
(599,535,o),
(539,654,o),
(377,660,cs),
(219,666,o),
(114,555,o),
(67,337,cs),
(20,115,o),
(79,-4,o),
(241,-10,cs)
);
},
{
closed = 1;
nodes = (
(138,65,o),
(104,152,o),
(141,325,cs),
(179,504,o),
(257,593,o),
(371,589,cs),
(481,585,o),
(515,498,o),
(477,325,cs),
(439,146,o),
(362,57,o),
(247,61,cs)
);
}
);
};
backgroundImage = {
imagePath = "/Users/markku/Documents/projects/SomeOthertype-Mono/SomeOthertype-Mono/sources/scan-image/scan2017-1-CO.png";
pos = (-271.914,-327);
scale = (8.6274,8.6274);
slant = (23.031,0);
};
layerId = "B9B856C8-1FA2-46F4-A929-F36A99765E59";
shapes = (
{
closed = 1;
nodes = (
(481,-12,o),
(567,264,o),
(567,446,cs),
(567,588,o),
(499,662,o),
(365,662,cs),
(137,662,o),
(51,386,o),
(51,204,cs),
(51,62,o),
(119,-12,o),
(253,-12,cs)
);
},
{
closed = 1;
nodes = (
(169,59,o),
(126,108,o),
(126,208,cs),
(126,347,o),
(190,591,o),
(364,591,cs),
(449,591,o),
(492,542,o),
(492,442,cs),
(492,303,o),
(428,59,o),
(254,59,cs)
);
}
);
width = 580;
},
{
anchors = (
{
name = bottom;
pos = (240,0);
},
{
name = center;
pos = (309,325);
},
{
name = ogonek;
pos = (482,10);
},
{
name = top;
pos = (378,650);
},
{
name = topleft;
pos = (98,650);
},
{
name = topright;
pos = (658,650);
}
);
associatedMasterId = "B9B856C8-1FA2-46F4-A929-F36A99765E59";
background = {
anchors = (
{
name = bottom;
pos = (240,0);
},
{
name = center;
pos = (309,325);
},
{
name = ogonek;
pos = (482,10);
},
{
name = top;
pos = (378,650);
},
{
name = topleft;
pos = (98,650);
},
{
name = topright;
pos = (658,650);
}
);
shapes = (
{
closed = 1;
nodes = (
(400,-12,o),
(504,100,o),
(551,319,cs),
(599,544,o),
(538,662,o),
(375,662,cs),
(218,662,o),
(114,550,o),
(67,331,cs),
(20,106,o),
(80,-12,o),
(243,-12,cs)
);
},
{
closed = 1;
nodes = (
(138,59,o),
(104,144,o),
(141,319,cs),
(179,500,o),
(257,591,o),
(371,591,cs),
(481,591,o),
(515,506,o),
(477,331,cs),
(439,150,o),
(362,59,o),
(247,59,cs)
);
}
);
};
backgroundImage = {
imagePath = "/Users/markku/Documents/projects/SomeOthertype-Mono/SomeOthertype-Mono/sources/scan-image/scan2017-1-CO.png";
pos = (-271.914,-327);
scale = (8.6274,8.6274);
slant = (23.031,0);
};
layerId = "41FA0189-5E4B-43D4-8503-1DC8662BD953";
name = slanted;
shapes = (
{
closed = 1;
nodes = (
(397,-12,o),
(505,103,o),
(552,325,cs),
(599,547,o),
(541,662,o),
(381,662,cs),
(221,662,o),
(113,547,o),
(66,325,cs),
(19,103,o),
(77,-12,o),
(237,-12,cs)
);
},
{
closed = 1;
nodes = (
(141,59,o),
(104,147,o),
(142,325,cs),
(180,503,o),
(254,591,o),
(366,591,cs),
(478,591,o),
(514,503,o),
(476,325,cs),
(438,147,o),
(365,59,o),
(253,59,cs)
);
}
);
width = 580;
},
{
anchors = (
{
name = bottom;
pos = (240,0);
},
{
name = center;
pos = (309,325);
},
{
name = ogonek;
pos = (482,10);
},
{
name = top;
pos = (378,650);
},
{
name = topleft;
pos = (98,650);
},
{
name = topright;
pos = (658,650);
}
);
associatedMasterId = "B9B856C8-1FA2-46F4-A929-F36A99765E59";
background = {
anchors = (
{
name = bottom;
pos = (240,0);
},
{
name = center;
pos = (309,325);
},
{
name = ogonek;
pos = (482,10);
},
{
name = top;
pos = (378,650);
},
{
name = topleft;
pos = (98,650);
},
{
name = topright;
pos = (658,650);
}
);
shapes = (
{
closed = 1;
nodes = (
(397,-12,o),
(505,103,o),
(552,325,cs),
(599,547,o),
(541,662,o),
(381,662,cs),
(221,662,o),
(113,547,o),
(66,325,cs),
(19,103,o),
(77,-12,o),
(237,-12,cs)
);
},
{
closed = 1;
nodes = (
(141,59,o),
(104,147,o),
(142,325,cs),
(180,503,o),
(254,591,o),
(366,591,cs),
(478,591,o),
(514,503,o),
(476,325,cs),
(438,147,o),
(365,59,o),
(253,59,cs)
);
}
);
};
backgroundImage = {
imagePath = "/Users/markku/Documents/projects/SomeOthertype-Mono/SomeOthertype-Mono/sources/scan-image/scan2017-1-CO.png";
pos = (-271.914,-327);
scale = (8.6274,8.6274);
slant = (23.031,0);
};
layerId = "764E917C-2421-4259-AD1F-2E3B172A03B7";
name = cursify;
shapes = (
{
closed = 1;
nodes = (
(400,-12,o),
(504,100,o),
(551,319,cs),
(599,544,o),
(538,662,o),
(375,662,cs),
(218,662,o),
(114,550,o),
(67,331,cs),
(20,106,o),
(80,-12,o),
(243,-12,cs)
);
},
{
closed = 1;
nodes = (
(138,59,o),
(104,144,o),
(141,319,cs),
(179,500,o),
(257,591,o),
(371,591,cs),
(481,591,o),
(515,506,o),
(477,331,cs),
(439,150,o),
(362,59,o),
(247,59,cs)
);
}
);
width = 580;
},
{
anchors = (
{
name = bottom;
pos = (239,0);
},
{
name = center;
pos = (308,325);
},
{
name = ogonek;
pos = (482,10);
},
{
name = top;
pos = (378,650);
},
{
name = topleft;
pos = (98,650);
},
{
name = topright;
pos = (658,650);
}
);
background = {
anchors = (
{
name = bottom;
pos = (239,0);
},
{
name = center;
pos = (308,325);
},
{
name = ogonek;
pos = (482,10);
},
{
name = top;
pos = (378,650);
},
{
name = topleft;
pos = (98,650);
},
{
name = topright;
pos = (658,650);
}
);
shapes = (
{
closed = 1;
nodes = (
(405,-16,o),
(513,93,o),
(559,313,cs),
(608,535,o),
(544,654,o),
(376,660,cs),
(212,666,o),
(104,557,o),
(57,337,cs),
(9,115,o),
(73,-4,o),
(241,-10,cs)
);
},
{
closed = 1;
nodes = (
(171,104,o),
(145,177,o),
(177,322,cs),
(210,477,o),
(272,552,o),
(362,548,cs),
(446,546,o),
(472,473,o),
(440,328,cs),
(407,173,o),
(345,98,o),
(255,102,cs)
);
}
);
};
backgroundImage = {
imagePath = "/Users/markku/Documents/projects/SomeOthertype-Mono/SomeOthertype-Mono/sources/scan-image/scan2017-1-CO.png";
pos = (-1094.512,-276);
scale = (7.3967,7.3967);
slant = (65.1038,0);
};
layerId = "27302DAC-E04E-41A7-B2D2-BD8305143A0A";
shapes = (
{
closed = 1;
nodes = (
(487,-12,o),
(574,255,o),
(574,443,cs),
(574,588,o),
(503,662,o),
(362,662,cs),
(129,662,o),
(42,395,o),
(42,208,cs),
(42,62,o),
(113,-12,o),
(254,-12,cs)
);
},
{
closed = 1;
nodes = (
(196,100,o),
(164,138,o),
(164,218,cs),
(164,327,o),
(215,550,o),
(354,550,cs),
(420,550,o),
(452,512,o),
(452,431,cs),
(452,323,o),
(401,100,o),
(262,100,cs)
);
}
);
width = 580;
},
{
anchors = (
{
name = bottom;
pos = (239,0);
},
{
name = center;
pos = (308,325);
},
{
name = ogonek;
pos = (482,10);
},
{
name = top;
pos = (378,650);
},
{
name = topleft;
pos = (98,650);
},
{
name = topright;
pos = (658,650);
}
);
associatedMasterId = "27302DAC-E04E-41A7-B2D2-BD8305143A0A";
background = {
anchors = (
{
name = bottom;
pos = (239,0);
},
{
name = center;
pos = (308,325);
},
{
name = ogonek;
pos = (482,10);
},
{
name = top;
pos = (378,650);
},
{
name = topleft;
pos = (98,650);
},
{
name = topright;
pos = (658,650);
}
);
shapes = (
{
closed = 1;
nodes = (
(407,-12,o),
(512,98,o),
(558,315,cs),
(607,542,o),
(542,662,o),
(371,662,cs),
(210,662,o),
(105,552,o),
(59,335,cs),
(10,108,o),
(75,-12,o),
(246,-12,cs)
);
},
{
closed = 1;
nodes = (
(169,100,o),
(145,169,o),
(176,315,cs),
(210,471,o),
(274,550,o),
(365,550,cs),
(448,550,o),
(472,481,o),
(441,335,cs),
(407,179,o),
(343,100,o),
(252,100,cs)
);
}
);
};
backgroundImage = {
imagePath = "/Users/markku/Documents/projects/SomeOthertype-Mono/SomeOthertype-Mono/sources/scan-image/scan2017-1-CO.png";
pos = (-985.258,-276);
scale = (7.3967,7.3967);
slant = (62.7562,0);
};
layerId = "FB57FBD3-F82A-49F0-95D1-0E985F7CCC75";
name = slanted;
shapes = (
{
closed = 1;
nodes = (
(403,-12,o),
(513,103,o),
(560,325,cs),
(608,547,o),
(546,662,o),
(380,662,cs),
(214,662,o),
(104,547,o),
(56,325,cs),
(9,103,o),
(71,-12,o),
(237,-12,cs)
);
},
{
closed = 1;
nodes = (
(174,100,o),
(146,174,o),
(178,325,cs),
(211,476,o),
(269,550,o),
(356,550,cs),
(443,550,o),
(471,476,o),
(438,325,cs),
(406,174,o),
(348,100,o),
(261,100,cs)
);
}
);
width = 580;
},
{
anchors = (
{
name = bottom;
pos = (239,0);
},
{
name = center;
pos = (308,325);
},
{
name = ogonek;
pos = (482,10);
},
{
name = top;
pos = (378,650);
},
{
name = topleft;
pos = (98,650);
},
{
name = topright;
pos = (658,650);
}
);
associatedMasterId = "27302DAC-E04E-41A7-B2D2-BD8305143A0A";
background = {
anchors = (
{
name = bottom;
pos = (239,0);
},
{
name = center;
pos = (308,325);
},
{
name = ogonek;
pos = (482,10);
},
{
name = top;
pos = (378,650);
},
{
name = topleft;
pos = (98,650);
},
{
name = topright;
pos = (658,650);
}
);
shapes = (
{
closed = 1;
nodes = (
(403,-12,o),
(513,103,o),
(560,325,cs),
(608,547,o),
(546,662,o),
(380,662,cs),
(214,662,o),
(104,547,o),
(56,325,cs),
(9,103,o),
(71,-12,o),
(237,-12,cs)
);
},
{
closed = 1;
nodes = (
(174,100,o),
(146,174,o),
(178,325,cs),
(211,476,o),
(269,550,o),
(356,550,cs),
(443,550,o),
(471,476,o),
(438,325,cs),
(406,174,o),
(348,100,o),
(261,100,cs)
);
}
);
};
backgroundImage = {
imagePath = "/Users/markku/Documents/projects/SomeOthertype-Mono/SomeOthertype-Mono/sources/scan-image/scan2017-1-CO.png";
pos = (-985.258,-276);
scale = (7.3967,7.3967);
slant = (62.7562,0);
};
layerId = "01A7A0E4-0AF1-48CB-97ED-288FB7FC0E45";
name = cursify;
shapes = (
{
closed = 1;
nodes = (
(407,-12,o),
(512,98,o),
(558,315,cs),
(607,542,o),
(542,662,o),
(371,662,cs),
(210,662,o),
(105,552,o),
(59,335,cs),
(10,108,o),
(75,-12,o),
(246,-12,cs)
);
},
{
closed = 1;
nodes = (
(169,100,o),
(145,169,o),
(176,315,cs),
(210,471,o),
(274,550,o),
(365,550,cs),
(448,550,o),
(472,481,o),
(441,335,cs),
(407,179,o),
(343,100,o),
(252,100,cs)
);
}
);
width = 580;
}
);
unicode = 79;
},
{
color = 0;
glyphname = OE;
layers = (
{
anchors = (
{
name = bottom;
pos = (238,0);
},
{
name = top;
pos = (377,650);
}
);
background = {
anchors = (
{
name = bottom;
pos = (238,0);
},
{
name = top;
pos = (377,650);
}
);
shapes = (
{
closed = 1;
nodes = (
(233,0,l),
(255,100,l),
(237,100,ls),
(160,100,o),
(115,147,o),
(149,325,cs),
(184,503,o),
(247,550,o),
(324,550,cs),
(350,550,l),
(372,650,l),
(334,650,ls),
(180,650,o),
(82,543,o),
(42,335,cs),
(-1,117,o),
(62,0,o),
(213,0,cs)
);
},
{
closed = 1;
nodes = (
(512,0,l),
(534,100,l),
(343,100,l),
(321,0,l)
);
},
{
closed = 1;
nodes = (
(331,0,l),
(470,650,l),
(362,650,l),
(223,0,l)
);
},
{
closed = 1;
nodes = (
(543,281,l),
(564,381,l),
(402,381,l),
(381,281,l)
);
},
{
closed = 1;
nodes = (
(629,550,l),
(651,650,l),
(460,650,l),
(438,550,l)
);
}
);
};
layerId = "27302DAC-E04E-41A7-B2D2-BD8305143A0A";
shapes = (
{
closed = 1;
nodes = (
(512,0,l),
(534,100,l),
(352,100,l),
(391,281,l),
(543,281,l),
(564,381,l),
(412,381,l),
(449,550,l),
(629,550,l),
(651,650,l),
(334,650,ls),
(106,650,o),
(29,396,o),
(29,213,cs),
(29,73,o),
(93,0,o),
(213,0,cs)
);
},
{
closed = 1;
nodes = (
(169,100,o),
(138,138,o),
(138,222,cs),
(138,351,o),
(184,550,o),
(324,550,cs),
(341,550,l),
(244,100,l),
(237,100,ls)
);
}
);
width = 580;
},
{
anchors = (
{
name = bottom;
pos = (240,0);
},
{
name = top;
pos = (378,650);
}
);
background = {
anchors = (
{
name = bottom;
pos = (240,0);
},
{
name = top;
pos = (378,650);
}
);
shapes = (
{
closed = 1;
nodes = (
(248,0,l),
(263,69,l),
(234,69,ls),
(135,69,o),
(87,132,o),
(125,322,cs),
(163,516,o),
(238,581,o),
(337,581,cs),
(372,581,l),
(386,650,l),
(339,650,ls),
(190,650,o),
(92,543,o),
(51,331,cs),
(9,113,o),
(68,0,o),
(215,0,cs)
);
},
{
closed = 1;
nodes = (
(510,0,l),
(525,69,l),
(315,69,l),
(300,0,l)
);
},
{
closed = 1;
nodes = (
(310,0,l),
(448,650,l),
(376,650,l),
(238,0,l)
);
},
{
closed = 1;
nodes = (
(544,297,l),
(559,365,l),
(378,365,l),
(363,297,l)
);
},
{
closed = 1;
nodes = (
(634,581,l),
(648,650,l),
(438,650,l),
(424,581,l)
);
}
);
};
layerId = "B9B856C8-1FA2-46F4-A929-F36A99765E59";
shapes = (
{
closed = 1;
nodes = (
(510,0,l),
(525,69,l),
(325,69,l),
(373,297,l),
(544,297,l),
(559,365,l),
(387,365,l),
(433,581,l),
(634,581,l),
(648,650,l),
(339,650,ls),
(115,650,o),
(38,389,o),
(38,207,cs),
(38,71,o),
(99,0,o),
(215,0,cs)
);
},
{
closed = 1;
nodes = (
(151,69,o),
(112,114,o),
(112,210,cs),
(112,357,o),
(170,581,o),
(337,581,cs),
(361,581,l),
(253,69,l),
(234,69,ls)
);
}
);
width = 580;
},
{
anchors = (
{
name = bottom;
pos = (238,0);
},
{
name = top;
pos = (377,650);
}
);
associatedMasterId = "27302DAC-E04E-41A7-B2D2-BD8305143A0A";
background = {
anchors = (
{
name = bottom;
pos = (238,0);
},
{
name = top;
pos = (377,650);
}
);
shapes = (
{
closed = 1;
nodes = (
(223,0,l),
(245,100,l),
(228,100,ls),
(151,100,o),
(111,142,o),
(147,315,cs),
(186,498,o),
(256,550,o),
(333,550,cs),
(340,550,l),
(362,650,l),
(340,650,ls),
(186,650,o),
(86,543,o),
(42,335,cs),
(-5,117,o),
(56,0,o),
(207,0,cs)
);
},
{
closed = 1;
nodes = (
(512,0,l),
(534,100,l),
(353,100,l),
(331,0,l)
);
},
{
closed = 1;
nodes = (
(331,0,l),
(470,650,l),
(362,650,l),
(223,0,l)
);
},
{
closed = 1;
nodes = (
(543,281,l),
(564,381,l),
(412,381,l),
(391,281,l)
);
},
{
closed = 1;
nodes = (
(629,550,l),
(651,650,l),
(470,650,l),
(448,550,l)
);
}
);
};
layerId = "393A353C-A365-48C7-A0EB-6F635D11302B";
name = slanted;
shapes = (
{
closed = 1;
nodes = (
(223,0,l),
(245,100,l),
(233,100,ls),
(156,100,o),
(112,147,o),
(149,325,cs),
(187,503,o),
(251,550,o),
(328,550,cs),
(340,550,l),
(362,650,l),
(345,650,ls),
(191,650,o),
(85,538,o),
(39,325,cs),
(-6,112,o),
(51,0,o),
(202,0,cs)
);
},
{
closed = 1;
nodes = (
(512,0,l),
(534,100,l),
(353,100,l),
(331,0,l)
);
},
{
closed = 1;
nodes = (
(331,0,l),
(470,650,l),
(362,650,l),
(223,0,l)
);
},
{
closed = 1;
nodes = (
(543,281,l),
(564,381,l),
(412,381,l),
(391,281,l)
);
},
{
closed = 1;
nodes = (
(629,550,l),
(651,650,l),
(470,650,l),
(448,550,l)
);
}
);
width = 580;
},
{
anchors = (
{
name = bottom;
pos = (238,0);
},
{
name = top;
pos = (377,650);
}
);
associatedMasterId = "27302DAC-E04E-41A7-B2D2-BD8305143A0A";
background = {
anchors = (
{
name = bottom;
pos = (238,0);
},
{
name = top;
pos = (377,650);
}
);
shapes = (
{
closed = 1;
nodes = (
(223,0,l),
(245,100,l),
(233,100,ls),
(156,100,o),
(112,147,o),
(149,325,cs),
(187,503,o),
(251,550,o),
(328,550,cs),
(340,550,l),
(362,650,l),
(345,650,ls),
(191,650,o),
(85,538,o),
(39,325,cs),
(-6,112,o),
(51,0,o),
(202,0,cs)
);
},
{
closed = 1;
nodes = (
(512,0,l),
(534,100,l),
(353,100,l),
(331,0,l)
);
},
{
closed = 1;
nodes = (
(331,0,l),
(470,650,l),
(362,650,l),
(223,0,l)
);
},
{
closed = 1;
nodes = (
(543,281,l),
(564,381,l),
(412,381,l),
(391,281,l)
);
},
{
closed = 1;
nodes = (
(629,550,l),
(651,650,l),
(470,650,l),
(448,550,l)
);
}
);
};
layerId = "C808C4BE-A070-4104-B448-ADBB8BE384A6";
name = cursify;
shapes = (
{
closed = 1;
nodes = (
(223,0,l),
(245,100,l),
(228,100,ls),
(151,100,o),
(111,142,o),
(147,315,cs),
(186,498,o),
(256,550,o),
(333,550,cs),
(340,550,l),
(362,650,l),
(340,650,ls),
(186,650,o),
(86,543,o),
(42,335,cs),
(-5,117,o),
(56,0,o),
(207,0,cs)
);
},
{
closed = 1;
nodes = (
(512,0,l),
(534,100,l),
(353,100,l),
(331,0,l)
);
},
{
closed = 1;
nodes = (
(331,0,l),
(470,650,l),
(362,650,l),
(223,0,l)
);
},
{
closed = 1;
nodes = (
(543,281,l),
(564,381,l),
(412,381,l),
(391,281,l)
);
},
{
closed = 1;
nodes = (
(629,550,l),
(651,650,l),
(470,650,l),
(448,550,l)
);
}
);
width = 580;
},
{
anchors = (
{
name = bottom;
pos = (240,0);
},
{
name = top;
pos = (378,650);
}
);
associatedMasterId = "B9B856C8-1FA2-46F4-A929-F36A99765E59";
background = {
anchors = (
{
name = bottom;
pos = (240,0);
},
{
name = top;
pos = (378,650);
}
);
shapes = (
{
closed = 1;
nodes = (
(238,0,l),
(253,69,l),
(228,69,ls),
(129,69,o),
(84,130,o),
(124,319,cs),
(165,514,o),
(243,581,o),
(342,581,cs),
(362,581,l),
(376,650,l),
(345,650,ls),
(196,650,o),
(96,543,o),
(51,331,cs),
(5,113,o),
(62,0,o),
(209,0,cs)
);
},
{
closed = 1;
nodes = (
(510,0,l),
(525,69,l),
(325,69,l),
(310,0,l)
);
},
{
closed = 1;
nodes = (
(310,0,l),
(448,650,l),
(376,650,l),
(238,0,l)
);
},
{
closed = 1;
nodes = (
(544,297,l),
(559,365,l),
(388,365,l),
(373,297,l)
);
},
{
closed = 1;
nodes = (
(634,581,l),
(648,650,l),
(448,650,l),
(434,581,l)
);
}
);
};
layerId = "B3F89A60-E61F-4E07-A014-3778997F67D4";
name = slanted;
shapes = (
{
closed = 1;
nodes = (
(238,0,l),
(253,69,l),
(231,69,ls),
(132,69,o),
(84,133,o),
(125,325,cs),
(166,517,o),
(241,581,o),
(340,581,cs),
(362,581,l),
(376,650,l),
(348,650,ls),
(199,650,o),
(96,540,o),
(50,325,cs),
(4,110,o),
(59,0,o),
(206,0,cs)
);
},
{
closed = 1;
nodes = (
(510,0,l),
(525,69,l),
(325,69,l),
(310,0,l)
);
},
{
closed = 1;
nodes = (
(310,0,l),
(448,650,l),
(376,650,l),
(238,0,l)
);
},
{
closed = 1;
nodes = (
(544,297,l),
(559,365,l),
(388,365,l),
(373,297,l)
);
},
{
closed = 1;
nodes = (
(634,581,l),
(648,650,l),
(448,650,l),
(434,581,l)
);
}
);
width = 580;
},
{
anchors = (
{
name = bottom;
pos = (240,0);
},
{
name = top;
pos = (378,650);
}
);
associatedMasterId = "B9B856C8-1FA2-46F4-A929-F36A99765E59";
background = {
anchors = (
{
name = bottom;
pos = (240,0);
},
{
name = top;
pos = (378,650);
}
);
shapes = (
{
closed = 1;
nodes = (
(238,0,l),
(253,69,l),
(231,69,ls),
(132,69,o),
(84,133,o),
(125,325,cs),
(166,517,o),
(241,581,o),
(340,581,cs),
(362,581,l),
(376,650,l),
(348,650,ls),
(199,650,o),
(96,540,o),
(50,325,cs),
(4,110,o),
(59,0,o),
(206,0,cs)
);
},
{
closed = 1;
nodes = (
(510,0,l),
(525,69,l),
(325,69,l),
(310,0,l)
);
},
{
closed = 1;
nodes = (
(310,0,l),
(448,650,l),
(376,650,l),
(238,0,l)
);
},
{
closed = 1;
nodes = (
(544,297,l),
(559,365,l),
(388,365,l),
(373,297,l)
);
},
{
closed = 1;
nodes = (
(634,581,l),
(648,650,l),
(448,650,l),
(434,581,l)
);
}
);
};
layerId = "D0585C74-8C62-492E-832E-EA5E877EB620";
name = cursify;
shapes = (
{
closed = 1;
nodes = (
(238,0,l),
(253,69,l),
(228,69,ls),
(129,69,o),
(84,130,o),
(124,319,cs),
(165,514,o),
(243,581,o),
(342,581,cs),
(362,581,l),
(376,650,l),
(345,650,ls),
(196,650,o),
(96,543,o),
(51,331,cs),
(5,113,o),
(62,0,o),
(209,0,cs)
);
},
{
closed = 1;
nodes = (
(510,0,l),
(525,69,l),
(325,69,l),
(310,0,l)
);
},
{
closed = 1;
nodes = (
(310,0,l),
(448,650,l),
(376,650,l),
(238,0,l)
);
},
{
closed = 1;
nodes = (
(544,297,l),
(559,365,l),
(388,365,l),
(373,297,l)
);
},
{
closed = 1;
nodes = (
(634,581,l),
(648,650,l),
(448,650,l),
(434,581,l)
);
}
);
width = 580;
}
);
unicode = 338;
},
{
color = 0;
glyphname = P;
layers = (
{
anchors = (
{
name = bottom;
pos = (238,0);
},
{
name = top;
pos = (377,650);
}
);
background = {
anchors = (
{
name = bottom;
pos = (238,0);
},
{
name = top;
pos = (377,650);
}
);
shapes = (
{
closed = 1;
nodes = (
(338,258,ls),
(476,258,o),
(558,321,o),
(582,442,cs),
(608,575,o),
(542,650,o),
(404,650,cs),
(278,650,l),
(254,540,l),
(377,540,ls),
(449,540,o),
(474,515,o),
(462,454,cs),
(450,393,o),
(417,368,o),
(345,368,cs),
(218,368,l),
(194,258,l)
);
},
{
closed = 1;
nodes = (
(149,0,l),
(288,650,l),
(167,650,l),
(28,0,l)
);
}
);
};
layerId = "27302DAC-E04E-41A7-B2D2-BD8305143A0A";
shapes = (
{
closed = 1;
nodes = (
(149,0,l),
(204,258,l),
(338,258,ls),
(496,258,o),
(588,346,o),
(588,496,cs),
(588,595,o),
(522,650,o),
(404,650,cs),
(167,650,l),
(28,0,l)
);
},
{
closed = 1;
nodes = (
(264,540,l),
(377,540,ls),
(439,540,o),
(465,522,o),
(465,480,cs),
(465,405,o),
(425,368,o),
(345,368,cs),
(228,368,l)
);
}
);
width = 580;
},
{
anchors = (
{
name = bottom;
pos = (242,0);
},
{
name = top;
pos = (380,650);
}
);
background = {
anchors = (
{
name = bottom;
pos = (242,0);
},
{
name = top;
pos = (380,650);
}
);
shapes = (
{
closed = 1;
nodes = (
(342,278,ls),
(475,278,o),
(551,337,o),
(574,456,cs),
(599,583,o),
(540,650,o),
(407,650,cs),
(242,650,l),
(227,580,l),
(387,580,ls),
(483,580,o),
(516,546,o),
(500,464,cs),
(483,382,o),
(438,348,o),
(342,348,cs),
(178,348,l),
(163,278,l)
);
},
{
closed = 1;
nodes = (
(114,0,l),
(252,650,l),
(178,650,l),
(40,0,l)
);
}
);
};
layerId = "B9B856C8-1FA2-46F4-A929-F36A99765E59";
shapes = (
{
closed = 1;
nodes = (
(114,0,l),
(173,278,l),
(342,278,ls),
(494,278,o),
(580,361,o),
(580,509,cs),
(580,601,o),
(521,650,o),
(407,650,cs),
(178,650,l),
(40,0,l)
);
},
{
closed = 1;
nodes = (
(237,580,l),
(387,580,ls),
(468,580,o),
(504,555,o),
(504,500,cs),
(504,400,o),
(448,348,o),
(342,348,cs),
(188,348,l)
);
}
);
width = 580;
},
{
anchors = (
{
name = bottom;
pos = (242,0);
},
{
name = top;
pos = (380,650);
}
);
associatedMasterId = "B9B856C8-1FA2-46F4-A929-F36A99765E59";
background = {
anchors = (
{
name = bottom;
pos = (242,0);
},
{
name = top;
pos = (380,650);
}
);
shapes = (
{
closed = 1;
nodes = (
(338,278,ls),
(471,278,o),
(549,338,o),
(574,458,cs),
(601,584,o),
(544,650,o),
(411,650,cs),
(252,650,l),
(237,580,l),
(392,580,ls),
(488,580,o),
(518,549,o),
(501,470,cs),
(483,385,o),
(433,348,o),
(337,348,cs),
(188,348,l),
(173,278,l)
);
},
{
closed = 1;
nodes = (
(114,0,l),
(252,650,l),
(178,650,l),
(40,0,l)
);
}
);
};
layerId = "2CA01B21-E32E-46F0-86D4-B08B9F644F61";
name = slanted;
shapes = (
{
closed = 1;
nodes = (
(335,278,ls),
(468,278,o),
(550,341,o),
(576,464,cs),
(602,587,o),
(547,650,o),
(414,650,cs),
(252,650,l),
(237,580,l),
(389,580,ls),
(485,580,o),
(517,546,o),
(500,464,cs),
(482,382,o),
(436,348,o),
(340,348,cs),
(188,348,l),
(173,278,l)
);
},
{
closed = 1;
nodes = (
(114,0,l),
(252,650,l),
(178,650,l),
(40,0,l)
);
}
);
width = 580;
},
{
anchors = (
{
name = bottom;
pos = (242,0);
},
{
name = top;
pos = (380,650);
}
);
associatedMasterId = "B9B856C8-1FA2-46F4-A929-F36A99765E59";
background = {
anchors = (
{
name = bottom;
pos = (242,0);
},
{
name = top;
pos = (380,650);
}
);
shapes = (
{
closed = 1;
nodes = (
(335,278,ls),
(468,278,o),
(550,341,o),
(576,464,cs),
(602,587,o),
(547,650,o),
(414,650,cs),
(252,650,l),
(237,580,l),
(389,580,ls),
(485,580,o),
(517,546,o),
(500,464,cs),
(482,382,o),
(436,348,o),
(340,348,cs),
(188,348,l),
(173,278,l)
);
},
{
closed = 1;
nodes = (
(114,0,l),
(252,650,l),
(178,650,l),
(40,0,l)
);
}
);
};
layerId = "0C1F12B6-BAE1-4733-8038-AEFA92A5EA6B";
name = cursify;
shapes = (
{
closed = 1;
nodes = (
(338,278,ls),
(471,278,o),
(549,338,o),
(574,458,cs),
(601,584,o),
(544,650,o),
(411,650,cs),
(252,650,l),
(237,580,l),
(392,580,ls),
(488,580,o),
(518,549,o),
(501,470,cs),
(483,385,o),
(433,348,o),
(337,348,cs),
(188,348,l),
(173,278,l)
);
},
{
closed = 1;
nodes = (
(114,0,l),
(252,650,l),
(178,650,l),
(40,0,l)
);
}
);
width = 580;
},
{
anchors = (
{
name = bottom;
pos = (238,0);
},
{
name = top;
pos = (377,650);
}
);
associatedMasterId = "27302DAC-E04E-41A7-B2D2-BD8305143A0A";
background = {
anchors = (
{
name = bottom;
pos = (238,0);
},
{
name = top;
pos = (377,650);
}
);
shapes = (
{
closed = 1;
nodes = (
(334,258,ls),
(472,258,o),
(556,322,o),
(582,444,cs),
(610,576,o),
(546,650,o),
(408,650,cs),
(288,650,l),
(264,540,l),
(384,540,ls),
(456,540,o),
(476,520,o),
(464,464,cs),
(450,398,o),
(410,368,o),
(338,368,cs),
(228,368,l),
(204,258,l)
);
},
{
closed = 1;
nodes = (
(149,0,l),
(288,650,l),
(167,650,l),
(28,0,l)
);
}
);
};
layerId = "50A4596A-9A20-4176-BB05-F8148606EF75";
name = slanted;
shapes = (
{
closed = 1;
nodes = (
(329,258,ls),
(467,258,o),
(557,327,o),
(584,454,cs),
(611,581,o),
(551,650,o),
(413,650,cs),
(288,650,l),
(264,540,l),
(379,540,ls),
(451,540,o),
(475,515,o),
(462,454,cs),
(449,393,o),
(415,368,o),
(343,368,cs),
(228,368,l),
(204,258,l)
);
},
{
closed = 1;
nodes = (
(149,0,l),
(288,650,l),
(167,650,l),
(28,0,l)
);
}
);
width = 580;
},
{
anchors = (
{
name = bottom;
pos = (238,0);
},
{
name = top;
pos = (377,650);
}
);
associatedMasterId = "27302DAC-E04E-41A7-B2D2-BD8305143A0A";
background = {
anchors = (
{
name = bottom;
pos = (238,0);
},
{
name = top;
pos = (377,650);
}
);
shapes = (
{
closed = 1;
nodes = (
(329,258,ls),
(467,258,o),
(557,327,o),
(584,454,cs),
(611,581,o),
(551,650,o),
(413,650,cs),
(288,650,l),
(264,540,l),
(379,540,ls),
(451,540,o),
(475,515,o),
(462,454,cs),
(449,393,o),
(415,368,o),
(343,368,cs),
(228,368,l),
(204,258,l)
);
},
{
closed = 1;
nodes = (
(149,0,l),
(288,650,l),
(167,650,l),
(28,0,l)
);
}
);
};
layerId = "099C1A76-8D31-4B46-8FE3-3A6B992EA295";
name = cursify;
shapes = (
{
closed = 1;
nodes = (
(334,258,ls),
(472,258,o),
(556,322,o),
(582,444,cs),
(610,576,o),
(546,650,o),
(408,650,cs),
(288,650,l),
(264,540,l),
(384,540,ls),
(456,540,o),
(476,520,o),
(464,464,cs),
(450,398,o),
(410,368,o),
(338,368,cs),
(228,368,l),
(204,258,l)
);
},
{
closed = 1;
nodes = (
(149,0,l),
(288,650,l),
(167,650,l),
(28,0,l)
);
}
);
width = 580;
}
);
unicode = 80;
},
{
color = 0;
glyphname = Thorn;
layers = (
{
anchors = (
{
name = bottom;
pos = (238,0);
},
{
name = top;
pos = (377,650);
}
);
background = {
anchors = (
{
name = bottom;
pos = (238,0);
},
{
name = top;
pos = (377,650);
}
);
shapes = (
{
closed = 1;
nodes = (
(149,0,l),
(288,650,l),
(167,650,l),
(28,0,l)
);
},
{
closed = 1;
nodes = (
(314,153,ls),
(452,153,o),
(534,216,o),
(558,337,cs),
(584,470,o),
(518,545,o),
(380,545,cs),
(254,545,l),
(230,435,l),
(353,435,ls),
(425,435,o),
(450,410,o),
(438,349,cs),
(426,288,o),
(393,263,o),
(321,263,cs),
(194,263,l),
(170,153,l)
);
}
);
};
layerId = "27302DAC-E04E-41A7-B2D2-BD8305143A0A";
shapes = (
{
closed = 1;
nodes = (
(149,0,l),
(182,153,l),
(314,153,ls),
(472,153,o),
(564,241,o),
(564,391,cs),
(564,490,o),
(498,545,o),
(380,545,cs),
(266,545,l),
(288,650,l),
(167,650,l),
(28,0,l)
);
},
{
closed = 1;
nodes = (
(242,435,l),
(353,435,ls),
(415,435,o),
(441,417,o),
(441,375,cs),
(441,300,o),
(401,263,o),
(321,263,cs),
(205,263,l)
);
}
);
width = 580;
},
{
anchors = (
{
name = bottom;
pos = (242,0);
},
{
name = top;
pos = (380,650);
}
);
background = {
anchors = (
{
name = bottom;
pos = (242,0);
},
{
name = top;
pos = (380,650);
}
);
shapes = (
{
closed = 1;
nodes = (
(114,0,l),
(252,650,l),
(178,650,l),
(40,0,l)
);
},
{
closed = 1;
nodes = (
(318,165,ls),
(451,165,o),
(527,224,o),
(550,343,cs),
(575,470,o),
(516,537,o),
(383,537,cs),
(218,537,l),
(203,467,l),
(363,467,ls),
(459,467,o),
(492,433,o),
(476,351,cs),
(460,269,o),
(414,235,o),
(318,235,cs),
(154,235,l),
(139,165,l)
);
}
);
};
hints = (
{
horizontal = 1;
origin = (0,12);
target = up;
type = BottomGhost;
},
{
horizontal = 1;
origin = (0,1);
target = (1,8);
type = Stem;
},
{
horizontal = 1;
origin = (1,0);
target = (0,9);
type = Stem;
},
{
origin = (1,4);
target = (0,5);
type = Stem;
},
{
horizontal = 1;
origin = (0,11);
target = down;
type = TopGhost;
}
);
layerId = "B9B856C8-1FA2-46F4-A929-F36A99765E59";
shapes = (
{
closed = 1;
nodes = (
(114,0,l),
(149,165,l),
(318,165,ls),
(470,165,o),
(556,248,o),
(556,396,cs),
(556,488,o),
(497,537,o),
(383,537,cs),
(228,537,l),
(252,650,l),
(178,650,l),
(40,0,l)
);
},
{
closed = 1;
nodes = (
(213,467,l),
(363,467,ls),
(444,467,o),
(480,442,o),
(480,387,cs),
(480,287,o),
(424,235,o),
(318,235,cs),
(164,235,l)
);
}
);
width = 580;
},
{
anchors = (
{
name = bottom;
pos = (238,0);
},
{
name = top;
pos = (377,650);
}
);
associatedMasterId = "27302DAC-E04E-41A7-B2D2-BD8305143A0A";
background = {
anchors = (
{
name = bottom;
pos = (238,0);
},
{
name = top;
pos = (377,650);
}
);
shapes = (
{
closed = 1;
nodes = (
(311,153,ls),
(449,153,o),
(534,217,o),
(559,339,cs),
(588,471,o),
(524,545,o),
(386,545,cs),
(265,545,l),
(242,435,l),
(361,435,ls),
(433,435,o),
(454,415,o),
(442,359,cs),
(428,293,o),
(388,263,o),
(316,263,cs),
(205,263,l),
(182,153,l)
);
},
{
closed = 1;
nodes = (
(149,0,l),
(288,650,l),
(167,650,l),
(28,0,l)
);
}
);
};
layerId = "9A6DB50D-D353-404A-AB05-33701D12D9F5";
name = slanted;
shapes = (
{
closed = 1;
nodes = (
(307,153,ls),
(445,153,o),
(535,222,o),
(562,349,cs),
(589,476,o),
(528,545,o),
(390,545,cs),
(265,545,l),
(242,435,l),
(357,435,ls),
(429,435,o),
(453,410,o),
(440,349,cs),
(427,288,o),
(392,263,o),
(320,263,cs),
(205,263,l),
(182,153,l)
);
},
{
closed = 1;
nodes = (
(149,0,l),
(288,650,l),
(167,650,l),
(28,0,l)
);
}
);
width = 580;
},
{
anchors = (
{
name = bottom;
pos = (238,0);
},
{
name = top;
pos = (377,650);
}
);
associatedMasterId = "27302DAC-E04E-41A7-B2D2-BD8305143A0A";
background = {
anchors = (
{
name = bottom;
pos = (238,0);
},
{
name = top;
pos = (377,650);
}
);
shapes = (
{
closed = 1;
nodes = (
(307,153,ls),
(445,153,o),
(535,222,o),
(562,349,cs),
(589,476,o),
(528,545,o),
(390,545,cs),
(265,545,l),
(242,435,l),
(357,435,ls),
(429,435,o),
(453,410,o),
(440,349,cs),
(427,288,o),
(392,263,o),
(320,263,cs),
(205,263,l),
(182,153,l)
);
},
{
closed = 1;
nodes = (
(149,0,l),
(288,650,l),
(167,650,l),
(28,0,l)
);
}
);
};
layerId = "DAD2B9CA-8208-4C6C-B228-A3C5772F102F";
name = cursify;
shapes = (
{
closed = 1;
nodes = (
(311,153,ls),
(449,153,o),
(534,217,o),
(559,339,cs),
(588,471,o),
(524,545,o),
(386,545,cs),
(265,545,l),
(242,435,l),
(361,435,ls),
(433,435,o),
(454,415,o),
(442,359,cs),
(428,293,o),
(388,263,o),
(316,263,cs),
(205,263,l),
(182,153,l)
);
},
{
closed = 1;
nodes = (
(149,0,l),
(288,650,l),
(167,650,l),
(28,0,l)
);
}
);
width = 580;
},
{
anchors = (
{
name = bottom;
pos = (242,0);
},
{
name = top;
pos = (380,650);
}
);
associatedMasterId = "B9B856C8-1FA2-46F4-A929-F36A99765E59";
background = {
anchors = (
{
name = bottom;
pos = (242,0);
},
{
name = top;
pos = (380,650);
}
);
shapes = (
{
closed = 1;
nodes = (
(314,165,ls),
(448,165,o),
(525,225,o),
(550,345,cs),
(577,471,o),
(521,537,o),
(387,537,cs),
(228,537,l),
(213,467,l),
(368,467,ls),
(464,467,o),
(494,436,o),
(477,357,cs),
(459,272,o),
(409,235,o),
(313,235,cs),
(164,235,l),
(149,165,l)
);
},
{
closed = 1;
nodes = (
(114,0,l),
(252,650,l),
(178,650,l),
(40,0,l)
);
}
);
};
layerId = "B7547377-5584-4EBE-A313-9321CE80457F";
name = slanted;
shapes = (
{
closed = 1;
nodes = (
(311,165,ls),
(445,165,o),
(526,228,o),
(552,351,cs),
(578,474,o),
(524,537,o),
(390,537,cs),
(228,537,l),
(213,467,l),
(365,467,ls),
(461,467,o),
(493,433,o),
(476,351,cs),
(458,269,o),
(412,235,o),
(316,235,cs),
(164,235,l),
(149,165,l)
);
},
{
closed = 1;
nodes = (
(114,0,l),
(252,650,l),
(178,650,l),
(40,0,l)
);
}
);
width = 580;
},
{
anchors = (
{
name = bottom;
pos = (242,0);
},
{
name = top;
pos = (380,650);
}
);
associatedMasterId = "B9B856C8-1FA2-46F4-A929-F36A99765E59";
background = {
anchors = (
{
name = bottom;
pos = (242,0);
},
{
name = top;
pos = (380,650);
}
);
shapes = (
{
closed = 1;
nodes = (
(311,165,ls),
(445,165,o),
(526,228,o),
(552,351,cs),
(578,474,o),
(524,537,o),
(390,537,cs),
(228,537,l),
(213,467,l),
(365,467,ls),
(461,467,o),
(493,433,o),
(476,351,cs),
(458,269,o),
(412,235,o),
(316,235,cs),
(164,235,l),
(149,165,l)
);
},
{
closed = 1;
nodes = (
(114,0,l),
(252,650,l),
(178,650,l),
(40,0,l)
);
}
);
};
layerId = "B9F67DC5-F61A-4C94-A65B-E367CBA05F90";
name = cursify;
shapes = (
{
closed = 1;
nodes = (
(314,165,ls),
(448,165,o),
(525,225,o),
(550,345,cs),
(577,471,o),
(521,537,o),
(387,537,cs),
(228,537,l),
(213,467,l),
(368,467,ls),
(464,467,o),
(494,436,o),
(477,357,cs),
(459,272,o),
(409,235,o),
(313,235,cs),
(164,235,l),
(149,165,l)
);
},
{
closed = 1;
nodes = (
(114,0,l),
(252,650,l),
(178,650,l),
(40,0,l)
);
}
);
width = 580;
}
);
unicode = 222;
},
{
color = 0;
glyphname = Q;
layers = (
{
anchors = (
{
name = bottom;
pos = (249,0);
},
{
name = center;
pos = (308,325);
},
{
name = ogonek;
pos = (482,10);
},
{
name = top;
pos = (388,650);
},
{
name = topleft;
pos = (98,650);
},
{
name = topright;
pos = (658,650);
}
);
background = {
anchors = (
{
name = bottom;
pos = (249,0);
},
{
name = top;
pos = (388,650);
}
);
shapes = (
{
closed = 1;
nodes = (
(407,-222,o),
(462,-207,o),
(531,-160,c),
(496,-190,l),
(447,-53,l),
(491,-65,l),
(445,-95,o),
(402,-112,o),
(359,-112,cs),
(308,-112,o),
(296,-89,o),
(310,-19,cs),
(319,21,l),
(198,21,l),
(190,-16,ls),
(161,-153,o),
(211,-222,o),
(342,-222,cs)
);
},
{
ref = O;
}
);
};
layerId = "27302DAC-E04E-41A7-B2D2-BD8305143A0A";
shapes = (
{
closed = 1;
nodes = (
(399,-222,o),
(444,-210,o),
(494,-183,c),
(459,-83,l),
(422,-103,o),
(392,-112,o),
(359,-112,cs),
(321,-112,o),
(305,-98,o),
(305,-64,cs),
(305,-48,o),
(307,-34,o),
(313,-6,c),
(504,37,o),
(574,272,o),
(574,443,cs),
(574,588,o),
(503,662,o),
(362,662,cs),
(129,662,o),
(42,395,o),
(42,208,cs),
(42,87,o),
(91,13,o),
(193,-7,c),
(185,-45,o),
(182,-63,o),
(182,-84,cs),
(182,-176,o),
(235,-222,o),
(342,-222,cs)
);
},
{
closed = 1;
nodes = (
(196,100,o),
(164,138,o),
(164,218,cs),
(164,327,o),
(215,550,o),
(354,550,cs),
(420,550,o),
(452,512,o),
(452,431,cs),
(452,323,o),
(401,100,o),
(262,100,cs)
);
}
);
width = 580;
},
{
anchors = (
{
name = bottom;
pos = (250,0);
},
{
name = center;
pos = (309,325);
},
{
name = ogonek;
pos = (482,10);
},
{
name = top;
pos = (388,650);
},
{
name = topleft;
pos = (98,650);
},
{
name = topright;
pos = (658,650);
}
);
background = {
anchors = (
{
name = bottom;
pos = (250,0);
},
{
name = top;
pos = (388,650);
}
);
shapes = (
{
closed = 1;
nodes = (
(412,-222,o),
(478,-199,o),
(530,-150,c),
(484,-219,l),
(440,-70,l),
(519,-81,l),
(484,-122,o),
(413,-153,o),
(353,-153,cs),
(288,-153,o),
(265,-114,o),
(283,-30,cs),
(292,16,l),
(218,16,l),
(208,-32,ls),
(183,-152,o),
(233,-222,o),
(346,-222,cs)
);
},
{
ref = O;
}
);
};
hints = (
{
horizontal = 1;
origin = (0,30);
target = (0,6);
type = Stem;
},
{
horizontal = 1;
origin = (0,18);
target = (1,5);
type = Stem;
},
{
horizontal = 1;
origin = (0,24);
target = (1,11);
type = Stem;
},
{
origin = (0,21);
target = (1,2);
type = Stem;
},
{
origin = (0,27);
target = (0,9);
type = Stem;
},
{
origin = (1,8);
target = (0,15);
type = Stem;
}
);
layerId = "B9B856C8-1FA2-46F4-A929-F36A99765E59";
shapes = (
{
closed = 1;
nodes = (
(393,-222,o),
(436,-211,o),
(475,-190,c),
(455,-126,l),
(420,-144,o),
(386,-153,o),
(353,-153,cs),
(302,-153,o),
(277,-129,o),
(277,-79,cs),
(277,-67,o),
(279,-51,o),
(287,-10,c),
(490,17,o),
(567,273,o),
(567,446,cs),
(567,588,o),
(499,662,o),
(365,662,cs),
(137,662,o),
(51,386,o),
(51,204,cs),
(51,79,o),
(104,5,o),
(213,-10,c),
(205,-50,o),
(202,-68,o),
(202,-88,cs),
(202,-175,o),
(252,-222,o),
(346,-222,cs)
);
},
{
closed = 1;
nodes = (
(169,59,o),
(126,108,o),
(126,208,cs),
(126,347,o),
(190,591,o),
(364,591,cs),
(449,591,o),
(492,542,o),
(492,443,cs),
(492,303,o),
(428,59,o),
(254,59,cs)
);
}
);
width = 580;
},
{
anchors = (
{
name = bottom;
pos = (250,0);
},
{
name = top;
pos = (388,650);
}
);
associatedMasterId = "B9B856C8-1FA2-46F4-A929-F36A99765E59";
background = {
anchors = (
{
name = bottom;
pos = (250,0);
},
{
name = center;
pos = (309,325);
},
{
name = ogonek;
pos = (482,10);
},
{
name = top;
pos = (388,650);
},
{
name = topleft;
pos = (98,650);
},
{
name = topright;
pos = (658,650);
}
);
shapes = (
{
closed = 1;
nodes = (
(397,-12,o),
(505,103,o),
(552,325,cs),
(599,547,o),
(541,662,o),
(381,662,cs),
(221,662,o),
(113,547,o),
(66,325,cs),
(19,103,o),
(77,-12,o),
(237,-12,cs)
);
},
{
closed = 1;
nodes = (
(141,59,o),
(104,147,o),
(142,325,cs),
(180,503,o),
(254,591,o),
(366,591,cs),
(478,591,o),
(514,503,o),
(476,325,cs),
(438,147,o),
(365,59,o),
(253,59,cs)
);
},
{
closed = 1;
nodes = (
(412,-222,o),
(478,-197,o),
(530,-149,c),
(471,-222,l),
(457,-67,l),
(519,-82,l),
(484,-122,o),
(413,-153,o),
(353,-153,cs),
(288,-153,o),
(265,-114,o),
(283,-30,cs),
(292,16,l),
(218,16,l),
(208,-32,ls),
(183,-152,o),
(233,-222,o),
(346,-222,cs)
);
}
);
};
layerId = "270F0433-93CB-40BB-9833-6E0F1D7AF777";
name = slanted;
shapes = (
{
closed = 1;
nodes = (
(409,-222,o),
(477,-195,o),
(529,-147,c),
(473,-222,l),
(458,-67,l),
(520,-84,l),
(485,-124,o),
(416,-153,o),
(359,-153,cs),
(291,-153,o),
(265,-111,o),
(283,-27,cs),
(292,16,l),
(218,16,l),
(208,-35,ls),
(182,-155,o),
(230,-222,o),
(340,-222,cs)
);
},
{
ref = O;
}
);
width = 580;
},
{
anchors = (
{
name = bottom;
pos = (250,0);
},
{
name = top;
pos = (388,650);
}
);
associatedMasterId = "B9B856C8-1FA2-46F4-A929-F36A99765E59";
background = {
anchors = (
{
name = bottom;
pos = (250,0);
},
{
name = center;
pos = (309,325);
},
{
name = ogonek;
pos = (482,10);
},
{
name = top;
pos = (388,650);
},
{
name = topleft;
pos = (98,650);
},
{
name = topright;
pos = (658,650);
}
);
shapes = (
{
closed = 1;
nodes = (
(409,-222,o),
(477,-195,o),
(529,-147,c),
(473,-222,l),
(458,-67,l),
(520,-84,l),
(485,-124,o),
(416,-153,o),
(359,-153,cs),
(291,-153,o),
(265,-111,o),
(283,-27,cs),
(292,16,l),
(218,16,l),
(208,-35,ls),
(182,-155,o),
(230,-222,o),
(340,-222,cs)
);
},
{
closed = 1;
nodes = (
(397,-12,o),
(505,103,o),
(552,325,cs),
(599,547,o),
(541,662,o),
(381,662,cs),
(221,662,o),
(113,547,o),
(66,325,cs),
(19,103,o),
(77,-12,o),
(237,-12,cs)
);
},
{
closed = 1;
nodes = (
(141,59,o),
(104,147,o),
(142,325,cs),
(180,503,o),
(254,591,o),
(366,591,cs),
(478,591,o),
(514,503,o),
(476,325,cs),
(438,147,o),
(365,59,o),
(253,59,cs)
);
}
);
};
layerId = "B86AD5DB-3EFA-47A2-A710-BAA82958FFB6";
name = cursify;
shapes = (
{
closed = 1;
nodes = (
(412,-222,o),
(478,-197,o),
(530,-149,c),
(471,-222,l),
(457,-67,l),
(519,-82,l),
(484,-122,o),
(413,-153,o),
(353,-153,cs),
(288,-153,o),
(265,-114,o),
(283,-30,cs),
(292,16,l),
(218,16,l),
(208,-32,ls),
(183,-152,o),
(233,-222,o),
(346,-222,cs)
);
},
{
ref = O;
}
);
width = 580;
},
{
anchors = (
{
name = bottom;
pos = (249,0);
},
{
name = top;
pos = (388,650);
}
);
associatedMasterId = "27302DAC-E04E-41A7-B2D2-BD8305143A0A";
background = {
anchors = (
{
name = bottom;
pos = (249,0);
},
{
name = center;
pos = (308,325);
},
{
name = ogonek;
pos = (482,10);
},
{
name = top;
pos = (388,650);
},
{
name = topleft;
pos = (98,650);
},
{
name = topright;
pos = (658,650);
}
);
shapes = (
{
closed = 1;
nodes = (
(403,-12,o),
(513,103,o),
(560,325,cs),
(608,547,o),
(546,662,o),
(380,662,cs),
(214,662,o),
(104,547,o),
(56,325,cs),
(9,103,o),
(71,-12,o),
(237,-12,cs)
);
},
{
closed = 1;
nodes = (
(174,100,o),
(146,174,o),
(178,325,cs),
(211,476,o),
(269,550,o),
(356,550,cs),
(443,550,o),
(471,476,o),
(438,325,cs),
(406,174,o),
(348,100,o),
(261,100,cs)
);
},
{
closed = 1;
nodes = (
(407,-222,o),
(461,-206,o),
(530,-159,c),
(483,-192,l),
(462,-49,l),
(491,-66,l),
(445,-95,o),
(402,-112,o),
(359,-112,cs),
(308,-112,o),
(296,-89,o),
(310,-19,cs),
(319,21,l),
(198,21,l),
(190,-16,ls),
(161,-153,o),
(211,-222,o),
(342,-222,cs)
);
}
);
};
layerId = "86E3DF4D-C455-4DA5-A53B-08E52DECC35B";
name = slanted;
shapes = (
{
closed = 1;
nodes = (
(402,-222,o),
(458,-203,o),
(527,-156,c),
(486,-192,l),
(462,-49,l),
(493,-69,l),
(448,-98,o),
(407,-112,o),
(368,-112,cs),
(313,-112,o),
(297,-84,o),
(311,-14,cs),
(319,21,l),
(198,21,l),
(189,-21,ls),
(160,-158,o),
(206,-222,o),
(333,-222,cs)
);
},
{
ref = O;
}
);
width = 580;
},
{
anchors = (
{
name = bottom;
pos = (249,0);
},
{
name = top;
pos = (388,650);
}
);
associatedMasterId = "27302DAC-E04E-41A7-B2D2-BD8305143A0A";
background = {
anchors = (
{
name = bottom;
pos = (249,0);
},
{
name = center;
pos = (308,325);
},
{
name = ogonek;
pos = (482,10);
},
{
name = top;
pos = (388,650);
},
{
name = topleft;
pos = (98,650);
},
{
name = topright;
pos = (658,650);
}
);
shapes = (
{
closed = 1;
nodes = (
(402,-222,o),
(458,-203,o),
(527,-156,c),
(486,-192,l),
(462,-49,l),
(493,-69,l),
(448,-98,o),
(407,-112,o),
(368,-112,cs),
(313,-112,o),
(297,-84,o),
(311,-14,cs),
(319,21,l),
(198,21,l),
(189,-21,ls),
(160,-158,o),
(206,-222,o),
(333,-222,cs)
);
},
{
closed = 1;
nodes = (
(403,-12,o),
(513,103,o),
(560,325,cs),
(608,547,o),
(546,662,o),
(380,662,cs),
(214,662,o),
(104,547,o),
(56,325,cs),
(9,103,o),
(71,-12,o),
(237,-12,cs)
);
},
{
closed = 1;
nodes = (
(174,100,o),
(146,174,o),
(178,325,cs),
(211,476,o),
(269,550,o),
(356,550,cs),
(443,550,o),
(471,476,o),
(438,325,cs),
(406,174,o),
(348,100,o),
(261,100,cs)
);
}
);
};
layerId = "7C18FEC7-22F9-4E81-BCF2-46B96B7E3946";
name = cursify;
shapes = (
{
closed = 1;
nodes = (
(407,-222,o),
(461,-206,o),
(530,-159,c),
(483,-192,l),
(462,-49,l),
(491,-66,l),
(445,-95,o),
(402,-112,o),
(359,-112,cs),
(308,-112,o),
(296,-89,o),
(310,-19,cs),
(319,21,l),
(198,21,l),
(190,-16,ls),
(161,-153,o),
(211,-222,o),
(342,-222,cs)
);
},
{
ref = O;
}
);
width = 580;
}
);
unicode = 81;
},
{
color = 0;
glyphname = R;
layers = (
{
anchors = (
{
name = bottom;
pos = (250,0);
},
{
name = top;
pos = (359,650);
}
);
background = {
anchors = (
{
name = bottom;
pos = (250,0);
},
{
name = top;
pos = (359,650);
}
);
shapes = (
{
closed = 1;
nodes = (
(320,260,ls),
(458,260,o),
(539,323,o),
(563,443,cs),
(589,575,o),
(522,650,o),
(386,650,cs),
(270,650,l),
(246,540,l),
(360,540,ls),
(430,540,o),
(455,515,o),
(443,455,cs),
(431,395,o),
(398,370,o),
(326,370,cs),
(210,370,l),
(187,260,l)
);
},
{
closed = 1;
nodes = (
(141,0,l),
(280,650,l),
(159,650,l),
(20,0,l)
);
},
{
closed = 1;
nodes = (
(502,0,l),
(374,345,l),
(229,293,l),
(248,345,l),
(371,0,l)
);
}
);
};
backgroundImage = {
imagePath = "/Users/markku/Documents/projects/SomeOthertype-Mono/SomeOthertype-Mono/sources/scan-image/scan2017-1-CR.png";
pos = (-811.023,-292);
scale = (7.2622,7.2622);
slant = (56.6077,0);
};
layerId = "27302DAC-E04E-41A7-B2D2-BD8305143A0A";
shapes = (
{
closed = 1;
nodes = (
(141,0,l),
(197,260,l),
(279,260,l),
(372,0,l),
(502,0,l),
(402,269,l),
(509,295,o),
(569,377,o),
(569,496,cs),
(569,595,o),
(503,650,o),
(386,650,cs),
(159,650,l),
(20,0,l)
);
},
{
closed = 1;
nodes = (
(256,540,l),
(360,540,ls),
(419,540,o),
(446,522,o),
(446,481,cs),
(446,408,o),
(405,370,o),
(326,370,cs),
(220,370,l)
);
}
);
width = 580;
},
{
anchors = (
{
name = bottom;
pos = (251,0);
},
{
name = top;
pos = (364,650);
}
);
background = {
anchors = (
{
name = bottom;
pos = (251,0);
},
{
name = top;
pos = (364,650);
}
);
shapes = (
{
closed = 1;
nodes = (
(336,288,ls),
(466,288,o),
(540,345,o),
(562,462,cs),
(587,585,o),
(529,650,o),
(399,650,cs),
(239,650,l),
(224,580,l),
(380,580,ls),
(472,580,o),
(503,547,o),
(488,469,cs),
(472,391,o),
(429,358,o),
(337,358,cs),
(177,358,l),
(162,288,l)
);
},
{
closed = 1;
nodes = (
(111,0,l),
(249,650,l),
(175,650,l),
(37,0,l)
);
},
{
closed = 1;
nodes = (
(482,0,l),
(354,334,l),
(226,311,l),
(275,333,l),
(401,0,l)
);
}
);
};
backgroundImage = {
imagePath = "/Users/markku/Documents/projects/SomeOthertype-Mono/SomeOthertype-Mono/sources/scan-image/scan2017-1-CR.png";
pos = (-249.035,-292);
scale = (7.8431,7.8431);
slant = (23.031,0);
};
layerId = "B9B856C8-1FA2-46F4-A929-F36A99765E59";
shapes = (
{
closed = 1;
nodes = (
(111,0,l),
(172,288,l),
(293,288,l),
(402,0,l),
(482,0,l),
(371,290,l),
(497,301,o),
(568,382,o),
(568,514,cs),
(568,602,o),
(509,650,o),
(399,650,cs),
(175,650,l),
(37,0,l)
);
},
{
closed = 1;
nodes = (
(234,580,l),
(380,580,ls),
(457,580,o),
(492,556,o),
(492,503,cs),
(492,407,o),
(439,358,o),
(337,358,cs),
(187,358,l)
);
}
);
width = 580;
},
{
anchors = (
{
name = bottom;
pos = (251,0);
},
{
name = top;
pos = (364,650);
}
);
associatedMasterId = "B9B856C8-1FA2-46F4-A929-F36A99765E59";
background = {
anchors = (
{
name = bottom;
pos = (251,0);
},
{
name = top;
pos = (364,650);
}
);
shapes = (
{
closed = 1;
nodes = (
(332,288,ls),
(462,288,o),
(538,346,o),
(562,463,cs),
(589,586,o),
(533,650,o),
(403,650,cs),
(249,650,l),
(234,580,l),
(385,580,ls),
(477,580,o),
(505,550,o),
(489,475,cs),
(472,394,o),
(424,358,o),
(332,358,cs),
(187,358,l),
(172,288,l)
);
},
{
closed = 1;
nodes = (
(111,0,l),
(249,650,l),
(175,650,l),
(37,0,l)
);
},
{
closed = 1;
nodes = (
(482,0,l),
(354,334,l),
(226,311,l),
(272,333,l),
(398,0,l)
);
}
);
};
backgroundImage = {
imagePath = "/Users/markku/Documents/projects/SomeOthertype-Mono/SomeOthertype-Mono/sources/scan-image/scan2017-1-CR.png";
pos = (-249.035,-292);
scale = (7.8431,7.8431);
slant = (23.031,0);
};
layerId = "72FB3953-1826-4424-A78A-32F95E86FFCB";
name = slanted;
shapes = (
{
closed = 1;
nodes = (
(329,288,ls),
(459,288,o),
(538,349,o),
(564,469,cs),
(589,589,o),
(536,650,o),
(406,650,cs),
(249,650,l),
(234,580,l),
(382,580,ls),
(474,580,o),
(504,547,o),
(488,469,cs),
(471,391,o),
(427,358,o),
(335,358,cs),
(187,358,l),
(172,288,l)
);
},
{
closed = 1;
nodes = (
(111,0,l),
(249,650,l),
(175,650,l),
(37,0,l)
);
},
{
closed = 1;
nodes = (
(483,0,l),
(355,334,l),
(225,311,l),
(271,333,l),
(397,0,l)
);
}
);
width = 580;
},
{
anchors = (
{
name = bottom;
pos = (251,0);
},
{
name = top;
pos = (364,650);
}
);
associatedMasterId = "B9B856C8-1FA2-46F4-A929-F36A99765E59";
background = {
anchors = (
{
name = bottom;
pos = (251,0);
},
{
name = top;
pos = (364,650);
}
);
shapes = (
{
closed = 1;
nodes = (
(329,288,ls),
(459,288,o),
(538,349,o),
(564,469,cs),
(589,589,o),
(536,650,o),
(406,650,cs),
(249,650,l),
(234,580,l),
(382,580,ls),
(474,580,o),
(504,547,o),
(488,469,cs),
(471,391,o),
(427,358,o),
(335,358,cs),
(187,358,l),
(172,288,l)
);
},
{
closed = 1;
nodes = (
(111,0,l),
(249,650,l),
(175,650,l),
(37,0,l)
);
},
{
closed = 1;
nodes = (
(483,0,l),
(355,334,l),
(225,311,l),
(271,333,l),
(397,0,l)
);
}
);
};
backgroundImage = {
imagePath = "/Users/markku/Documents/projects/SomeOthertype-Mono/SomeOthertype-Mono/sources/scan-image/scan2017-1-CR.png";
pos = (-249.035,-292);
scale = (7.8431,7.8431);
slant = (23.031,0);
};
layerId = "24A35BCC-B6D3-4847-8193-69C4B55CA71E";
name = cursify;
shapes = (
{
closed = 1;
nodes = (
(332,288,ls),
(462,288,o),
(538,346,o),
(562,463,cs),
(589,586,o),
(533,650,o),
(403,650,cs),
(249,650,l),
(234,580,l),
(385,580,ls),
(477,580,o),
(505,550,o),
(489,475,cs),
(472,394,o),
(424,358,o),
(332,358,cs),
(187,358,l),
(172,288,l)
);
},
{
closed = 1;
nodes = (
(111,0,l),
(249,650,l),
(175,650,l),
(37,0,l)
);
},
{
closed = 1;
nodes = (
(482,0,l),
(354,334,l),
(226,311,l),
(272,333,l),
(398,0,l)
);
}
);
width = 580;
},
{
anchors = (
{
name = bottom;
pos = (250,0);
},
{
name = top;
pos = (359,650);
}
);
associatedMasterId = "27302DAC-E04E-41A7-B2D2-BD8305143A0A";
background = {
anchors = (
{
name = bottom;
pos = (250,0);
},
{
name = top;
pos = (359,650);
}
);
shapes = (
{
closed = 1;
nodes = (
(316,260,ls),
(453,260,o),
(537,324,o),
(563,445,cs),
(591,576,o),
(527,650,o),
(390,650,cs),
(280,650,l),
(256,540,l),
(366,540,ls),
(437,540,o),
(457,520,o),
(445,465,cs),
(431,400,o),
(392,370,o),
(321,370,cs),
(220,370,l),
(197,260,l)
);
},
{
closed = 1;
nodes = (
(141,0,l),
(280,650,l),
(159,650,l),
(20,0,l)
);
},
{
closed = 1;
nodes = (
(502,0,l),
(374,345,l),
(229,293,l),
(242,345,l),
(365,0,l)
);
}
);
};
backgroundImage = {
imagePath = "/Users/markku/Documents/projects/SomeOthertype-Mono/SomeOthertype-Mono/sources/scan-image/scan2017-1-CR.png";
pos = (-811.023,-292);
scale = (7.2622,7.2622);
slant = (56.6077,0);
};
layerId = "E1B62809-0970-468F-98A2-A70A5325CD6C";
name = slanted;
shapes = (
{
closed = 1;
nodes = (
(312,260,ls),
(449,260,o),
(538,329,o),
(565,455,cs),
(592,581,o),
(532,650,o),
(395,650,cs),
(280,650,l),
(256,540,l),
(361,540,ls),
(432,540,o),
(456,515,o),
(443,455,cs),
(430,395,o),
(396,370,o),
(325,370,cs),
(220,370,l),
(197,260,l)
);
},
{
closed = 1;
nodes = (
(141,0,l),
(280,650,l),
(159,650,l),
(20,0,l)
);
},
{
closed = 1;
nodes = (
(503,0,l),
(377,345,l),
(230,293,l),
(241,345,l),
(363,0,l)
);
}
);
width = 580;
},
{
anchors = (
{
name = bottom;
pos = (250,0);
},
{
name = top;
pos = (359,650);
}
);
associatedMasterId = "27302DAC-E04E-41A7-B2D2-BD8305143A0A";
background = {
anchors = (
{
name = bottom;
pos = (250,0);
},
{
name = top;
pos = (359,650);
}
);
shapes = (
{
closed = 1;
nodes = (
(312,260,ls),
(449,260,o),
(538,329,o),
(565,455,cs),
(592,581,o),
(532,650,o),
(395,650,cs),
(280,650,l),
(256,540,l),
(361,540,ls),
(432,540,o),
(456,515,o),
(443,455,cs),
(430,395,o),
(396,370,o),
(325,370,cs),
(220,370,l),
(197,260,l)
);
},
{
closed = 1;
nodes = (
(141,0,l),
(280,650,l),
(159,650,l),
(20,0,l)
);
},
{
closed = 1;
nodes = (
(503,0,l),
(377,345,l),
(230,293,l),
(241,345,l),
(363,0,l)
);
}
);
};
backgroundImage = {
imagePath = "/Users/markku/Documents/projects/SomeOthertype-Mono/SomeOthertype-Mono/sources/scan-image/scan2017-1-CR.png";
pos = (-1036.333,-292);
scale = (7.2622,7.2622);
slant = (62.7562,0);
};
layerId = "19783BF4-AD41-45C6-99DC-8358AD4A50A1";
name = cursify;
shapes = (
{
closed = 1;
nodes = (
(316,260,ls),
(453,260,o),
(537,324,o),
(563,445,cs),
(591,576,o),
(527,650,o),
(390,650,cs),
(280,650,l),
(256,540,l),
(366,540,ls),
(437,540,o),
(457,520,o),
(445,465,cs),
(431,400,o),
(392,370,o),
(321,370,cs),
(220,370,l),
(197,260,l)
);
},
{
closed = 1;
nodes = (
(141,0,l),
(280,650,l),
(159,650,l),
(20,0,l)
);
},
{
closed = 1;
nodes = (
(502,0,l),
(374,345,l),
(229,293,l),
(242,345,l),
(365,0,l)
);
}
);
width = 580;
}
);
unicode = 82;
},
{
color = 0;
glyphname = S;
layers = (
{
anchors = (
{
name = bottom;
pos = (239,0);
},
{
name = top;
pos = (373,650);
}
);
background = {
anchors = (
{
name = bottom;
pos = (239,0);
},
{
name = top;
pos = (373,650);
}
);
shapes = (
{
closed = 1;
nodes = (
(391,-14,o),
(496,51,o),
(515,169,cs),
(532,275,o),
(487,343,o),
(387,370,cs),
(300,393,ls),
(251,406,o),
(232,431,o),
(237,471,cs),
(244,525,o),
(292,550,o),
(366,549,cs),
(430,548,o),
(480,527,o),
(521,489,c),
(497,476,l),
(599,621,l),
(594,579,l),
(540,629,o),
(471,659,o),
(379,661,cs),
(238,663,o),
(136,599,o),
(117,480,cs),
(100,375,o),
(145,307,o),
(245,280,cs),
(332,256,ls),
(381,244,o),
(400,219,o),
(395,178,cs),
(388,125,o),
(337,99,o),
(255,101,cs),
(182,102,o),
(129,125,o),
(86,176,c),
(110,190,l),
(-7,43,l),
(11,84,l),
(66,23,o),
(137,-9,o),
(239,-11,cs)
);
}
);
};
layerId = "27302DAC-E04E-41A7-B2D2-BD8305143A0A";
shapes = (
{
closed = 1;
nodes = (
(423,-12,o),
(519,72,o),
(519,213,cs),
(519,299,o),
(473,357,o),
(387,378,cs),
(300,399,ls),
(256,410,o),
(236,429,o),
(236,462,cs),
(236,517,o),
(279,550,o),
(360,550,cs),
(420,550,o),
(469,533,o),
(512,498,c),
(579,593,l),
(522,638,o),
(450,662,o),
(368,662,cs),
(210,662,o),
(113,577,o),
(113,443,cs),
(113,363,o),
(159,307,o),
(245,286,cs),
(332,265,ls),
(376,254,o),
(396,228,o),
(396,192,cs),
(396,132,o),
(350,100,o),
(265,100,cs),
(190,100,o),
(138,121,o),
(93,167,c),
(19,75,l),
(80,16,o),
(155,-12,o),
(256,-12,cs)
);
}
);
width = 580;
},
{
anchors = (
{
name = bottom;
pos = (239,0);
},
{
name = top;
pos = (373,650);
}
);
background = {
anchors = (
{
name = bottom;
pos = (239,0);
},
{
name = top;
pos = (373,650);
}
);
shapes = (
{
closed = 1;
nodes = (
(383,-13,o),
(484,53,o),
(503,173,cs),
(518,269,o),
(476,325,o),
(380,353,cs),
(283,380,ls),
(219,399,o),
(197,428,o),
(204,483,cs),
(213,554,o),
(280,591,o),
(369,590,cs),
(443,589,o),
(502,561,o),
(546,507,c),
(492,494,l),
(614,651,l),
(593,562,l),
(543,625,o),
(472,659,o),
(379,661,cs),
(247,663,o),
(148,600,o),
(130,488,cs),
(115,395,o),
(157,339,o),
(253,311,cs),
(350,283,ls),
(414,265,o),
(436,236,o),
(428,178,cs),
(417,99,o),
(350,58,o),
(251,60,cs),
(169,61,o),
(107,91,o),
(64,150,c),
(111,168,l),
(-29,8,l),
(21,90,l),
(68,25,o),
(140,-9,o),
(240,-11,cs)
);
}
);
};
layerId = "B9B856C8-1FA2-46F4-A929-F36A99765E59";
shapes = (
{
closed = 1;
nodes = (
(409,-12,o),
(506,73,o),
(506,209,cs),
(506,288,o),
(465,335,o),
(380,358,cs),
(283,384,ls),
(226,399,o),
(203,425,o),
(203,469,cs),
(203,543,o),
(263,591,o),
(363,591,cs),
(425,591,o),
(478,572,o),
(522,534,c),
(567,591,l),
(515,638,o),
(448,662,o),
(369,662,cs),
(221,662,o),
(127,581,o),
(127,458,cs),
(127,386,o),
(167,338,o),
(253,315,cs),
(350,289,ls),
(407,274,o),
(430,249,o),
(430,200,cs),
(430,112,o),
(367,59,o),
(261,59,cs),
(184,59,o),
(127,82,o),
(80,131,c),
(31,76,l),
(81,18,o),
(158,-12,o),
(253,-12,cs)
);
}
);
width = 580;
},
{
anchors = (
{
name = bottom;
pos = (239,0);
},
{
name = top;
pos = (373,650);
}
);
associatedMasterId = "B9B856C8-1FA2-46F4-A929-F36A99765E59";
background = {
anchors = (
{
name = bottom;
pos = (239,0);
},
{
name = top;
pos = (373,650);
}
);
shapes = (
{
closed = 1;
nodes = (
(382,-12,o),
(477,57,o),
(503,177,cs),
(523,274,o),
(483,326,o),
(386,352,cs),
(277,381,ls),
(213,398,o),
(192,424,o),
(203,475,cs),
(219,548,o),
(283,591,o),
(374,591,cs),
(446,591,o),
(504,566,o),
(546,511,c),
(491,497,l),
(620,648,l),
(593,567,l),
(543,629,o),
(473,662,o),
(380,662,cs),
(248,662,o),
(154,596,o),
(130,484,cs),
(110,391,o),
(151,338,o),
(247,312,cs),
(356,283,ls),
(420,266,o),
(441,240,o),
(430,186,cs),
(412,104,o),
(347,59,o),
(245,59,cs),
(166,59,o),
(104,86,o),
(64,146,c),
(110,166,l),
(-32,10,l),
(20,85,l),
(67,21,o),
(139,-12,o),
(239,-12,cs)
);
}
);
};
guides = (
{
angle = 90;
pos = (251,532);
},
{
angle = 90;
pos = (564,232);
},
{
angle = 90;
pos = (235,532);
},
{
angle = 90;
pos = (548,232);
}
);
layerId = "F0DCAD24-AB1C-410D-ADF9-3E9574FAA89D";
name = slanted;
shapes = (
{
closed = 1;
nodes = (
(379,-12,o),
(478,60,o),
(504,183,cs),
(524,277,o),
(486,327,o),
(389,353,cs),
(280,382,ls),
(216,399,o),
(193,427,o),
(204,481,cs),
(219,551,o),
(280,591,o),
(369,591,cs),
(443,591,o),
(502,564,o),
(543,509,c),
(490,497,l),
(619,648,l),
(596,569,l),
(545,631,o),
(476,662,o),
(386,662,cs),
(251,662,o),
(153,593,o),
(129,478,cs),
(110,388,o),
(148,337,o),
(244,311,cs),
(353,282,ls),
(417,265,o),
(440,237,o),
(428,180,cs),
(412,101,o),
(350,59,o),
(251,59,cs),
(169,59,o),
(107,88,o),
(67,148,c),
(110,166,l),
(-32,10,l),
(17,83,l),
(64,19,o),
(136,-12,o),
(233,-12,cs)
);
}
);
width = 580;
},
{
anchors = (
{
name = bottom;
pos = (239,0);
},
{
name = top;
pos = (373,650);
}
);
associatedMasterId = "B9B856C8-1FA2-46F4-A929-F36A99765E59";
background = {
anchors = (
{
name = bottom;
pos = (239,0);
},
{
name = top;
pos = (373,650);
}
);
shapes = (
{
closed = 1;
nodes = (
(379,-12,o),
(478,60,o),
(504,183,cs),
(524,277,o),
(486,327,o),
(389,353,cs),
(280,382,ls),
(216,399,o),
(193,427,o),
(204,481,cs),
(219,551,o),
(280,591,o),
(369,591,cs),
(443,591,o),
(502,564,o),
(543,509,c),
(490,497,l),
(619,648,l),
(596,569,l),
(545,631,o),
(476,662,o),
(386,662,cs),
(251,662,o),
(153,593,o),
(129,478,cs),
(110,388,o),
(148,337,o),
(244,311,cs),
(353,282,ls),
(417,265,o),
(440,237,o),
(428,180,cs),
(412,101,o),
(350,59,o),
(251,59,cs),
(169,59,o),
(107,88,o),
(67,148,c),
(110,166,l),
(-32,10,l),
(17,83,l),
(64,19,o),
(136,-12,o),
(233,-12,cs)
);
}
);
};
guides = (
{
angle = 90;
pos = (251,532);
},
{
angle = 90;
pos = (564,232);
},
{
angle = 90;
pos = (235,532);
},
{
angle = 90;
pos = (548,232);
}
);
layerId = "E6730EC7-1763-48B3-AB89-5F8A4502DB92";
name = cursify;
shapes = (
{
closed = 1;
nodes = (
(382,-12,o),
(477,57,o),
(503,177,cs),
(523,274,o),
(483,326,o),
(386,352,cs),
(277,381,ls),
(213,398,o),
(192,424,o),
(203,475,cs),
(219,548,o),
(283,591,o),
(374,591,cs),
(446,591,o),
(504,566,o),
(546,511,c),
(491,497,l),
(620,648,l),
(593,567,l),
(543,629,o),
(473,662,o),
(380,662,cs),
(248,662,o),
(154,596,o),
(130,484,cs),
(110,391,o),
(151,338,o),
(247,312,cs),
(356,283,ls),
(420,266,o),
(441,240,o),
(430,186,cs),
(412,104,o),
(347,59,o),
(245,59,cs),
(166,59,o),
(104,86,o),
(64,146,c),
(110,166,l),
(-32,10,l),
(20,85,l),
(67,21,o),
(139,-12,o),
(239,-12,cs)
);
}
);
width = 580;
},
{
anchors = (
{
name = bottom;
pos = (239,0);
},
{
name = top;
pos = (373,650);
}
);
associatedMasterId = "27302DAC-E04E-41A7-B2D2-BD8305143A0A";
background = {
anchors = (
{
name = bottom;
pos = (239,0);
},
{
name = top;
pos = (373,650);
}
);
shapes = (
{
closed = 1;
nodes = (
(390,-12,o),
(489,56,o),
(515,175,cs),
(537,280,o),
(495,341,o),
(393,368,cs),
(290,395,ls),
(240,408,o),
(228,425,o),
(235,460,cs),
(248,518,o),
(297,550,o),
(375,550,cs),
(435,550,o),
(484,533,o),
(521,493,c),
(494,479,l),
(604,618,l),
(594,584,l),
(541,634,o),
(472,662,o),
(381,662,cs),
(239,662,o),
(143,594,o),
(117,475,cs),
(95,370,o),
(137,309,o),
(239,282,cs),
(342,255,ls),
(392,242,o),
(404,226,o),
(397,190,cs),
(384,132,o),
(332,100,o),
(246,100,cs),
(177,100,o),
(125,119,o),
(82,169,c),
(110,189,l),
(-11,44,l),
(10,78,l),
(65,18,o),
(136,-12,o),
(237,-12,cs)
);
}
);
};
guides = (
{
angle = 90;
pos = (449,186);
},
{
angle = 90;
pos = (411,466);
},
{
angle = 90;
pos = (395,466);
},
{
angle = 90;
pos = (433,186);
}
);
layerId = "CF1377D1-98BD-4D71-8615-27A5A89E0C3E";
name = slanted;
shapes = (
{
closed = 1;
nodes = (
(386,-12,o),
(490,61,o),
(517,185,cs),
(538,285,o),
(500,342,o),
(398,369,cs),
(295,396,ls),
(244,409,o),
(229,430,o),
(237,470,cs),
(249,523,o),
(292,550,o),
(366,550,cs),
(430,550,o),
(480,530,o),
(517,490,c),
(493,479,l),
(603,618,l),
(598,587,l),
(545,637,o),
(476,662,o),
(390,662,cs),
(243,662,o),
(142,589,o),
(115,465,cs),
(94,365,o),
(132,308,o),
(234,281,cs),
(337,254,ls),
(388,241,o),
(403,221,o),
(395,180,cs),
(383,127,o),
(337,100,o),
(255,100,cs),
(182,100,o),
(129,122,o),
(86,172,c),
(111,189,l),
(-10,44,l),
(4,75,l),
(61,15,o),
(132,-12,o),
(228,-12,cs)
);
}
);
width = 580;
},
{
anchors = (
{
name = bottom;
pos = (239,0);
},
{
name = top;
pos = (373,650);
}
);
associatedMasterId = "27302DAC-E04E-41A7-B2D2-BD8305143A0A";
background = {
anchors = (
{
name = bottom;
pos = (239,0);
},
{
name = top;
pos = (373,650);
}
);
shapes = (
{
closed = 1;
nodes = (
(386,-12,o),
(490,61,o),
(517,185,cs),
(538,285,o),
(500,342,o),
(398,369,cs),
(295,396,ls),
(244,409,o),
(229,430,o),
(237,470,cs),
(249,523,o),
(292,550,o),
(366,550,cs),
(430,550,o),
(480,530,o),
(517,490,c),
(493,479,l),
(603,618,l),
(598,587,l),
(545,637,o),
(476,662,o),
(390,662,cs),
(243,662,o),
(142,589,o),
(115,465,cs),
(94,365,o),
(132,308,o),
(234,281,cs),
(337,254,ls),
(388,241,o),
(403,221,o),
(395,180,cs),
(383,127,o),
(337,100,o),
(255,100,cs),
(182,100,o),
(129,122,o),
(86,172,c),
(111,189,l),
(-10,44,l),
(4,75,l),
(61,15,o),
(132,-12,o),
(228,-12,cs)
);
}
);
};
guides = (
{
angle = 90;
pos = (449,186);
},
{
angle = 90;
pos = (411,466);
},
{
angle = 90;
pos = (395,466);
},
{
angle = 90;
pos = (433,186);
}
);
layerId = "E81EE6F4-A8A1-46C7-BEC8-333D1AB26A18";
name = cursify;
shapes = (
{
closed = 1;
nodes = (
(390,-12,o),
(489,56,o),
(515,175,cs),
(537,280,o),
(495,341,o),
(393,368,cs),
(290,395,ls),
(240,408,o),
(228,425,o),
(235,460,cs),
(248,518,o),
(297,550,o),
(375,550,cs),
(435,550,o),
(484,533,o),
(521,493,c),
(494,479,l),
(604,618,l),
(594,584,l),
(541,634,o),
(472,662,o),
(381,662,cs),
(239,662,o),
(143,594,o),
(117,475,cs),
(95,370,o),
(137,309,o),
(239,282,cs),
(342,255,ls),
(392,242,o),
(404,226,o),
(397,190,cs),
(384,132,o),
(332,100,o),
(246,100,cs),
(177,100,o),
(125,119,o),
(82,169,c),
(110,189,l),
(-11,44,l),
(10,78,l),
(65,18,o),
(136,-12,o),
(237,-12,cs)
);
}
);
width = 580;
}
);
unicode = 83;
},
{
color = 0;
glyphname = Germandbls;
layers = (
{
anchors = (
{
name = bottom;
pos = (238,0);
},
{
name = top;
pos = (377,650);
}
);
background = {
anchors = (
{
name = bottom;
pos = (238,0);
},
{
name = top;
pos = (377,650);
}
);
shapes = (
{
closed = 1;
nodes = (
(157,41,l),
(198,7,o),
(250,-12,o),
(316,-12,cs),
(433,-12,o),
(515,45,o),
(529,148,cs),
(551,315,o),
(412,295,o),
(421,381,cs),
(426,433,o),
(475,468,o),
(541,487,c),
(589,579,l),
(531,632,o),
(457,662,o),
(367,662,cs),
(221,662,o),
(131,587,o),
(102,449,cs),
(6,0,l),
(126,0,l),
(215,416,ls),
(235,509,o),
(277,550,o),
(364,550,cs),
(422,550,o),
(476,532,o),
(516,488,c),
(493,550,l),
(386,531,o),
(312,475,o),
(300,383,cs),
(280,225,o),
(417,231,o),
(410,164,cs),
(406,124,o),
(370,100,o),
(316,100,cs),
(283,100,o),
(250,108,o),
(223,131,c),
(251,167,l),
(148,-45,l)
);
},
{
closed = 1;
nodes = (
(439,536,l),
(443,536,l),
(443,540,l),
(439,540,l)
);
}
);
};
layerId = "27302DAC-E04E-41A7-B2D2-BD8305143A0A";
shapes = (
{
closed = 1;
nodes = (
(455,-12,o),
(531,58,o),
(531,182,cs),
(531,247,o),
(498,277,o),
(466,303,cs),
(442,323,o),
(421,342,o),
(421,373,cs),
(421,425,o),
(462,464,o),
(541,487,c),
(589,579,l),
(529,634,o),
(454,662,o),
(367,662,cs),
(222,662,o),
(132,590,o),
(102,449,cs),
(6,0,l),
(126,0,l),
(215,416,ls),
(235,511,o),
(279,550,o),
(364,550,cs),
(390,550,o),
(415,546,o),
(439,538,c),
(439,536,l),
(347,506,o),
(298,444,o),
(298,357,cs),
(298,291,o),
(335,254,o),
(368,228,cs),
(392,209,o),
(410,193,o),
(410,169,cs),
(410,125,o),
(378,100,o),
(321,100,cs),
(284,100,o),
(254,108,o),
(231,125,c),
(181,24,l),
(221,0,o),
(267,-12,o),
(321,-12,cs)
);
}
);
width = 580;
},
{
anchors = (
{
name = bottom;
pos = (240,0);
},
{
name = top;
pos = (378,650);
}
);
background = {
anchors = (
{
name = bottom;
pos = (240,0);
},
{
name = top;
pos = (378,650);
}
);
shapes = (
{
closed = 1;
nodes = (
(158,36,l),
(198,5,o),
(252,-12,o),
(314,-12,cs),
(427,-12,o),
(503,41,o),
(517,140,cs),
(540,302,o),
(386,277,o),
(403,393,cs),
(413,459,o),
(461,499,o),
(536,518,c),
(567,586,l),
(512,636,o),
(446,662,o),
(366,662,cs),
(229,662,o),
(142,590,o),
(113,454,cs),
(16,0,l),
(90,0,l),
(181,428,ls),
(205,541,o),
(259,591,o),
(362,591,cs),
(424,591,o),
(480,573,o),
(522,531,c),
(517,572,l),
(416,551,o),
(340,491,o),
(327,397,cs),
(306,240,o),
(456,244,o),
(443,151,cs),
(435,93,o),
(383,59,o),
(312,59,cs),
(270,59,o),
(229,71,o),
(197,98,c),
(242,147,l),
(162,-20,l)
);
},
{
closed = 1;
nodes = (
(478,561,l),
(483,561,l),
(483,565,l),
(478,565,l)
);
}
);
};
layerId = "B9B856C8-1FA2-46F4-A929-F36A99765E59";
shapes = (
{
closed = 1;
nodes = (
(444,-12,o),
(519,58,o),
(519,171,cs),
(519,233,o),
(485,265,o),
(454,290,cs),
(426,313,o),
(402,336,o),
(402,376,cs),
(402,446,o),
(449,496,o),
(536,518,c),
(567,586,l),
(510,638,o),
(446,662,o),
(366,662,cs),
(229,662,o),
(142,591,o),
(113,454,cs),
(16,0,l),
(90,0,l),
(181,428,ls),
(205,542,o),
(260,591,o),
(362,591,cs),
(407,591,o),
(446,582,o),
(478,564,c),
(478,562,l),
(379,528,o),
(325,462,o),
(325,373,cs),
(325,308,o),
(359,267,o),
(395,239,cs),
(425,215,o),
(444,194,o),
(444,162,cs),
(444,102,o),
(391,59,o),
(318,59,cs),
(276,59,o),
(241,69,o),
(213,88,c),
(182,20,l),
(220,-1,o),
(266,-12,o),
(321,-12,cs)
);
}
);
width = 580;
},
{
anchors = (
{
name = bottom;
pos = (240,0);
},
{
name = top;
pos = (378,650);
}
);
associatedMasterId = "B9B856C8-1FA2-46F4-A929-F36A99765E59";
background = {
anchors = (
{
name = bottom;
pos = (240,0);
},
{
name = top;
pos = (378,650);
}
);
shapes = (
{
closed = 1;
nodes = (
(158,36,l),
(198,5,o),
(252,-12,o),
(314,-12,cs),
(427,-12,o),
(496,42,o),
(517,140,cs),
(535,224,o),
(501,254,o),
(447,293,cs),
(410,326,o),
(392,342,o),
(403,393,cs),
(416,458,o),
(461,499,o),
(536,518,c),
(567,586,l),
(514,636,o),
(453,662,o),
(373,662,cs),
(236,662,o),
(141,587,o),
(113,454,cs),
(16,0,l),
(90,0,l),
(181,428,ls),
(204,538,o),
(264,591,o),
(367,591,cs),
(429,591,o),
(480,573,o),
(522,531,c),
(517,572,l),
(416,551,o),
(347,490,o),
(327,397,cs),
(308,307,o),
(351,272,o),
(397,239,cs),
(433,208,o),
(452,192,o),
(443,151,cs),
(431,94,o),
(383,59,o),
(312,59,cs),
(270,59,o),
(229,71,o),
(197,99,c),
(249,143,l),
(152,-16,l)
);
},
{
closed = 1;
nodes = (
(478,558,l),
(483,558,l),
(484,562,l),
(479,562,l)
);
}
);
};
layerId = "BC82BA01-4729-44EE-937E-ADBE330FC5CD";
name = slanted;
shapes = (
{
closed = 1;
nodes = (
(155,34,l),
(196,3,o),
(249,-12,o),
(308,-12,cs),
(424,-12,o),
(497,45,o),
(518,146,cs),
(535,227,o),
(503,256,o),
(452,297,cs),
(413,328,o),
(392,345,o),
(404,399,cs),
(417,461,o),
(458,500,o),
(533,519,c),
(569,588,l),
(517,638,o),
(456,662,o),
(379,662,cs),
(239,662,o),
(140,584,o),
(112,451,cs),
(16,0,l),
(90,0,l),
(182,431,ls),
(205,541,o),
(261,591,o),
(362,591,cs),
(426,591,o),
(477,571,o),
(519,529,c),
(520,571,l),
(419,550,o),
(347,487,o),
(326,391,cs),
(308,304,o),
(348,270,o),
(391,236,cs),
(430,206,o),
(451,189,o),
(442,145,cs),
(430,91,o),
(386,59,o),
(318,59,cs),
(273,59,o),
(232,73,o),
(200,101,c),
(248,143,l),
(154,-16,l)
);
},
{
closed = 1;
nodes = (
(478,558,l),
(483,558,l),
(484,562,l),
(479,562,l)
);
}
);
width = 580;
},
{
anchors = (
{
name = bottom;
pos = (240,0);
},
{
name = top;
pos = (378,650);
}
);
associatedMasterId = "B9B856C8-1FA2-46F4-A929-F36A99765E59";
background = {
anchors = (
{
name = bottom;
pos = (240,0);
},
{
name = top;
pos = (378,650);
}
);
shapes = (
{
closed = 1;
nodes = (
(155,34,l),
(196,3,o),
(249,-12,o),
(308,-12,cs),
(424,-12,o),
(497,45,o),
(518,146,cs),
(535,227,o),
(503,256,o),
(452,297,cs),
(413,328,o),
(392,345,o),
(404,399,cs),
(417,461,o),
(458,500,o),
(533,519,c),
(569,588,l),
(517,638,o),
(456,662,o),
(379,662,cs),
(239,662,o),
(140,584,o),
(112,451,cs),
(16,0,l),
(90,0,l),
(182,431,ls),
(205,541,o),
(261,591,o),
(362,591,cs),
(426,591,o),
(477,571,o),
(519,529,c),
(520,571,l),
(419,550,o),
(347,487,o),
(326,391,cs),
(308,304,o),
(348,270,o),
(391,236,cs),
(430,206,o),
(451,189,o),
(442,145,cs),
(430,91,o),
(386,59,o),
(318,59,cs),
(273,59,o),
(232,73,o),
(200,101,c),
(248,143,l),
(154,-16,l)
);
},
{
closed = 1;
nodes = (
(478,558,l),
(483,558,l),
(484,562,l),
(479,562,l)
);
}
);
};
layerId = "ED871F76-D73F-4D61-9FFE-69E8588C8A7D";
name = cursify;
shapes = (
{
closed = 1;
nodes = (
(158,36,l),
(198,5,o),
(252,-12,o),
(314,-12,cs),
(427,-12,o),
(496,42,o),
(517,140,cs),
(535,224,o),
(501,254,o),
(447,293,cs),
(410,326,o),
(392,342,o),
(403,393,cs),
(416,458,o),
(461,499,o),
(536,518,c),
(567,586,l),
(514,636,o),
(453,662,o),
(373,662,cs),
(236,662,o),
(141,587,o),
(113,454,cs),
(16,0,l),
(90,0,l),
(181,428,ls),
(204,538,o),
(264,591,o),
(367,591,cs),
(429,591,o),
(480,573,o),
(522,531,c),
(517,572,l),
(416,551,o),
(347,490,o),
(327,397,cs),
(308,307,o),
(351,272,o),
(397,239,cs),
(433,208,o),
(452,192,o),
(443,151,cs),
(431,94,o),
(383,59,o),
(312,59,cs),
(270,59,o),
(229,71,o),
(197,99,c),
(249,143,l),
(152,-16,l)
);
},
{
closed = 1;
nodes = (
(478,558,l),
(483,558,l),
(484,562,l),
(479,562,l)
);
}
);
width = 580;
},
{
anchors = (
{
name = bottom;
pos = (238,0);
},
{
name = top;
pos = (377,650);
}
);
associatedMasterId = "27302DAC-E04E-41A7-B2D2-BD8305143A0A";
background = {
anchors = (
{
name = bottom;
pos = (238,0);
},
{
name = top;
pos = (377,650);
}
);
shapes = (
{
closed = 1;
nodes = (
(157,41,l),
(198,7,o),
(250,-12,o),
(316,-12,cs),
(433,-12,o),
(507,46,o),
(529,148,cs),
(549,241,o),
(508,274,o),
(455,308,cs),
(431,332,o),
(414,346,o),
(421,381,cs),
(432,432,o),
(475,468,o),
(541,487,c),
(589,579,l),
(533,632,o),
(464,662,o),
(374,662,cs),
(230,662,o),
(131,586,o),
(102,449,cs),
(6,0,l),
(126,0,l),
(215,416,ls),
(234,508,o),
(282,550,o),
(369,550,cs),
(427,550,o),
(475,532,o),
(515,488,c),
(493,550,l),
(386,531,o),
(319,474,o),
(300,383,cs),
(280,292,o),
(324,259,o),
(375,227,cs),
(407,197,o),
(415,187,o),
(410,164,cs),
(402,125,o),
(370,100,o),
(316,100,cs),
(283,100,o),
(250,108,o),
(223,131,c),
(256,163,l),
(139,-41,l)
);
},
{
closed = 1;
nodes = (
(440,533,l),
(444,533,l),
(444,536,l),
(440,536,l)
);
}
);
};
layerId = "2CB1EBB3-E52B-4916-94FC-1D0049BB271F";
name = slanted;
shapes = (
{
closed = 1;
nodes = (
(152,38,l),
(193,4,o),
(246,-12,o),
(307,-12,cs),
(429,-12,o),
(508,51,o),
(531,158,cs),
(550,246,o),
(512,277,o),
(463,314,cs),
(436,335,o),
(415,351,o),
(424,391,cs),
(433,437,o),
(471,469,o),
(537,488,c),
(592,582,l),
(537,635,o),
(468,662,o),
(383,662,cs),
(234,662,o),
(130,581,o),
(101,444,cs),
(6,0,l),
(126,0,l),
(216,421,ls),
(235,513,o),
(277,550,o),
(360,550,cs),
(422,550,o),
(471,529,o),
(511,485,c),
(499,549,l),
(390,530,o),
(318,469,o),
(298,373,cs),
(279,287,o),
(320,256,o),
(366,221,cs),
(403,194,o),
(414,182,o),
(408,154,cs),
(401,120,o),
(375,100,o),
(325,100,cs),
(288,100,o),
(254,111,o),
(227,134,c),
(256,163,l),
(141,-41,l)
);
},
{
closed = 1;
nodes = (
(440,533,l),
(444,533,l),
(444,536,l),
(440,536,l)
);
}
);
width = 580;
},
{
anchors = (
{
name = bottom;
pos = (238,0);
},
{
name = top;
pos = (377,650);
}
);
associatedMasterId = "27302DAC-E04E-41A7-B2D2-BD8305143A0A";
background = {
anchors = (
{
name = bottom;
pos = (238,0);
},
{
name = top;
pos = (377,650);
}
);
shapes = (
{
closed = 1;
nodes = (
(152,38,l),
(193,4,o),
(246,-12,o),
(307,-12,cs),
(429,-12,o),
(508,51,o),
(531,158,cs),
(550,246,o),
(512,277,o),
(463,314,cs),
(436,335,o),
(415,351,o),
(424,391,cs),
(433,437,o),
(471,469,o),
(537,488,c),
(592,582,l),
(537,635,o),
(468,662,o),
(383,662,cs),
(234,662,o),
(130,581,o),
(101,444,cs),
(6,0,l),
(126,0,l),
(216,421,ls),
(235,513,o),
(277,550,o),
(360,550,cs),
(422,550,o),
(471,529,o),
(511,485,c),
(499,549,l),
(390,530,o),
(318,469,o),
(298,373,cs),
(279,287,o),
(320,256,o),
(366,221,cs),
(403,194,o),
(414,182,o),
(408,154,cs),
(401,120,o),
(375,100,o),
(325,100,cs),
(288,100,o),
(254,111,o),
(227,134,c),
(256,163,l),
(141,-41,l)
);
},
{
closed = 1;
nodes = (
(440,533,l),
(444,533,l),
(444,536,l),
(440,536,l)
);
}
);
};
layerId = "3DB390BC-1CDD-49BA-ADA8-B465D1F3C350";
name = cursify;
shapes = (
{
closed = 1;
nodes = (
(157,41,l),
(198,7,o),
(250,-12,o),
(316,-12,cs),
(433,-12,o),
(507,46,o),
(529,148,cs),
(549,241,o),
(508,274,o),
(455,308,cs),
(431,332,o),
(414,346,o),
(421,381,cs),
(432,432,o),
(475,468,o),
(541,487,c),
(589,579,l),
(533,632,o),
(464,662,o),
(374,662,cs),
(230,662,o),
(131,586,o),
(102,449,cs),
(6,0,l),
(126,0,l),
(215,416,ls),
(234,508,o),
(282,550,o),
(369,550,cs),
(427,550,o),
(475,532,o),
(515,488,c),
(493,550,l),
(386,531,o),
(319,474,o),
(300,383,cs),
(280,292,o),
(324,259,o),
(375,227,cs),
(407,197,o),
(415,187,o),
(410,164,cs),
(402,125,o),
(370,100,o),
(316,100,cs),
(283,100,o),
(250,108,o),
(223,131,c),
(256,163,l),
(139,-41,l)
);
},
{
closed = 1;
nodes = (
(440,533,l),
(444,533,l),
(444,536,l),
(440,536,l)
);
}
);
width = 580;
}
);
unicode = 7838;
},
{
color = 0;
glyphname = T;
layers = (
{
anchors = (
{
name = bottom;
pos = (239,0);
},
{
name = center;
pos = (308,323);
},
{
name = top;
pos = (378,650);
}
);
background = {
anchors = (
{
name = bottom;
pos = (239,0);
},
{
name = center;
pos = (308,323);
},
{
name = top;
pos = (378,650);
}
);
shapes = (
{
closed = 1;
nodes = (
(299,0,l),
(438,650,l),
(318,650,l),
(179,0,l)
);
},
{
closed = 1;
nodes = (
(304,539,l),
(328,650,l),
(118,650,l),
(94,539,l)
);
},
{
closed = 1;
nodes = (
(614,539,l),
(638,650,l),
(428,650,l),
(404,539,l)
);
}
);
};
layerId = "27302DAC-E04E-41A7-B2D2-BD8305143A0A";
shapes = (
{
closed = 1;
nodes = (
(299,0,l),
(414,539,l),
(614,539,l),
(638,650,l),
(118,650,l),
(94,539,l),
(294,539,l),
(179,0,l)
);
}
);
width = 580;
},
{
anchors = (
{
name = bottom;
pos = (240,0);
},
{
name = center;
pos = (310,327);
},
{
name = top;
pos = (378,650);
}
);
background = {
anchors = (
{
name = bottom;
pos = (240,0);
},
{
name = center;
pos = (310,327);
},
{
name = top;
pos = (378,650);
}
);
shapes = (
{
closed = 1;
nodes = (
(277,0,l),
(415,650,l),
(341,650,l),
(203,0,l)
);
},
{
closed = 1;
nodes = (
(336,580,l),
(351,650,l),
(125,650,l),
(110,580,l)
);
},
{
closed = 1;
nodes = (
(616,580,l),
(631,650,l),
(405,650,l),
(390,580,l)
);
}
);
};
layerId = "B9B856C8-1FA2-46F4-A929-F36A99765E59";
shapes = (
{
closed = 1;
nodes = (
(277,0,l),
(400,580,l),
(616,580,l),
(631,650,l),
(125,650,l),
(110,580,l),
(326,580,l),
(203,0,l)
);
}
);
width = 580;
}
);
unicode = 84;
},
{
color = 0;
glyphname = U;
layers = (
{
anchors = (
{
name = bottom;
pos = (239,0);
},
{
name = ogonek;
pos = (361,0);
},
{
name = top;
pos = (378,650);
},
{
name = topright;
pos = (658,650);
}
);
background = {
anchors = (
{
name = bottom;
pos = (239,0);
},
{
name = ogonek;
pos = (361,0);
},
{
name = top;
pos = (378,650);
},
{
name = topright;
pos = (658,650);
}
);
shapes = (
{
closed = 1;
nodes = (
(391,-12,o),
(478,59,o),
(509,203,cs),
(604,650,l),
(486,650,l),
(394,217,ls),
(377,139,o),
(334,100,o),
(262,100,cs),
(190,100,o),
(163,139,o),
(180,217,cs),
(272,650,l),
(152,650,l),
(59,215,ls),
(28,71,o),
(97,-12,o),
(250,-12,cs)
);
}
);
};
layerId = "27302DAC-E04E-41A7-B2D2-BD8305143A0A";
shapes = (
{
closed = 1;
nodes = (
(391,-12,o),
(478,59,o),
(509,203,cs),
(604,650,l),
(486,650,l),
(394,217,ls),
(377,139,o),
(334,100,o),
(262,100,cs),
(204,100,o),
(175,125,o),
(175,176,cs),
(175,188,o),
(177,202,o),
(180,217,cs),
(272,650,l),
(152,650,l),
(59,215,ls),
(54,192,o),
(52,171,o),
(52,152,cs),
(52,47,o),
(121,-12,o),
(250,-12,cs)
);
}
);
width = 580;
},
{
anchors = (
{
name = bottom;
pos = (240,0);
},
{
name = ogonek;
pos = (357,0);
},
{
name = top;
pos = (378,650);
},
{
name = topright;
pos = (658,650);
}
);
background = {
anchors = (
{
name = bottom;
pos = (240,0);
},
{
name = ogonek;
pos = (357,0);
},
{
name = top;
pos = (378,650);
},
{
name = topright;
pos = (658,650);
}
);
shapes = (
{
closed = 1;
nodes = (
(381,-12,o),
(468,61,o),
(497,197,cs),
(593,650,l),
(521,650,l),
(428,211,ls),
(407,111,o),
(348,59,o),
(254,59,cs),
(160,59,o),
(123,111,o),
(144,211,cs),
(237,650,l),
(163,650,l),
(68,205,ls),
(40,69,o),
(105,-12,o),
(246,-12,cs)
);
}
);
};
layerId = "B9B856C8-1FA2-46F4-A929-F36A99765E59";
shapes = (
{
closed = 1;
nodes = (
(381,-12,o),
(468,61,o),
(497,197,cs),
(593,650,l),
(521,650,l),
(428,211,ls),
(407,111,o),
(348,59,o),
(254,59,cs),
(177,59,o),
(138,94,o),
(138,161,cs),
(138,176,o),
(140,193,o),
(144,211,cs),
(237,650,l),
(163,650,l),
(68,205,ls),
(64,184,o),
(62,165,o),
(62,147,cs),
(62,46,o),
(127,-12,o),
(246,-12,cs)
);
}
);
width = 580;
},
{
anchors = (
{
name = bottom;
pos = (239,0);
},
{
name = ogonek;
pos = (361,0);
},
{
name = top;
pos = (378,650);
},
{
name = topright;
pos = (658,650);
}
);
associatedMasterId = "27302DAC-E04E-41A7-B2D2-BD8305143A0A";
background = {
anchors = (
{
name = bottom;
pos = (239,0);
},
{
name = ogonek;
pos = (361,0);
},
{
name = top;
pos = (378,650);
},
{
name = topright;
pos = (658,650);
}
);
shapes = (
{
closed = 1;
nodes = (
(388,-12,o),
(478,60,o),
(509,204,cs),
(604,650,l),
(486,650,l),
(395,222,ls),
(378,144,o),
(329,100,o),
(253,100,cs),
(185,100,o),
(162,134,o),
(178,212,cs),
(272,650,l),
(152,650,l),
(59,214,ls),
(28,70,o),
(94,-12,o),
(246,-12,cs)
);
}
);
};
layerId = "FBB18918-26FF-48D9-AE4F-2CAC84B6181F";
name = slanted;
shapes = (
{
closed = 1;
nodes = (
(384,-12,o),
(479,65,o),
(510,209,cs),
(604,650,l),
(486,650,l),
(394,217,ls),
(377,139,o),
(334,100,o),
(262,100,cs),
(190,100,o),
(163,139,o),
(180,217,cs),
(272,650,l),
(152,650,l),
(58,209,ls),
(27,65,o),
(90,-12,o),
(237,-12,cs)
);
}
);
width = 580;
},
{
anchors = (
{
name = bottom;
pos = (239,0);
},
{
name = ogonek;
pos = (361,0);
},
{
name = top;
pos = (378,650);
},
{
name = topright;
pos = (658,650);
}
);
associatedMasterId = "27302DAC-E04E-41A7-B2D2-BD8305143A0A";
background = {
anchors = (
{
name = bottom;
pos = (239,0);
},
{
name = ogonek;
pos = (361,0);
},
{
name = top;
pos = (378,650);
},
{
name = topright;
pos = (658,650);
}
);
shapes = (
{
closed = 1;
nodes = (
(384,-12,o),
(479,65,o),
(510,209,cs),
(604,650,l),
(486,650,l),
(394,217,ls),
(377,139,o),
(334,100,o),
(262,100,cs),
(190,100,o),
(163,139,o),
(180,217,cs),
(272,650,l),
(152,650,l),
(58,209,ls),
(27,65,o),
(90,-12,o),
(237,-12,cs)
);
}
);
};
layerId = "B140A91A-4A99-4FC0-8AD4-0AEA1D998BAE";
name = cursify;
shapes = (
{
closed = 1;
nodes = (
(388,-12,o),
(478,60,o),
(509,204,cs),
(604,650,l),
(486,650,l),
(395,222,ls),
(378,144,o),
(329,100,o),
(253,100,cs),
(185,100,o),
(162,134,o),
(178,212,cs),
(272,650,l),
(152,650,l),
(59,214,ls),
(28,70,o),
(94,-12,o),
(246,-12,cs)
);
}
);
width = 580;
},
{
anchors = (
{
name = bottom;
pos = (240,0);
},
{
name = ogonek;
pos = (357,0);
},
{
name = top;
pos = (378,650);
},
{
name = topright;
pos = (658,650);
}
);
associatedMasterId = "B9B856C8-1FA2-46F4-A929-F36A99765E59";
background = {
anchors = (
{
name = bottom;
pos = (240,0);
},
{
name = ogonek;
pos = (357,0);
},
{
name = top;
pos = (378,650);
},
{
name = topright;
pos = (658,650);
}
);
shapes = (
{
closed = 1;
nodes = (
(378,-12,o),
(468,62,o),
(497,198,cs),
(593,650,l),
(521,650,l),
(429,214,ls),
(407,114,o),
(345,59,o),
(248,59,cs),
(157,59,o),
(122,108,o),
(143,208,cs),
(237,650,l),
(163,650,l),
(68,204,ls),
(40,68,o),
(102,-12,o),
(243,-12,cs)
);
}
);
};
layerId = "7522A792-F701-40E5-B831-BC22D22D1BCD";
name = slanted;
shapes = (
{
closed = 1;
nodes = (
(375,-12,o),
(469,65,o),
(498,201,cs),
(593,650,l),
(521,650,l),
(428,211,ls),
(407,111,o),
(348,59,o),
(254,59,cs),
(160,59,o),
(123,111,o),
(144,211,cs),
(237,650,l),
(163,650,l),
(68,201,ls),
(39,65,o),
(99,-12,o),
(237,-12,cs)
);
}
);
width = 580;
},
{
anchors = (
{
name = bottom;
pos = (240,0);
},
{
name = ogonek;
pos = (357,0);
},
{
name = top;
pos = (378,650);
},
{
name = topright;
pos = (658,650);
}
);
associatedMasterId = "B9B856C8-1FA2-46F4-A929-F36A99765E59";
background = {
anchors = (
{
name = bottom;
pos = (240,0);
},
{
name = ogonek;
pos = (357,0);
},
{
name = top;
pos = (378,650);
},
{
name = topright;
pos = (658,650);
}
);
shapes = (
{
closed = 1;
nodes = (
(375,-12,o),
(469,65,o),
(498,201,cs),
(593,650,l),
(521,650,l),
(428,211,ls),
(407,111,o),
(348,59,o),
(254,59,cs),
(160,59,o),
(123,111,o),
(144,211,cs),
(237,650,l),
(163,650,l),
(68,201,ls),
(39,65,o),
(99,-12,o),
(237,-12,cs)
);
}
);
};
layerId = "1F2241CD-F2D4-4195-93C8-9CE2EA881D9C";
name = cursify;
shapes = (
{
closed = 1;
nodes = (
(378,-12,o),
(468,62,o),
(497,198,cs),
(593,650,l),
(521,650,l),
(429,214,ls),
(407,114,o),
(345,59,o),
(248,59,cs),
(157,59,o),
(122,108,o),
(143,208,cs),
(237,650,l),
(163,650,l),
(68,204,ls),
(40,68,o),
(102,-12,o),
(243,-12,cs)
);
}
);
width = 580;
}
);
unicode = 85;
},
{
color = 0;
glyphname = V;
layers = (
{
anchors = (
{
name = bottom;
pos = (239,0);
},
{
name = top;
pos = (378,650);
}
);
background = {
anchors = (
{
name = bottom;
pos = (239,0);
},
{
name = top;
pos = (378,650);
}
);
shapes = (
{
closed = 1;
nodes = (
(248,0,l),
(319,108,l),
(293,0,l),
(232,650,l),
(111,650,l),
(178,0,l)
);
},
{
closed = 1;
nodes = (
(209,108,l),
(234,0,l),
(302,0,l),
(645,650,l),
(520,650,l),
(183,0,l)
);
}
);
};
layerId = "27302DAC-E04E-41A7-B2D2-BD8305143A0A";
shapes = (
{
closed = 1;
nodes = (
(302,0,l),
(645,650,l),
(520,650,l),
(276,180,l),
(232,650,l),
(111,650,l),
(178,0,l)
);
}
);
width = 580;
},
{
anchors = (
{
name = bottom;
pos = (240,0);
},
{
name = top;
pos = (378,650);
}
);
background = {
anchors = (
{
name = bottom;
pos = (240,0);
},
{
name = top;
pos = (378,650);
}
);
shapes = (
{
closed = 1;
nodes = (
(252,0,l),
(287,82,l),
(268,0,l),
(202,650,l),
(127,650,l),
(196,0,l)
);
},
{
closed = 1;
nodes = (
(229,82,l),
(230,0,l),
(284,0,l),
(629,650,l),
(552,650,l),
(210,0,l)
);
}
);
};
layerId = "B9B856C8-1FA2-46F4-A929-F36A99765E59";
shapes = (
{
closed = 1;
nodes = (
(284,0,l),
(629,650,l),
(552,650,l),
(259,92,l),
(202,650,l),
(127,650,l),
(196,0,l)
);
}
);
width = 580;
},
{
anchors = (
{
name = bottom;
pos = (240,0);
},
{
name = top;
pos = (378,650);
}
);
associatedMasterId = "B9B856C8-1FA2-46F4-A929-F36A99765E59";
background = {
anchors = (
{
name = bottom;
pos = (240,0);
},
{
name = top;
pos = (378,650);
}
);
shapes = (
{
closed = 1;
nodes = (
(254,0,l),
(289,82,l),
(270,0,l),
(204,650,l),
(128,650,l),
(197,0,l)
);
},
{
closed = 1;
nodes = (
(231,82,l),
(232,0,l),
(285,0,l),
(630,650,l),
(554,650,l),
(212,0,l)
);
}
);
};
layerId = "5AD236F6-02B0-467C-A0A4-36CC42060A0F";
name = slanted;
shapes = (
{
closed = 1;
nodes = (
(253,0,l),
(288,82,l),
(271,0,l),
(205,650,l),
(127,650,l),
(196,0,l)
);
},
{
closed = 1;
nodes = (
(230,82,l),
(231,0,l),
(284,0,l),
(629,650,l),
(555,650,l),
(213,0,l)
);
}
);
width = 580;
},
{
anchors = (
{
name = bottom;
pos = (240,0);
},
{
name = top;
pos = (378,650);
}
);
associatedMasterId = "B9B856C8-1FA2-46F4-A929-F36A99765E59";
background = {
anchors = (
{
name = bottom;
pos = (240,0);
},
{
name = top;
pos = (378,650);
}
);
shapes = (
{
closed = 1;
nodes = (
(253,0,l),
(288,82,l),
(271,0,l),
(205,650,l),
(127,650,l),
(196,0,l)
);
},
{
closed = 1;
nodes = (
(230,82,l),
(231,0,l),
(284,0,l),
(629,650,l),
(555,650,l),
(213,0,l)
);
}
);
};
layerId = "1D541447-2439-458A-B4E6-7013DBBFA318";
name = cursify;
shapes = (
{
closed = 1;
nodes = (
(254,0,l),
(289,82,l),
(270,0,l),
(204,650,l),
(128,650,l),
(197,0,l)
);
},
{
closed = 1;
nodes = (
(231,82,l),
(232,0,l),
(285,0,l),
(630,650,l),
(554,650,l),
(212,0,l)
);
}
);
width = 580;
},
{
anchors = (
{
name = bottom;
pos = (239,0);
},
{
name = top;
pos = (378,650);
}
);
associatedMasterId = "27302DAC-E04E-41A7-B2D2-BD8305143A0A";
background = {
anchors = (
{
name = bottom;
pos = (239,0);
},
{
name = top;
pos = (378,650);
}
);
shapes = (
{
closed = 1;
nodes = (
(251,0,l),
(322,108,l),
(296,0,l),
(235,650,l),
(112,650,l),
(179,0,l)
);
},
{
closed = 1;
nodes = (
(212,108,l),
(237,0,l),
(303,0,l),
(646,650,l),
(523,650,l),
(186,0,l)
);
}
);
};
layerId = "330BBB32-755E-4E03-B53C-CCC7627950C0";
name = slanted;
shapes = (
{
closed = 1;
nodes = (
(249,0,l),
(320,108,l),
(297,0,l),
(237,650,l),
(111,650,l),
(177,0,l)
);
},
{
closed = 1;
nodes = (
(210,108,l),
(235,0,l),
(301,0,l),
(645,650,l),
(525,650,l),
(187,0,l)
);
}
);
width = 580;
},
{
anchors = (
{
name = bottom;
pos = (239,0);
},
{
name = top;
pos = (378,650);
}
);
associatedMasterId = "27302DAC-E04E-41A7-B2D2-BD8305143A0A";
background = {
anchors = (
{
name = bottom;
pos = (239,0);
},
{
name = top;
pos = (378,650);
}
);
shapes = (
{
closed = 1;
nodes = (
(249,0,l),
(320,108,l),
(297,0,l),
(237,650,l),
(111,650,l),
(177,0,l)
);
},
{
closed = 1;
nodes = (
(210,108,l),
(235,0,l),
(301,0,l),
(645,650,l),
(525,650,l),
(187,0,l)
);
}
);
};
layerId = "242D50DC-D92E-45AA-896B-36708658737F";
name = cursify;
shapes = (
{
closed = 1;
nodes = (
(251,0,l),
(322,108,l),
(296,0,l),
(235,650,l),
(112,650,l),
(179,0,l)
);
},
{
closed = 1;
nodes = (
(212,108,l),
(237,0,l),
(303,0,l),
(646,650,l),
(523,650,l),
(186,0,l)
);
}
);
width = 580;
}
);
unicode = 86;
},
{
color = 0;
glyphname = W;
layers = (
{
anchors = (
{
name = bottom;
pos = (239,0);
},
{
name = top;
pos = (378,650);
}
);
background = {
anchors = (
{
name = bottom;
pos = (239,0);
},
{
name = top;
pos = (378,650);
}
);
shapes = (
{
closed = 1;
nodes = (
(157,0,l),
(198,650,l),
(89,650,l),
(52,0,l)
);
},
{
closed = 1;
nodes = (
(164,0,l),
(403,575,l),
(317,575,l),
(80,0,l)
);
},
{
closed = 1;
nodes = (
(402,0,l),
(409,575,l),
(325,575,l),
(320,0,l)
);
},
{
closed = 1;
nodes = (
(428,0,l),
(667,650,l),
(560,650,l),
(325,0,l)
);
}
);
};
layerId = "27302DAC-E04E-41A7-B2D2-BD8305143A0A";
shapes = (
{
closed = 1;
nodes = (
(164,0,l),
(323,383,l),
(320,0,l),
(428,0,l),
(667,650,l),
(560,650,l),
(405,220,l),
(409,575,l),
(317,575,l),
(171,221,l),
(198,650,l),
(89,650,l),
(52,0,l)
);
}
);
width = 580;
},
{
anchors = (
{
name = bottom;
pos = (240,0);
},
{
name = top;
pos = (378,650);
}
);
background = {
anchors = (
{
name = bottom;
pos = (240,0);
},
{
name = top;
pos = (378,650);
}
);
shapes = (
{
closed = 1;
nodes = (
(130,0,l),
(168,650,l),
(97,650,l),
(61,0,l)
);
},
{
closed = 1;
nodes = (
(150,0,l),
(386,581,l),
(325,581,l),
(89,0,l)
);
},
{
closed = 1;
nodes = (
(391,0,l),
(401,581,l),
(342,581,l),
(332,0,l)
);
},
{
closed = 1;
nodes = (
(417,0,l),
(659,650,l),
(588,650,l),
(350,0,l)
);
}
);
};
hints = (
{
horizontal = 1;
origin = (0,12);
target = up;
type = BottomGhost;
},
{
horizontal = 1;
origin = (0,11);
target = down;
type = TopGhost;
}
);
layerId = "B9B856C8-1FA2-46F4-A929-F36A99765E59";
shapes = (
{
closed = 1;
nodes = (
(150,0,l),
(340,468,l),
(332,0,l),
(417,0,l),
(659,650,l),
(588,650,l),
(393,117,l),
(401,581,l),
(325,581,l),
(137,118,l),
(168,650,l),
(97,650,l),
(61,0,l)
);
}
);
width = 580;
},
{
anchors = (
{
name = bottom;
pos = (240,0);
},
{
name = top;
pos = (378,650);
}
);
associatedMasterId = "B9B856C8-1FA2-46F4-A929-F36A99765E59";
background = {
anchors = (
{
name = bottom;
pos = (240,0);
},
{
name = top;
pos = (378,650);
}
);
shapes = (
{
closed = 1;
nodes = (
(132,0,l),
(170,650,l),
(98,650,l),
(62,0,l)
);
},
{
closed = 1;
nodes = (
(152,0,l),
(387,581,l),
(326,581,l),
(91,0,l)
);
},
{
closed = 1;
nodes = (
(393,0,l),
(404,581,l),
(343,581,l),
(332,0,l)
);
},
{
closed = 1;
nodes = (
(418,0,l),
(660,650,l),
(590,650,l),
(352,0,l)
);
}
);
};
layerId = "C3AB1ABD-095C-4F1B-B100-52BCC1BF4019";
name = slanted;
shapes = (
{
closed = 1;
nodes = (
(132,0,l),
(170,650,l),
(97,650,l),
(62,0,l)
);
},
{
closed = 1;
nodes = (
(151,0,l),
(387,581,l),
(327,581,l),
(91,0,l)
);
},
{
closed = 1;
nodes = (
(393,0,l),
(405,581,l),
(343,581,l),
(331,0,l)
);
},
{
closed = 1;
nodes = (
(418,0,l),
(659,650,l),
(590,650,l),
(352,0,l)
);
}
);
width = 580;
},
{
anchors = (
{
name = bottom;
pos = (240,0);
},
{
name = top;
pos = (378,650);
}
);
associatedMasterId = "B9B856C8-1FA2-46F4-A929-F36A99765E59";
background = {
anchors = (
{
name = bottom;
pos = (240,0);
},
{
name = top;
pos = (378,650);
}
);
shapes = (
{
closed = 1;
nodes = (
(132,0,l),
(170,650,l),
(97,650,l),
(62,0,l)
);
},
{
closed = 1;
nodes = (
(151,0,l),
(387,581,l),
(327,581,l),
(91,0,l)
);
},
{
closed = 1;
nodes = (
(393,0,l),
(405,581,l),
(343,581,l),
(331,0,l)
);
},
{
closed = 1;
nodes = (
(418,0,l),
(659,650,l),
(590,650,l),
(352,0,l)
);
}
);
};
layerId = "BA6A6B5D-D3A2-45F5-8F4F-FBD00929A264";
name = cursify;
shapes = (
{
closed = 1;
nodes = (
(132,0,l),
(170,650,l),
(98,650,l),
(62,0,l)
);
},
{
closed = 1;
nodes = (
(152,0,l),
(387,581,l),
(326,581,l),
(91,0,l)
);
},
{
closed = 1;
nodes = (
(393,0,l),
(404,581,l),
(343,581,l),
(332,0,l)
);
},
{
closed = 1;
nodes = (
(418,0,l),
(660,650,l),
(590,650,l),
(352,0,l)
);
}
);
width = 580;
},
{
anchors = (
{
name = bottom;
pos = (239,0);
},
{
name = top;
pos = (378,650);
}
);
associatedMasterId = "27302DAC-E04E-41A7-B2D2-BD8305143A0A";
background = {
anchors = (
{
name = bottom;
pos = (239,0);
},
{
name = top;
pos = (378,650);
}
);
shapes = (
{
closed = 1;
nodes = (
(158,0,l),
(199,650,l),
(89,650,l),
(52,0,l)
);
},
{
closed = 1;
nodes = (
(164,0,l),
(403,575,l),
(317,575,l),
(80,0,l)
);
},
{
closed = 1;
nodes = (
(404,0,l),
(411,575,l),
(325,575,l),
(320,0,l)
);
},
{
closed = 1;
nodes = (
(428,0,l),
(667,650,l),
(561,650,l),
(326,0,l)
);
}
);
};
layerId = "3492B31E-5751-4841-B29A-C0FDD3FFA689";
name = slanted;
shapes = (
{
closed = 1;
nodes = (
(158,0,l),
(200,650,l),
(89,650,l),
(51,0,l)
);
},
{
closed = 1;
nodes = (
(163,0,l),
(403,575,l),
(318,575,l),
(80,0,l)
);
},
{
closed = 1;
nodes = (
(404,0,l),
(412,575,l),
(325,575,l),
(319,0,l)
);
},
{
closed = 1;
nodes = (
(427,0,l),
(667,650,l),
(562,650,l),
(326,0,l)
);
}
);
width = 580;
},
{
anchors = (
{
name = bottom;
pos = (239,0);
},
{
name = top;
pos = (378,650);
}
);
associatedMasterId = "27302DAC-E04E-41A7-B2D2-BD8305143A0A";
background = {
anchors = (
{
name = bottom;
pos = (239,0);
},
{
name = top;
pos = (378,650);
}
);
shapes = (
{
closed = 1;
nodes = (
(158,0,l),
(200,650,l),
(89,650,l),
(51,0,l)
);
},
{
closed = 1;
nodes = (
(163,0,l),
(403,575,l),
(318,575,l),
(80,0,l)
);
},
{
closed = 1;
nodes = (
(404,0,l),
(412,575,l),
(325,575,l),
(319,0,l)
);
},
{
closed = 1;
nodes = (
(427,0,l),
(667,650,l),
(562,650,l),
(326,0,l)
);
}
);
};
layerId = "2D0B11D0-AEF1-46AD-B8BF-F259FA0F6913";
name = cursify;
shapes = (
{
closed = 1;
nodes = (
(158,0,l),
(199,650,l),
(89,650,l),
(52,0,l)
);
},
{
closed = 1;
nodes = (
(164,0,l),
(403,575,l),
(317,575,l),
(80,0,l)
);
},
{
closed = 1;
nodes = (
(404,0,l),
(411,575,l),
(325,575,l),
(320,0,l)
);
},
{
closed = 1;
nodes = (
(428,0,l),
(667,650,l),
(561,650,l),
(326,0,l)
);
}
);
width = 580;
}
);
unicode = 87;
},
{
color = 0;
glyphname = X;
layers = (
{
anchors = (
{
name = bottom;
pos = (241,0);
},
{
name = top;
pos = (380,650);
}
);
background = {
anchors = (
{
name = bottom;
pos = (241,0);
},
{
name = top;
pos = (380,650);
}
);
shapes = (
{
closed = 1;
nodes = (
(499,0,l),
(364,353,l),
(261,650,l),
(127,650,l),
(262,297,l),
(365,0,l)
);
},
{
closed = 1;
nodes = (
(118,0,l),
(395,358,l),
(339,279,l),
(262,358,l),
(-22,0,l)
);
},
{
closed = 1;
nodes = (
(277,371,l),
(354,292,l),
(638,650,l),
(498,650,l),
(221,292,l)
);
}
);
};
layerId = "27302DAC-E04E-41A7-B2D2-BD8305143A0A";
shapes = (
{
closed = 1;
nodes = (
(118,0,l),
(289,221,l),
(365,0,l),
(499,0,l),
(376,320,l),
(638,650,l),
(498,650,l),
(334,438,l),
(261,650,l),
(127,650,l),
(246,338,l),
(-22,0,l)
);
}
);
width = 580;
},
{
anchors = (
{
name = bottom;
pos = (242,0);
},
{
name = top;
pos = (380,650);
}
);
background = {
anchors = (
{
name = bottom;
pos = (242,0);
},
{
name = top;
pos = (380,650);
}
);
shapes = (
{
closed = 1;
nodes = (
(475,0,l),
(345,342,l),
(231,650,l),
(152,650,l),
(284,308,l),
(396,0,l)
);
},
{
closed = 1;
nodes = (
(90,0,l),
(362,348,l),
(317,262,l),
(281,348,l),
(4,0,l)
);
},
{
closed = 1;
nodes = (
(300,388,l),
(336,302,l),
(613,650,l),
(527,650,l),
(255,302,l)
);
}
);
};
layerId = "B9B856C8-1FA2-46F4-A929-F36A99765E59";
shapes = (
{
closed = 1;
nodes = (
(90,0,l),
(299,268,l),
(396,0,l),
(475,0,l),
(352,323,l),
(613,650,l),
(527,650,l),
(326,392,l),
(231,650,l),
(152,650,l),
(273,337,l),
(4,0,l)
);
}
);
width = 580;
},
{
anchors = (
{
name = bottom;
pos = (240,0);
},
{
name = top;
pos = (378,650);
}
);
associatedMasterId = "B9B856C8-1FA2-46F4-A929-F36A99765E59";
background = {
anchors = (
{
name = bottom;
pos = (240,0);
},
{
name = top;
pos = (378,650);
}
);
shapes = (
{
closed = 1;
nodes = (
(476,0,l),
(345,342,l),
(232,650,l),
(147,650,l),
(280,308,l),
(391,0,l)
);
},
{
closed = 1;
nodes = (
(85,0,l),
(357,348,l),
(315,262,l),
(279,348,l),
(2,0,l)
);
},
{
closed = 1;
nodes = (
(298,388,l),
(334,302,l),
(611,650,l),
(528,650,l),
(256,302,l)
);
}
);
};
layerId = "19E829AA-6B6E-45D2-AAA8-8E76DEBB60A8";
name = slanted;
shapes = (
{
closed = 1;
nodes = (
(477,0,l),
(347,342,l),
(233,650,l),
(146,650,l),
(278,308,l),
(390,0,l)
);
},
{
closed = 1;
nodes = (
(84,0,l),
(357,348,l),
(317,262,l),
(281,348,l),
(3,0,l)
);
},
{
closed = 1;
nodes = (
(297,388,l),
(332,302,l),
(610,650,l),
(529,650,l),
(256,302,l)
);
}
);
width = 580;
},
{
anchors = (
{
name = bottom;
pos = (240,0);
},
{
name = top;
pos = (378,650);
}
);
associatedMasterId = "B9B856C8-1FA2-46F4-A929-F36A99765E59";
background = {
anchors = (
{
name = bottom;
pos = (240,0);
},
{
name = top;
pos = (378,650);
}
);
shapes = (
{
closed = 1;
nodes = (
(477,0,l),
(347,342,l),
(233,650,l),
(146,650,l),
(278,308,l),
(390,0,l)
);
},
{
closed = 1;
nodes = (
(84,0,l),
(357,348,l),
(317,262,l),
(281,348,l),
(3,0,l)
);
},
{
closed = 1;
nodes = (
(297,388,l),
(332,302,l),
(610,650,l),
(529,650,l),
(256,302,l)
);
}
);
};
layerId = "79C2186B-FF3A-4978-A7D7-65EE4FA8D773";
name = cursify;
shapes = (
{
closed = 1;
nodes = (
(476,0,l),
(345,342,l),
(232,650,l),
(147,650,l),
(280,308,l),
(391,0,l)
);
},
{
closed = 1;
nodes = (
(85,0,l),
(357,348,l),
(315,262,l),
(279,348,l),
(2,0,l)
);
},
{
closed = 1;
nodes = (
(298,388,l),
(334,302,l),
(611,650,l),
(528,650,l),
(256,302,l)
);
}
);
width = 580;
},
{
anchors = (
{
name = bottom;
pos = (239,0);
},
{
name = top;
pos = (378,650);
}
);
associatedMasterId = "27302DAC-E04E-41A7-B2D2-BD8305143A0A";
background = {
anchors = (
{
name = bottom;
pos = (239,0);
},
{
name = top;
pos = (378,650);
}
);
shapes = (
{
closed = 1;
nodes = (
(500,0,l),
(364,353,l),
(262,650,l),
(122,650,l),
(258,297,l),
(360,0,l)
);
},
{
closed = 1;
nodes = (
(111,0,l),
(390,358,l),
(337,279,l),
(260,358,l),
(-24,0,l)
);
},
{
closed = 1;
nodes = (
(275,371,l),
(352,292,l),
(636,650,l),
(501,650,l),
(222,292,l)
);
}
);
};
layerId = "FD31A7C9-BC37-4BF7-A78F-7F6C0C188403";
name = slanted;
shapes = (
{
closed = 1;
nodes = (
(501,0,l),
(367,353,l),
(264,650,l),
(121,650,l),
(255,297,l),
(358,0,l)
);
},
{
closed = 1;
nodes = (
(109,0,l),
(390,358,l),
(340,279,l),
(264,358,l),
(-23,0,l)
);
},
{
closed = 1;
nodes = (
(272,371,l),
(348,292,l),
(635,650,l),
(503,650,l),
(222,292,l)
);
}
);
width = 580;
},
{
anchors = (
{
name = bottom;
pos = (239,0);
},
{
name = top;
pos = (378,650);
}
);
associatedMasterId = "27302DAC-E04E-41A7-B2D2-BD8305143A0A";
background = {
anchors = (
{
name = bottom;
pos = (239,0);
},
{
name = top;
pos = (378,650);
}
);
shapes = (
{
closed = 1;
nodes = (
(501,0,l),
(367,353,l),
(264,650,l),
(121,650,l),
(255,297,l),
(358,0,l)
);
},
{
closed = 1;
nodes = (
(109,0,l),
(390,358,l),
(340,279,l),
(264,358,l),
(-23,0,l)
);
},
{
closed = 1;
nodes = (
(272,371,l),
(348,292,l),
(635,650,l),
(503,650,l),
(222,292,l)
);
}
);
};
layerId = "EDB561CC-CBB2-4C13-8F66-3ECD828A3E6A";
name = cursify;
shapes = (
{
closed = 1;
nodes = (
(500,0,l),
(364,353,l),
(262,650,l),
(122,650,l),
(258,297,l),
(360,0,l)
);
},
{
closed = 1;
nodes = (
(111,0,l),
(390,358,l),
(337,279,l),
(260,358,l),
(-24,0,l)
);
},
{
closed = 1;
nodes = (
(275,371,l),
(352,292,l),
(636,650,l),
(501,650,l),
(222,292,l)
);
}
);
width = 580;
}
);
unicode = 88;
},
{
color = 0;
glyphname = Y;
layers = (
{
anchors = (
{
name = bottom;
pos = (238,0);
},
{
name = top;
pos = (377,650);
},
{
name = topleft;
pos = (97,650);
}
);
background = {
anchors = (
{
name = bottom;
pos = (238,0);
},
{
name = top;
pos = (377,650);
},
{
name = topleft;
pos = (97,650);
}
);
shapes = (
{
closed = 1;
nodes = (
(298,0,l),
(370,337,l),
(250,337,l),
(178,0,l)
);
},
{
closed = 1;
nodes = (
(339,348,l),
(233,650,l),
(98,650,l),
(247,262,l)
);
},
{
closed = 1;
nodes = (
(658,650,l),
(518,650,l),
(284,348,l),
(348,262,l)
);
}
);
};
layerId = "27302DAC-E04E-41A7-B2D2-BD8305143A0A";
shapes = (
{
closed = 1;
nodes = (
(298,0,l),
(356,272,l),
(658,650,l),
(518,650,l),
(322,397,l),
(233,650,l),
(98,650,l),
(239,284,l),
(178,0,l)
);
}
);
width = 580;
},
{
anchors = (
{
name = bottom;
pos = (239,0);
},
{
name = top;
pos = (377,650);
},
{
name = topleft;
pos = (97,650);
}
);
background = {
anchors = (
{
name = bottom;
pos = (239,0);
},
{
name = top;
pos = (377,650);
},
{
name = topleft;
pos = (97,650);
}
);
shapes = (
{
closed = 1;
nodes = (
(276,0,l),
(348,338,l),
(274,338,l),
(202,0,l)
);
},
{
closed = 1;
nodes = (
(319,336,l),
(204,650,l),
(122,650,l),
(268,270,l)
);
},
{
closed = 1;
nodes = (
(634,650,l),
(548,650,l),
(299,336,l),
(330,270,l)
);
}
);
};
layerId = "B9B856C8-1FA2-46F4-A929-F36A99765E59";
shapes = (
{
closed = 1;
nodes = (
(276,0,l),
(335,276,l),
(634,650,l),
(547,650,l),
(313,353,l),
(203,650,l),
(122,650,l),
(263,284,l),
(202,0,l)
);
}
);
width = 580;
},
{
anchors = (
{
name = bottom;
pos = (239,0);
},
{
name = top;
pos = (378,650);
},
{
name = topleft;
pos = (98,650);
}
);
associatedMasterId = "27302DAC-E04E-41A7-B2D2-BD8305143A0A";
background = {
anchors = (
{
name = bottom;
pos = (239,0);
},
{
name = top;
pos = (378,650);
},
{
name = topleft;
pos = (98,650);
}
);
shapes = (
{
closed = 1;
nodes = (
(299,0,l),
(371,337,l),
(251,337,l),
(179,0,l)
);
},
{
closed = 1;
nodes = (
(345,348,l),
(239,650,l),
(99,650,l),
(248,262,l)
);
},
{
closed = 1;
nodes = (
(659,650,l),
(524,650,l),
(290,348,l),
(349,262,l)
);
}
);
};
layerId = "8115CE3A-07D1-4898-85CF-A4D138AE90B9";
name = slanted;
shapes = (
{
closed = 1;
nodes = (
(299,0,l),
(371,337,l),
(251,337,l),
(179,0,l)
);
},
{
closed = 1;
nodes = (
(345,348,l),
(241,650,l),
(98,650,l),
(245,262,l)
);
},
{
closed = 1;
nodes = (
(658,650,l),
(526,650,l),
(290,348,l),
(345,262,l)
);
}
);
width = 580;
},
{
anchors = (
{
name = bottom;
pos = (239,0);
},
{
name = top;
pos = (378,650);
},
{
name = topleft;
pos = (98,650);
}
);
associatedMasterId = "27302DAC-E04E-41A7-B2D2-BD8305143A0A";
background = {
anchors = (
{
name = bottom;
pos = (239,0);
},
{
name = top;
pos = (378,650);
},
{
name = topleft;
pos = (98,650);
}
);
shapes = (
{
closed = 1;
nodes = (
(299,0,l),
(371,337,l),
(251,337,l),
(179,0,l)
);
},
{
closed = 1;
nodes = (
(345,348,l),
(241,650,l),
(98,650,l),
(245,262,l)
);
},
{
closed = 1;
nodes = (
(658,650,l),
(526,650,l),
(290,348,l),
(345,262,l)
);
}
);
};
layerId = "43954FB0-F952-4D6E-A080-0FF07575F5B5";
name = cursify;
shapes = (
{
closed = 1;
nodes = (
(299,0,l),
(371,337,l),
(251,337,l),
(179,0,l)
);
},
{
closed = 1;
nodes = (
(345,348,l),
(239,650,l),
(99,650,l),
(248,262,l)
);
},
{
closed = 1;
nodes = (
(659,650,l),
(524,650,l),
(290,348,l),
(349,262,l)
);
}
);
width = 580;
},
{
anchors = (
{
name = bottom;
pos = (240,0);
},
{
name = top;
pos = (378,650);
},
{
name = topleft;
pos = (98,650);
}
);
associatedMasterId = "B9B856C8-1FA2-46F4-A929-F36A99765E59";
background = {
anchors = (
{
name = bottom;
pos = (240,0);
},
{
name = top;
pos = (378,650);
},
{
name = topleft;
pos = (98,650);
}
);
shapes = (
{
closed = 1;
nodes = (
(277,0,l),
(349,338,l),
(275,338,l),
(203,0,l)
);
},
{
closed = 1;
nodes = (
(323,336,l),
(208,650,l),
(123,650,l),
(269,270,l)
);
},
{
closed = 1;
nodes = (
(635,650,l),
(552,650,l),
(303,336,l),
(331,270,l)
);
}
);
};
layerId = "D079DC2A-9D82-4369-86A5-A4448C38C136";
name = slanted;
shapes = (
{
closed = 1;
nodes = (
(277,0,l),
(349,338,l),
(275,338,l),
(203,0,l)
);
},
{
closed = 1;
nodes = (
(323,336,l),
(209,650,l),
(122,650,l),
(266,270,l)
);
},
{
closed = 1;
nodes = (
(634,650,l),
(553,650,l),
(303,336,l),
(328,270,l)
);
}
);
width = 580;
},
{
anchors = (
{
name = bottom;
pos = (240,0);
},
{
name = top;
pos = (378,650);
},
{
name = topleft;
pos = (98,650);
}
);
associatedMasterId = "B9B856C8-1FA2-46F4-A929-F36A99765E59";
background = {
anchors = (
{
name = bottom;
pos = (240,0);
},
{
name = top;
pos = (378,650);
},
{
name = topleft;
pos = (98,650);
}
);
shapes = (
{
closed = 1;
nodes = (
(277,0,l),
(349,338,l),
(275,338,l),
(203,0,l)
);
},
{
closed = 1;
nodes = (
(323,336,l),
(209,650,l),
(122,650,l),
(266,270,l)
);
},
{
closed = 1;
nodes = (
(634,650,l),
(553,650,l),
(303,336,l),
(328,270,l)
);
}
);
};
layerId = "59B3012B-0CDD-4631-9881-C24FA715343F";
name = cursify;
shapes = (
{
closed = 1;
nodes = (
(277,0,l),
(349,338,l),
(275,338,l),
(203,0,l)
);
},
{
closed = 1;
nodes = (
(323,336,l),
(208,650,l),
(123,650,l),
(269,270,l)
);
},
{
closed = 1;
nodes = (
(635,650,l),
(552,650,l),
(303,336,l),
(331,270,l)
);
}
);
width = 580;
}
);
unicode = 89;
},
{
color = 0;
glyphname = Z;
layers = (
{
anchors = (
{
name = bottom;
pos = (239,0);
},
{
name = top;
pos = (384,650);
}
);
background = {
anchors = (
{
name = bottom;
pos = (239,0);
},
{
name = top;
pos = (384,650);
}
);
shapes = (
{
closed = 1;
nodes = (
(176,79,l),
(588,571,l),
(438,571,l),
(26,79,l)
);
},
{
closed = 1;
nodes = (
(466,0,l),
(490,110,l),
(102,110,l),
(26,79,l),
(9,0,l)
);
},
{
closed = 1;
nodes = (
(513,540,l),
(588,571,l),
(605,650,l),
(163,650,l),
(139,540,l)
);
}
);
};
layerId = "27302DAC-E04E-41A7-B2D2-BD8305143A0A";
shapes = (
{
closed = 1;
nodes = (
(466,0,l),
(490,110,l),
(202,110,l),
(588,571,l),
(605,650,l),
(163,650,l),
(139,540,l),
(412,540,l),
(26,79,l),
(9,0,l)
);
}
);
width = 580;
},
{
anchors = (
{
name = bottom;
pos = (240,0);
},
{
name = top;
pos = (385,650);
}
);
background = {
anchors = (
{
name = bottom;
pos = (240,0);
},
{
name = top;
pos = (385,650);
}
);
shapes = (
{
closed = 1;
nodes = (
(128,58,l),
(582,592,l),
(489,592,l),
(34,58,l)
);
},
{
closed = 1;
nodes = (
(456,0,l),
(471,70,l),
(85,70,l),
(34,58,l),
(22,0,l)
);
},
{
closed = 1;
nodes = (
(534,580,l),
(582,592,l),
(594,650,l),
(176,650,l),
(161,580,l)
);
}
);
};
layerId = "B9B856C8-1FA2-46F4-A929-F36A99765E59";
shapes = (
{
closed = 1;
nodes = (
(456,0,l),
(471,70,l),
(138,70,l),
(582,592,l),
(594,650,l),
(176,650,l),
(161,580,l),
(479,580,l),
(34,58,l),
(22,0,l)
);
}
);
width = 580;
},
{
anchors = (
{
name = bottom;
pos = (240,0);
},
{
name = top;
pos = (385,650);
}
);
associatedMasterId = "B9B856C8-1FA2-46F4-A929-F36A99765E59";
background = {
anchors = (
{
name = bottom;
pos = (240,0);
},
{
name = top;
pos = (385,650);
}
);
shapes = (
{
closed = 1;
nodes = (
(123,58,l),
(583,592,l),
(494,592,l),
(33,58,l)
);
},
{
closed = 1;
nodes = (
(456,0,l),
(471,70,l),
(85,70,l),
(34,58,l),
(22,0,l)
);
},
{
closed = 1;
nodes = (
(534,580,l),
(582,592,l),
(594,650,l),
(176,650,l),
(161,580,l)
);
}
);
};
layerId = "134F78DB-A06B-40C2-91A7-E8C6BE74F400";
name = slanted;
shapes = (
{
closed = 1;
nodes = (
(122,58,l),
(582,592,l),
(495,592,l),
(34,58,l)
);
},
{
closed = 1;
nodes = (
(456,0,l),
(471,70,l),
(85,70,l),
(34,58,l),
(22,0,l)
);
},
{
closed = 1;
nodes = (
(533,580,l),
(582,592,l),
(594,650,l),
(176,650,l),
(161,580,l)
);
}
);
width = 580;
},
{
anchors = (
{
name = bottom;
pos = (240,0);
},
{
name = top;
pos = (385,650);
}
);
associatedMasterId = "B9B856C8-1FA2-46F4-A929-F36A99765E59";
background = {
anchors = (
{
name = bottom;
pos = (240,0);
},
{
name = top;
pos = (385,650);
}
);
shapes = (
{
closed = 1;
nodes = (
(122,58,l),
(582,592,l),
(495,592,l),
(34,58,l)
);
},
{
closed = 1;
nodes = (
(456,0,l),
(471,70,l),
(85,70,l),
(34,58,l),
(22,0,l)
);
},
{
closed = 1;
nodes = (
(533,580,l),
(582,592,l),
(594,650,l),
(176,650,l),
(161,580,l)
);
}
);
};
layerId = "2CF97090-9C0A-4CAF-85D3-18950E21CA80";
name = cursify;
shapes = (
{
closed = 1;
nodes = (
(123,58,l),
(583,592,l),
(494,592,l),
(33,58,l)
);
},
{
closed = 1;
nodes = (
(456,0,l),
(471,70,l),
(85,70,l),
(34,58,l),
(22,0,l)
);
},
{
closed = 1;
nodes = (
(534,580,l),
(582,592,l),
(594,650,l),
(176,650,l),
(161,580,l)
);
}
);
width = 580;
},
{
anchors = (
{
name = bottom;
pos = (239,0);
},
{
name = top;
pos = (384,650);
}
);
associatedMasterId = "27302DAC-E04E-41A7-B2D2-BD8305143A0A";
background = {
anchors = (
{
name = bottom;
pos = (239,0);
},
{
name = top;
pos = (384,650);
}
);
shapes = (
{
closed = 1;
nodes = (
(168,79,l),
(590,571,l),
(446,571,l),
(24,79,l)
);
},
{
closed = 1;
nodes = (
(466,0,l),
(490,110,l),
(102,110,l),
(26,79,l),
(9,0,l)
);
},
{
closed = 1;
nodes = (
(513,540,l),
(588,571,l),
(605,650,l),
(163,650,l),
(139,540,l)
);
}
);
};
layerId = "1440E978-A061-41DF-BE50-75267C5178AF";
name = slanted;
shapes = (
{
closed = 1;
nodes = (
(166,79,l),
(588,571,l),
(448,571,l),
(26,79,l)
);
},
{
closed = 1;
nodes = (
(466,0,l),
(490,110,l),
(103,110,l),
(26,79,l),
(9,0,l)
);
},
{
closed = 1;
nodes = (
(512,540,l),
(588,571,l),
(605,650,l),
(163,650,l),
(139,540,l)
);
}
);
width = 580;
},
{
anchors = (
{
name = bottom;
pos = (239,0);
},
{
name = top;
pos = (384,650);
}
);
associatedMasterId = "27302DAC-E04E-41A7-B2D2-BD8305143A0A";
background = {
anchors = (
{
name = bottom;
pos = (239,0);
},
{
name = top;
pos = (384,650);
}
);
shapes = (
{
closed = 1;
nodes = (
(166,79,l),
(588,571,l),
(448,571,l),
(26,79,l)
);
},
{
closed = 1;
nodes = (
(466,0,l),
(490,110,l),
(103,110,l),
(26,79,l),
(9,0,l)
);
},
{
closed = 1;
nodes = (
(512,540,l),
(588,571,l),
(605,650,l),
(163,650,l),
(139,540,l)
);
}
);
};
layerId = "F9369E0C-6BC4-4CEC-B263-0E488A056B5D";
name = cursfiy;
shapes = (
{
closed = 1;
nodes = (
(168,79,l),
(590,571,l),
(446,571,l),
(24,79,l)
);
},
{
closed = 1;
nodes = (
(466,0,l),
(490,110,l),
(102,110,l),
(26,79,l),
(9,0,l)
);
},
{
closed = 1;
nodes = (
(513,540,l),
(588,571,l),
(605,650,l),
(163,650,l),
(139,540,l)
);
}
);
width = 580;
}
);
unicode = 90;
},
